<svg xmlns="http://www.w3.org/2000/svg" xmlns:xlink="http://www.w3.org/1999/xlink" width="500" zoomAndPan="magnify" viewBox="0 0 375 374.999991" height="500" preserveAspectRatio="xMidYMid meet" version="1.0"><defs><filter x="0%" y="0%" width="100%" height="100%" id="a5cb184d80"><feColorMatrix values="0 0 0 0 1 0 0 0 0 1 0 0 0 0 1 0 0 0 1 0" color-interpolation-filters="sRGB"/></filter><mask id="9f88222fd3"><g filter="url(#a5cb184d80)"><rect x="-37.5" width="450" fill="#000000" y="-37.499999" height="449.999989" fill-opacity="0.85"/></g></mask><clipPath id="3e96c6da29"><path d="M 0.640625 2 L 274.71875 2 L 274.71875 249 L 0.640625 249 Z M 0.640625 2 " clip-rule="nonzero"/></clipPath><clipPath id="7c3ec0d284"><rect x="0" width="275" y="0" height="251"/></clipPath><mask id="cad5fb367c"><g filter="url(#a5cb184d80)"><rect x="-37.5" width="450" fill="#000000" y="-37.499999" height="449.999989" fill-opacity="0.5"/></g></mask><clipPath id="785da9e025"><path d="M 0.550781 0.554688 L 259.800781 0.554688 L 259.800781 105.070312 L 0.550781 105.070312 Z M 0.550781 0.554688 " clip-rule="nonzero"/></clipPath><clipPath id="a4fcb1bb24"><rect x="0" width="260" y="0" height="106"/></clipPath></defs><g mask="url(#9f88222fd3)"><g transform="matrix(1, 0, 0, 1, 50, 72)"><g clip-path="url(#7c3ec0d284)"><g clip-path="url(#3e96c6da29)"><path fill="#a6a6a6" d="M 273.566406 63.066406 C 258.136719 -16.304688 161.417969 -17.628906 137.566406 56.566406 C 113.71875 -17.628906 16.996094 -16.304688 1.566406 63.066406 C -12.433594 135.078125 137.566406 248.6875 137.566406 248.6875 C 137.566406 248.6875 287.566406 135.078125 273.566406 63.066406 Z M 273.566406 63.066406 " fill-opacity="1" fill-rule="nonzero"/></g></g></g></g><g mask="url(#cad5fb367c)"><g transform="matrix(1, 0, 0, 1, 57, 117)"><g clip-path="url(#a4fcb1bb24)"><g clip-path="url(#785da9e025)"><path fill="#d9d9d9" d="M 259.769531 60.199219 C 259.125 60.160156 258.480469 60.09375 257.839844 60.09375 C 239.125 60.070312 220.410156 60.058594 201.695312 60.050781 C 197.257812 60.042969 192.820312 60.03125 188.382812 60.058594 C 182.0625 60.09375 175.75 60.195312 169.429688 60.199219 C 163.621094 60.203125 157.804688 60.117188 151.996094 60.09375 C 149.554688 60.082031 147.117188 60.128906 144.675781 60.125 C 140.023438 60.113281 135.371094 60.074219 130.71875 60.074219 C 128.207031 60.074219 125.703125 60.144531 123.191406 60.140625 C 118.539062 60.125 113.886719 60.066406 109.234375 60.050781 C 105.296875 60.03125 101.363281 60.039062 97.425781 60.058594 C 95.980469 60.066406 95.65625 59.9375 95.171875 58.644531 C 94.65625 57.257812 94.226562 55.832031 93.597656 53.945312 C 93.226562 55.929688 92.917969 57.398438 92.671875 58.875 C 91.316406 66.945312 89.972656 75.015625 88.621094 83.089844 C 88.328125 84.855469 87.894531 85.375 86.820312 85.289062 C 85.859375 85.210938 85.523438 84.726562 85.335938 83.019531 C 84.617188 76.519531 83.910156 70.015625 83.195312 63.511719 C 82.578125 57.882812 81.957031 52.25 81.328125 46.617188 C 80.679688 40.761719 80.011719 34.90625 79.355469 29.046875 C 78.988281 25.765625 78.628906 22.480469 78.027344 19.179688 C 77.859375 20.507812 77.640625 21.828125 77.542969 23.15625 C 77.191406 27.820312 76.90625 32.488281 76.5625 37.148438 C 76.359375 39.945312 76.070312 42.734375 75.859375 45.53125 C 75.503906 50.324219 75.203125 55.121094 74.847656 59.917969 C 74.503906 64.578125 74.113281 69.230469 73.757812 73.882812 C 73.40625 78.46875 73.085938 83.0625 72.730469 87.652344 C 72.320312 92.960938 71.890625 98.261719 71.480469 103.570312 C 71.425781 104.234375 71.40625 104.878906 70.636719 105.152344 C 69.648438 105.503906 68.792969 105.050781 68.578125 103.914062 C 68.335938 102.648438 68.214844 101.355469 68.066406 100.070312 C 67.152344 92.363281 66.273438 84.644531 65.316406 76.941406 C 64.6875 71.882812 63.941406 66.835938 63.277344 61.78125 C 63.085938 60.285156 63.027344 58.78125 62.847656 57.285156 C 62.742188 56.371094 62.515625 55.464844 62.03125 54.542969 C 61.53125 56.359375 61.046875 58.183594 60.519531 59.988281 C 60.175781 61.164062 59.738281 62.300781 59.390625 63.46875 C 59.175781 64.183594 58.761719 64.550781 58.007812 64.582031 C 57.125 64.621094 56.648438 64.132812 56.453125 63.371094 C 55.949219 61.425781 55.496094 59.46875 55.023438 57.515625 C 54.113281 53.746094 53.214844 49.976562 52.300781 46.203125 C 52.203125 45.796875 52.011719 45.414062 51.703125 44.589844 C 50.882812 49.105469 50.132812 53.175781 49.398438 57.253906 C 48.328125 63.191406 47.265625 69.132812 46.203125 75.070312 C 46.175781 75.210938 46.117188 75.351562 46.101562 75.492188 C 45.964844 76.394531 45.714844 77.253906 44.617188 77.285156 C 43.589844 77.320312 43.191406 76.578125 42.835938 75.710938 C 41.023438 71.328125 39.160156 66.964844 37.304688 62.597656 C 36.972656 61.8125 36.613281 61.039062 36.246094 60.226562 C 35.597656 60.183594 35.03125 60.113281 34.464844 60.113281 C 23.597656 60.109375 12.726562 60.109375 1.855469 60.117188 C 1.425781 60.117188 1 60.183594 0.570312 60.222656 C 0.570312 59.355469 0.570312 58.496094 0.570312 57.628906 C 1.648438 57.65625 2.726562 57.699219 3.804688 57.699219 C 14.457031 57.703125 25.109375 57.699219 35.761719 57.703125 C 38.265625 57.703125 38.265625 57.714844 39.214844 60.070312 C 40.664062 63.65625 42.109375 67.25 43.925781 70.871094 C 44.148438 69.886719 44.410156 68.914062 44.589844 67.921875 C 46.304688 58.453125 48.003906 48.976562 49.710938 39.503906 C 49.886719 38.511719 50.058594 37.523438 50.253906 36.535156 C 50.382812 35.871094 50.84375 35.585938 51.480469 35.535156 C 52.199219 35.476562 52.757812 35.714844 53.03125 36.414062 C 53.164062 36.75 53.222656 37.105469 53.300781 37.453125 C 54.742188 43.460938 56.179688 49.46875 57.625 55.476562 C 57.738281 55.957031 57.945312 56.40625 58.230469 57.234375 C 58.660156 55.816406 58.992188 54.75 59.304688 53.679688 C 60.019531 51.203125 60.742188 48.726562 61.433594 46.242188 C 61.691406 45.3125 62.285156 44.972656 63.199219 45.058594 C 64.097656 45.144531 64.375 45.753906 64.46875 46.539062 C 64.910156 50.304688 65.355469 54.066406 65.808594 57.832031 C 66.15625 60.75 66.523438 63.664062 66.878906 66.582031 C 67.535156 72.003906 68.179688 77.433594 68.835938 82.855469 C 69.023438 84.40625 69.234375 85.957031 69.648438 87.542969 C 69.769531 87.085938 69.964844 86.636719 70.003906 86.171875 C 70.339844 81.800781 70.660156 77.421875 70.96875 73.046875 C 71.507812 65.59375 72.023438 58.132812 72.578125 50.679688 C 73.050781 44.304688 73.5625 37.933594 74.066406 31.558594 C 74.589844 24.964844 75.132812 18.371094 75.648438 11.777344 C 75.847656 9.195312 76 6.609375 76.171875 4.027344 C 76.214844 3.382812 76.230469 2.730469 76.304688 2.089844 C 76.402344 1.214844 76.777344 0.578125 77.785156 0.574219 C 78.773438 0.574219 79.152344 1.121094 79.246094 2.058594 C 79.441406 3.917969 79.738281 5.765625 79.9375 7.621094 C 80.582031 13.550781 81.179688 19.488281 81.839844 25.417969 C 82.605469 32.273438 83.4375 39.125 84.210938 45.984375 C 84.734375 50.625 85.191406 55.277344 85.707031 59.917969 C 86.152344 63.953125 86.648438 67.988281 87.160156 72.347656 C 87.4375 71.816406 87.636719 71.585938 87.675781 71.332031 C 88.164062 68.214844 88.59375 65.089844 89.121094 61.980469 C 89.726562 58.441406 90.40625 54.914062 91.058594 51.378906 C 91.242188 50.390625 91.417969 49.398438 91.597656 48.410156 C 91.726562 47.699219 92.132812 47.082031 92.824219 47.117188 C 93.367188 47.144531 94.007812 47.539062 94.386719 47.964844 C 94.796875 48.421875 95.011719 49.082031 95.222656 49.683594 C 96.125 52.25 97.003906 54.832031 97.945312 57.574219 C 98.503906 57.617188 99.132812 57.710938 99.761719 57.710938 C 106.222656 57.6875 112.679688 57.625 119.140625 57.625 C 127.550781 57.625 135.964844 57.6875 144.375 57.703125 C 153.003906 57.71875 161.625 57.714844 170.25 57.714844 C 176.355469 57.714844 182.457031 57.714844 188.558594 57.714844 C 211.726562 57.714844 234.886719 57.714844 258.050781 57.714844 C 258.625 57.714844 259.195312 57.667969 259.769531 57.644531 C 259.769531 58.472656 259.769531 59.339844 259.769531 60.199219 Z M 259.769531 60.199219 " fill-opacity="1" fill-rule="nonzero"/></g></g></g></g><path stroke-linecap="round" transform="matrix(0, 0.75, -0.75, 0, 169.347356, 117.432971)" fill="none" stroke-linejoin="miter" d="M 1.50083 0.999599 L 213.41751 0.999599 " stroke="#94666b" stroke-width="2" stroke-opacity="1" stroke-miterlimit="4"/><path stroke-linecap="round" transform="matrix(0, 0.75, -0.75, 0, 169.347356, 117.432971)" fill="none" stroke-linejoin="round" d="M 5.00083 -2.000401 L 1.00083 0.999599 L 5.00083 3.9996 " stroke="#94666b" stroke-width="2" stroke-opacity="1" stroke-miterlimit="4"/><path stroke-linecap="round" transform="matrix(0.75, 0, 0, 0.75, 109.045017, 220.785307)" fill="none" stroke-linejoin="miter" d="M 1.002477 0.999799 L 212.919158 0.999799 " stroke="#94666b" stroke-width="2" stroke-opacity="1" stroke-miterlimit="4"/><path stroke-linecap="round" transform="matrix(0.75, 0, 0, 0.75, 109.045017, 220.785307)" fill="none" stroke-linejoin="round" d="M 209.419157 -2.000201 L 213.419158 0.999799 L 209.419157 3.999799 " stroke="#94666b" stroke-width="2" stroke-opacity="1" stroke-miterlimit="4"/><path stroke-linecap="round" transform="matrix(-0.675662, 0.325547, -0.325547, -0.675662, 262.744264, 173.462787)" fill="none" stroke-linejoin="miter" d="M 2.804981 28.226019 C 64.54326 -6.76127 126.274909 -6.745582 188.014004 28.279865 " stroke="#e95060" stroke-width="4" stroke-opacity="1" stroke-miterlimit="4"/></svg>