<svg xmlns="http://www.w3.org/2000/svg" xmlns:xlink="http://www.w3.org/1999/xlink" width="566" zoomAndPan="magnify" viewBox="0 0 425.03998 141.750002" height="188" preserveAspectRatio="xMidYMid meet" version="1.0"><defs><filter x="0%" y="0%" width="100%" height="100%" id="521f429b0f"><feColorMatrix values="0 0 0 0 1 0 0 0 0 1 0 0 0 0 1 0 0 0 1 0" color-interpolation-filters="sRGB"/></filter><g/><clipPath id="7d98637382"><path d="M 0 0.0351562 L 424.046875 0.0351562 L 424.046875 141.464844 L 0 141.464844 Z M 0 0.0351562 " clip-rule="nonzero"/></clipPath><mask id="f8673bd29f"><g filter="url(#521f429b0f)"><rect x="-42.503998" width="510.047976" fill="#000000" y="-14.175" height="170.100003" fill-opacity="0.85"/></g></mask><clipPath id="a1e638b613"><path d="M 0.1875 1 L 98.125 1 L 98.125 89.820312 L 0.1875 89.820312 Z M 0.1875 1 " clip-rule="nonzero"/></clipPath><clipPath id="106498d6f3"><rect x="0" width="99" y="0" height="91"/></clipPath><mask id="4375b32840"><g filter="url(#521f429b0f)"><rect x="-42.503998" width="510.047976" fill="#000000" y="-14.175" height="170.100003" fill-opacity="0.5"/></g></mask><clipPath id="a843e4749f"><path d="M 0.6875 1.058594 L 93.492188 1.058594 L 93.492188 38.421875 L 0.6875 38.421875 Z M 0.6875 1.058594 " clip-rule="nonzero"/></clipPath><clipPath id="343eeb01bd"><rect x="0" width="94" y="0" height="39"/></clipPath></defs><g clip-path="url(#7d98637382)"><path fill="#ffffff" d="M 0 0.0351562 L 424.292969 0.0351562 L 424.292969 141.464844 L 0 141.464844 Z M 0 0.0351562 " fill-opacity="1" fill-rule="nonzero"/><path fill="#ffffff" d="M 0 0.0351562 L 424.292969 0.0351562 L 424.292969 141.464844 L 0 141.464844 Z M 0 0.0351562 " fill-opacity="1" fill-rule="nonzero"/></g><g mask="url(#f8673bd29f)"><g transform="matrix(1, 0, 0, 1, 41, 25)"><g clip-path="url(#106498d6f3)"><g clip-path="url(#a1e638b613)"><path fill="#a6a6a6" d="M 97.789062 23.316406 C 92.273438 -5.058594 57.695312 -5.53125 49.167969 20.996094 C 40.644531 -5.53125 6.066406 -5.058594 0.550781 23.316406 C -4.457031 49.0625 49.167969 89.675781 49.167969 89.675781 C 49.167969 89.675781 102.796875 49.0625 97.789062 23.316406 Z M 97.789062 23.316406 " fill-opacity="1" fill-rule="nonzero"/></g></g></g></g><g mask="url(#4375b32840)"><g transform="matrix(1, 0, 0, 1, 43, 41)"><g clip-path="url(#343eeb01bd)"><g clip-path="url(#a843e4749f)"><path fill="#d9d9d9" d="M 93.359375 22.378906 C 93.128906 22.367188 92.898438 22.34375 92.671875 22.34375 C 85.980469 22.335938 79.289062 22.332031 72.597656 22.328125 C 71.011719 22.324219 69.425781 22.320312 67.839844 22.332031 C 65.578125 22.34375 63.320312 22.378906 61.0625 22.378906 C 58.984375 22.382812 56.90625 22.351562 54.832031 22.34375 C 53.957031 22.339844 53.085938 22.355469 52.214844 22.355469 C 50.550781 22.351562 48.886719 22.335938 47.222656 22.335938 C 46.324219 22.335938 45.429688 22.363281 44.53125 22.359375 C 42.867188 22.355469 41.207031 22.332031 39.542969 22.328125 C 38.136719 22.320312 36.730469 22.324219 35.320312 22.332031 C 34.804688 22.332031 34.6875 22.285156 34.515625 21.824219 C 34.332031 21.328125 34.175781 20.820312 33.953125 20.144531 C 33.820312 20.855469 33.710938 21.378906 33.621094 21.90625 C 33.136719 24.792969 32.65625 27.679688 32.175781 30.5625 C 32.070312 31.195312 31.914062 31.382812 31.53125 31.351562 C 31.1875 31.320312 31.066406 31.148438 31 30.539062 C 30.742188 28.214844 30.488281 25.890625 30.234375 23.566406 C 30.011719 21.550781 29.792969 19.539062 29.566406 17.527344 C 29.335938 15.429688 29.09375 13.335938 28.859375 11.242188 C 28.730469 10.070312 28.601562 8.894531 28.386719 7.714844 C 28.328125 8.191406 28.246094 8.664062 28.214844 9.136719 C 28.089844 10.804688 27.984375 12.472656 27.863281 14.140625 C 27.789062 15.140625 27.6875 16.136719 27.609375 17.136719 C 27.484375 18.851562 27.375 20.566406 27.25 22.28125 C 27.125 23.945312 26.984375 25.609375 26.859375 27.273438 C 26.734375 28.914062 26.617188 30.554688 26.492188 32.195312 C 26.347656 34.09375 26.191406 35.988281 26.046875 37.886719 C 26.027344 38.121094 26.019531 38.355469 25.746094 38.453125 C 25.390625 38.578125 25.085938 38.414062 25.007812 38.007812 C 24.921875 37.554688 24.878906 37.09375 24.824219 36.632812 C 24.5 33.878906 24.183594 31.121094 23.84375 28.367188 C 23.617188 26.558594 23.351562 24.753906 23.113281 22.945312 C 23.042969 22.410156 23.023438 21.875 22.960938 21.339844 C 22.921875 21.011719 22.839844 20.6875 22.667969 20.359375 C 22.488281 21.007812 22.316406 21.660156 22.128906 22.304688 C 22.003906 22.726562 21.847656 23.132812 21.722656 23.550781 C 21.648438 23.804688 21.5 23.9375 21.230469 23.949219 C 20.914062 23.960938 20.742188 23.785156 20.671875 23.515625 C 20.492188 22.820312 20.332031 22.121094 20.164062 21.421875 C 19.835938 20.074219 19.515625 18.726562 19.1875 17.378906 C 19.15625 17.230469 19.085938 17.09375 18.976562 16.800781 C 18.679688 18.414062 18.414062 19.871094 18.152344 21.328125 C 17.769531 23.449219 17.390625 25.574219 17.007812 27.699219 C 17 27.746094 16.976562 27.796875 16.972656 27.847656 C 16.925781 28.171875 16.832031 28.476562 16.441406 28.488281 C 16.074219 28.5 15.933594 28.234375 15.804688 27.925781 C 15.15625 26.359375 14.492188 24.800781 13.828125 23.238281 C 13.710938 22.957031 13.582031 22.679688 13.449219 22.390625 C 13.21875 22.375 13.015625 22.351562 12.8125 22.351562 C 8.925781 22.347656 5.042969 22.347656 1.15625 22.351562 C 1 22.351562 0.847656 22.375 0.695312 22.386719 C 0.695312 22.078125 0.695312 21.769531 0.695312 21.460938 C 1.078125 21.472656 1.464844 21.488281 1.851562 21.488281 C 5.660156 21.488281 9.46875 21.488281 13.277344 21.488281 C 14.171875 21.488281 14.171875 21.492188 14.511719 22.335938 C 15.027344 23.617188 15.546875 24.902344 16.195312 26.195312 C 16.273438 25.84375 16.367188 25.496094 16.433594 25.140625 C 17.046875 21.753906 17.652344 18.367188 18.261719 14.980469 C 18.324219 14.628906 18.386719 14.273438 18.457031 13.921875 C 18.503906 13.683594 18.667969 13.582031 18.894531 13.5625 C 19.152344 13.542969 19.351562 13.628906 19.449219 13.878906 C 19.496094 13.996094 19.519531 14.125 19.546875 14.25 C 20.0625 16.398438 20.574219 18.542969 21.09375 20.691406 C 21.132812 20.863281 21.207031 21.023438 21.308594 21.320312 C 21.460938 20.8125 21.582031 20.433594 21.691406 20.050781 C 21.949219 19.164062 22.207031 18.28125 22.453125 17.390625 C 22.546875 17.058594 22.757812 16.9375 23.085938 16.96875 C 23.40625 17 23.507812 17.214844 23.539062 17.496094 C 23.695312 18.84375 23.855469 20.1875 24.015625 21.535156 C 24.140625 22.578125 24.273438 23.617188 24.398438 24.664062 C 24.632812 26.601562 24.867188 28.542969 25.101562 30.480469 C 25.167969 31.035156 25.242188 31.589844 25.390625 32.15625 C 25.433594 31.992188 25.503906 31.832031 25.515625 31.667969 C 25.636719 30.101562 25.75 28.539062 25.863281 26.972656 C 26.054688 24.308594 26.242188 21.640625 26.4375 18.976562 C 26.609375 16.699219 26.789062 14.421875 26.972656 12.140625 C 27.15625 9.785156 27.351562 7.425781 27.535156 5.070312 C 27.605469 4.148438 27.660156 3.222656 27.722656 2.296875 C 27.738281 2.066406 27.742188 1.835938 27.769531 1.605469 C 27.804688 1.292969 27.941406 1.066406 28.300781 1.0625 C 28.652344 1.0625 28.789062 1.261719 28.824219 1.59375 C 28.890625 2.261719 28.996094 2.917969 29.070312 3.582031 C 29.300781 5.703125 29.511719 7.828125 29.75 9.945312 C 30.023438 12.398438 30.320312 14.847656 30.597656 17.296875 C 30.785156 18.957031 30.949219 20.621094 31.132812 22.28125 C 31.292969 23.722656 31.46875 25.164062 31.652344 26.722656 C 31.75 26.535156 31.820312 26.453125 31.835938 26.359375 C 32.011719 25.246094 32.164062 24.128906 32.351562 23.015625 C 32.566406 21.75 32.8125 20.492188 33.046875 19.226562 C 33.109375 18.875 33.175781 18.519531 33.238281 18.164062 C 33.285156 17.910156 33.429688 17.691406 33.675781 17.703125 C 33.871094 17.714844 34.097656 17.855469 34.234375 18.007812 C 34.382812 18.167969 34.457031 18.40625 34.535156 18.621094 C 34.855469 19.539062 35.167969 20.460938 35.507812 21.441406 C 35.707031 21.457031 35.929688 21.492188 36.15625 21.492188 C 38.464844 21.484375 40.773438 21.460938 43.085938 21.460938 C 46.089844 21.460938 49.097656 21.484375 52.105469 21.488281 C 55.191406 21.496094 58.273438 21.492188 61.355469 21.492188 C 63.539062 21.492188 65.71875 21.492188 67.902344 21.492188 C 76.183594 21.492188 84.464844 21.492188 92.746094 21.492188 C 92.949219 21.492188 93.15625 21.476562 93.359375 21.46875 C 93.359375 21.761719 93.359375 22.074219 93.359375 22.378906 Z M 93.359375 22.378906 " fill-opacity="1" fill-rule="nonzero"/></g></g></g></g><path stroke-linecap="round" transform="matrix(0, 0.377415, -0.377415, 0, 83.577684, 42.012614)" fill="none" stroke-linejoin="miter" d="M 0.753178 0.495632 L 151.832361 0.495632 " stroke="#94666b" stroke-width="1" stroke-opacity="1" stroke-miterlimit="4"/><path stroke-linecap="round" transform="matrix(0, 0.377415, -0.377415, 0, 83.577684, 42.012614)" fill="none" stroke-linejoin="round" d="M 2.502331 -1.00512 L 0.504778 0.495632 L 2.502331 1.996384 " stroke="#94666b" stroke-width="1" stroke-opacity="1" stroke-miterlimit="4"/><path stroke-linecap="round" transform="matrix(-0.340007, 0.163822, -0.163822, -0.340007, 117.06828, 62.06464)" fill="none" stroke-linejoin="miter" d="M 2.083322 20.104376 C 45.914235 -4.720566 89.75734 -4.70096 133.589497 20.163533 " stroke="#e95060" stroke-width="3" stroke-opacity="1" stroke-miterlimit="4"/><path stroke-linecap="round" transform="matrix(0.377415, 0, 0, 0.377415, 62.097503, 79.042218)" fill="none" stroke-linejoin="miter" d="M 0.497207 0.49879 L 151.57639 0.49879 " stroke="#94666b" stroke-width="1" stroke-opacity="1" stroke-miterlimit="4"/><path stroke-linecap="round" transform="matrix(0.377415, 0, 0, 0.377415, 62.097503, 79.042218)" fill="none" stroke-linejoin="round" d="M 149.827237 -1.001962 L 151.83514 0.49879 L 149.827237 1.999542 " stroke="#94666b" stroke-width="1" stroke-opacity="1" stroke-miterlimit="4"/><g fill="#7d343c" fill-opacity="1"><g transform="translate(161.597193, 91.559547)"><g><path d="M 38.125 -16.296875 C 38.125 -13.441406 37.59375 -10.9375 36.53125 -8.78125 C 35.46875 -6.625 34.023438 -4.820312 32.203125 -3.375 C 30.390625 -1.9375 28.265625 -0.851562 25.828125 -0.125 C 23.390625 0.601562 20.785156 0.96875 18.015625 0.96875 C 16.140625 0.96875 14.394531 0.8125 12.78125 0.5 C 11.175781 0.195312 9.753906 -0.171875 8.515625 -0.609375 C 7.285156 -1.046875 6.257812 -1.5 5.4375 -1.96875 C 4.613281 -2.445312 4.019531 -2.867188 3.65625 -3.234375 C 3.289062 -3.597656 3.03125 -4.125 2.875 -4.8125 C 2.71875 -5.5 2.640625 -6.484375 2.640625 -7.765625 C 2.640625 -8.640625 2.664062 -9.367188 2.71875 -9.953125 C 2.78125 -10.535156 2.875 -11.007812 3 -11.375 C 3.125 -11.738281 3.289062 -12 3.5 -12.15625 C 3.71875 -12.3125 3.960938 -12.390625 4.234375 -12.390625 C 4.628906 -12.390625 5.179688 -12.15625 5.890625 -11.6875 C 6.609375 -11.226562 7.523438 -10.71875 8.640625 -10.15625 C 9.765625 -9.601562 11.101562 -9.09375 12.65625 -8.625 C 14.207031 -8.164062 16.007812 -7.9375 18.0625 -7.9375 C 19.40625 -7.9375 20.609375 -8.097656 21.671875 -8.421875 C 22.734375 -8.742188 23.632812 -9.195312 24.375 -9.78125 C 25.113281 -10.375 25.679688 -11.101562 26.078125 -11.96875 C 26.472656 -12.832031 26.671875 -13.796875 26.671875 -14.859375 C 26.671875 -16.097656 26.332031 -17.15625 25.65625 -18.03125 C 24.988281 -18.914062 24.113281 -19.703125 23.03125 -20.390625 C 21.957031 -21.078125 20.734375 -21.71875 19.359375 -22.3125 C 17.984375 -22.914062 16.566406 -23.550781 15.109375 -24.21875 C 13.660156 -24.894531 12.25 -25.660156 10.875 -26.515625 C 9.5 -27.367188 8.269531 -28.390625 7.1875 -29.578125 C 6.113281 -30.773438 5.238281 -32.179688 4.5625 -33.796875 C 3.894531 -35.421875 3.5625 -37.367188 3.5625 -39.640625 C 3.5625 -42.242188 4.046875 -44.53125 5.015625 -46.5 C 5.984375 -48.476562 7.285156 -50.117188 8.921875 -51.421875 C 10.554688 -52.722656 12.488281 -53.691406 14.71875 -54.328125 C 16.945312 -54.972656 19.304688 -55.296875 21.796875 -55.296875 C 23.078125 -55.296875 24.363281 -55.195312 25.65625 -55 C 26.945312 -54.8125 28.148438 -54.546875 29.265625 -54.203125 C 30.390625 -53.867188 31.382812 -53.492188 32.25 -53.078125 C 33.113281 -52.660156 33.6875 -52.3125 33.96875 -52.03125 C 34.25 -51.75 34.4375 -51.507812 34.53125 -51.3125 C 34.632812 -51.113281 34.71875 -50.851562 34.78125 -50.53125 C 34.851562 -50.21875 34.90625 -49.8125 34.9375 -49.3125 C 34.96875 -48.820312 34.984375 -48.21875 34.984375 -47.5 C 34.984375 -46.6875 34.960938 -46 34.921875 -45.4375 C 34.878906 -44.875 34.804688 -44.410156 34.703125 -44.046875 C 34.609375 -43.679688 34.46875 -43.414062 34.28125 -43.25 C 34.101562 -43.082031 33.859375 -43 33.546875 -43 C 33.242188 -43 32.753906 -43.191406 32.078125 -43.578125 C 31.410156 -43.972656 30.585938 -44.398438 29.609375 -44.859375 C 28.628906 -45.328125 27.492188 -45.75 26.203125 -46.125 C 24.910156 -46.507812 23.5 -46.703125 21.96875 -46.703125 C 20.757812 -46.703125 19.707031 -46.550781 18.8125 -46.25 C 17.914062 -45.957031 17.164062 -45.550781 16.5625 -45.03125 C 15.957031 -44.519531 15.507812 -43.898438 15.21875 -43.171875 C 14.925781 -42.441406 14.78125 -41.671875 14.78125 -40.859375 C 14.78125 -39.648438 15.109375 -38.601562 15.765625 -37.71875 C 16.421875 -36.84375 17.300781 -36.0625 18.40625 -35.375 C 19.519531 -34.6875 20.773438 -34.039062 22.171875 -33.4375 C 23.566406 -32.84375 24.992188 -32.207031 26.453125 -31.53125 C 27.910156 -30.863281 29.335938 -30.101562 30.734375 -29.25 C 32.140625 -28.394531 33.382812 -27.367188 34.46875 -26.171875 C 35.5625 -24.984375 36.441406 -23.582031 37.109375 -21.96875 C 37.785156 -20.363281 38.125 -18.472656 38.125 -16.296875 Z M 38.125 -16.296875 "/></g></g></g><g fill="#7d343c" fill-opacity="1"><g transform="translate(202.240648, 91.559547)"><g><path d="M 54.796875 -27.796875 C 54.796875 -23.285156 54.234375 -19.253906 53.109375 -15.703125 C 51.992188 -12.148438 50.332031 -9.132812 48.125 -6.65625 C 45.914062 -4.175781 43.175781 -2.285156 39.90625 -0.984375 C 36.644531 0.316406 32.875 0.96875 28.59375 0.96875 C 24.363281 0.96875 20.675781 0.414062 17.53125 -0.6875 C 14.382812 -1.800781 11.757812 -3.488281 9.65625 -5.75 C 7.5625 -8.019531 5.988281 -10.90625 4.9375 -14.40625 C 3.882812 -17.90625 3.359375 -22.046875 3.359375 -26.828125 C 3.359375 -31.222656 3.914062 -35.175781 5.03125 -38.6875 C 6.15625 -42.207031 7.820312 -45.195312 10.03125 -47.65625 C 12.25 -50.125 14.988281 -52.015625 18.25 -53.328125 C 21.507812 -54.640625 25.296875 -55.296875 29.609375 -55.296875 C 33.722656 -55.296875 37.351562 -54.75 40.5 -53.65625 C 43.644531 -52.570312 46.273438 -50.894531 48.390625 -48.625 C 50.503906 -46.351562 52.097656 -43.488281 53.171875 -40.03125 C 54.253906 -36.582031 54.796875 -32.503906 54.796875 -27.796875 Z M 43.203125 -27.21875 C 43.203125 -30.070312 42.976562 -32.664062 42.53125 -35 C 42.082031 -37.332031 41.320312 -39.332031 40.25 -41 C 39.175781 -42.664062 37.742188 -43.953125 35.953125 -44.859375 C 34.160156 -45.773438 31.921875 -46.234375 29.234375 -46.234375 C 26.515625 -46.234375 24.242188 -45.722656 22.421875 -44.703125 C 20.597656 -43.679688 19.125 -42.316406 18 -40.609375 C 16.882812 -38.898438 16.097656 -36.90625 15.640625 -34.625 C 15.179688 -32.34375 14.953125 -29.925781 14.953125 -27.375 C 14.953125 -24.40625 15.175781 -21.738281 15.625 -19.375 C 16.070312 -17.007812 16.828125 -14.988281 17.890625 -13.3125 C 18.953125 -11.632812 20.378906 -10.351562 22.171875 -9.46875 C 23.960938 -8.582031 26.21875 -8.140625 28.9375 -8.140625 C 31.644531 -8.140625 33.910156 -8.644531 35.734375 -9.65625 C 37.554688 -10.664062 39.023438 -12.035156 40.140625 -13.765625 C 41.265625 -15.503906 42.054688 -17.53125 42.515625 -19.84375 C 42.972656 -22.15625 43.203125 -24.613281 43.203125 -27.21875 Z M 43.203125 -27.21875 "/></g></g></g><g fill="#7d343c" fill-opacity="1"><g transform="translate(260.392704, 91.559547)"><g><path d="M 43.5 -8.234375 C 43.5 -7.535156 43.476562 -6.941406 43.4375 -6.453125 C 43.394531 -5.960938 43.332031 -5.539062 43.25 -5.1875 C 43.164062 -4.832031 43.050781 -4.53125 42.90625 -4.28125 C 42.769531 -4.03125 42.546875 -3.742188 42.234375 -3.421875 C 41.929688 -3.097656 41.335938 -2.679688 40.453125 -2.171875 C 39.578125 -1.671875 38.5 -1.191406 37.21875 -0.734375 C 35.945312 -0.273438 34.492188 0.101562 32.859375 0.40625 C 31.222656 0.71875 29.453125 0.875 27.546875 0.875 C 23.828125 0.875 20.46875 0.300781 17.46875 -0.84375 C 14.46875 -1.988281 11.914062 -3.703125 9.8125 -5.984375 C 7.71875 -8.265625 6.109375 -11.113281 4.984375 -14.53125 C 3.867188 -17.945312 3.3125 -21.921875 3.3125 -26.453125 C 3.3125 -31.078125 3.925781 -35.179688 5.15625 -38.765625 C 6.394531 -42.347656 8.117188 -45.351562 10.328125 -47.78125 C 12.535156 -50.21875 15.1875 -52.066406 18.28125 -53.328125 C 21.375 -54.585938 24.785156 -55.21875 28.515625 -55.21875 C 30.023438 -55.21875 31.476562 -55.09375 32.875 -54.84375 C 34.28125 -54.59375 35.578125 -54.265625 36.765625 -53.859375 C 37.953125 -53.453125 39.019531 -52.984375 39.96875 -52.453125 C 40.925781 -51.921875 41.59375 -51.460938 41.96875 -51.078125 C 42.34375 -50.703125 42.597656 -50.390625 42.734375 -50.140625 C 42.878906 -49.890625 42.992188 -49.566406 43.078125 -49.171875 C 43.160156 -48.773438 43.222656 -48.3125 43.265625 -47.78125 C 43.316406 -47.25 43.34375 -46.59375 43.34375 -45.8125 C 43.34375 -44.96875 43.3125 -44.253906 43.25 -43.671875 C 43.195312 -43.085938 43.097656 -42.613281 42.953125 -42.25 C 42.816406 -41.882812 42.648438 -41.613281 42.453125 -41.4375 C 42.253906 -41.269531 42.03125 -41.1875 41.78125 -41.1875 C 41.363281 -41.1875 40.832031 -41.429688 40.1875 -41.921875 C 39.539062 -42.421875 38.707031 -42.96875 37.6875 -43.5625 C 36.664062 -44.164062 35.445312 -44.710938 34.03125 -45.203125 C 32.625 -45.691406 30.9375 -45.9375 28.96875 -45.9375 C 26.8125 -45.9375 24.882812 -45.492188 23.1875 -44.609375 C 21.5 -43.734375 20.0625 -42.472656 18.875 -40.828125 C 17.6875 -39.191406 16.785156 -37.210938 16.171875 -34.890625 C 15.554688 -32.566406 15.25 -29.953125 15.25 -27.046875 C 15.25 -23.847656 15.578125 -21.082031 16.234375 -18.75 C 16.890625 -16.414062 17.828125 -14.488281 19.046875 -12.96875 C 20.265625 -11.457031 21.734375 -10.332031 23.453125 -9.59375 C 25.171875 -8.851562 27.109375 -8.484375 29.265625 -8.484375 C 31.222656 -8.484375 32.914062 -8.710938 34.34375 -9.171875 C 35.769531 -9.640625 36.992188 -10.148438 38.015625 -10.703125 C 39.046875 -11.265625 39.890625 -11.769531 40.546875 -12.21875 C 41.203125 -12.664062 41.710938 -12.890625 42.078125 -12.890625 C 42.359375 -12.890625 42.582031 -12.832031 42.75 -12.71875 C 42.914062 -12.613281 43.054688 -12.390625 43.171875 -12.046875 C 43.285156 -11.710938 43.367188 -11.242188 43.421875 -10.640625 C 43.472656 -10.046875 43.5 -9.242188 43.5 -8.234375 Z M 43.5 -8.234375 "/></g></g></g><g fill="#7d343c" fill-opacity="1"><g transform="translate(305.906655, 91.559547)"><g><path d="M 48.328125 -1.515625 C 48.328125 -1.234375 48.234375 -0.976562 48.046875 -0.75 C 47.867188 -0.53125 47.570312 -0.347656 47.15625 -0.203125 C 46.738281 -0.0664062 46.175781 0.0390625 45.46875 0.125 C 44.769531 0.207031 43.890625 0.25 42.828125 0.25 C 41.734375 0.25 40.828125 0.207031 40.109375 0.125 C 39.398438 0.0390625 38.84375 -0.0664062 38.4375 -0.203125 C 38.03125 -0.347656 37.738281 -0.53125 37.5625 -0.75 C 37.382812 -0.976562 37.296875 -1.234375 37.296875 -1.515625 L 37.296875 -23.46875 L 16.96875 -23.46875 L 16.96875 -1.515625 C 16.96875 -1.234375 16.882812 -0.976562 16.71875 -0.75 C 16.550781 -0.53125 16.253906 -0.347656 15.828125 -0.203125 C 15.410156 -0.0664062 14.851562 0.0390625 14.15625 0.125 C 13.457031 0.207031 12.5625 0.25 11.46875 0.25 C 10.40625 0.25 9.515625 0.207031 8.796875 0.125 C 8.085938 0.0390625 7.519531 -0.0664062 7.09375 -0.203125 C 6.675781 -0.347656 6.375 -0.53125 6.1875 -0.75 C 6.007812 -0.976562 5.921875 -1.234375 5.921875 -1.515625 L 5.921875 -52.828125 C 5.921875 -53.109375 6.007812 -53.359375 6.1875 -53.578125 C 6.375 -53.804688 6.675781 -53.988281 7.09375 -54.125 C 7.519531 -54.269531 8.085938 -54.382812 8.796875 -54.46875 C 9.515625 -54.550781 10.40625 -54.59375 11.46875 -54.59375 C 12.5625 -54.59375 13.457031 -54.550781 14.15625 -54.46875 C 14.851562 -54.382812 15.410156 -54.269531 15.828125 -54.125 C 16.253906 -53.988281 16.550781 -53.804688 16.71875 -53.578125 C 16.882812 -53.359375 16.96875 -53.109375 16.96875 -52.828125 L 16.96875 -32.875 L 37.296875 -32.875 L 37.296875 -52.828125 C 37.296875 -53.109375 37.382812 -53.359375 37.5625 -53.578125 C 37.738281 -53.804688 38.03125 -53.988281 38.4375 -54.125 C 38.84375 -54.269531 39.398438 -54.382812 40.109375 -54.46875 C 40.828125 -54.550781 41.734375 -54.59375 42.828125 -54.59375 C 43.890625 -54.59375 44.769531 -54.550781 45.46875 -54.46875 C 46.175781 -54.382812 46.738281 -54.269531 47.15625 -54.125 C 47.570312 -53.988281 47.867188 -53.804688 48.046875 -53.578125 C 48.234375 -53.359375 48.328125 -53.109375 48.328125 -52.828125 Z M 48.328125 -1.515625 "/></g></g></g><g fill="#6d484c" fill-opacity="1"><g transform="translate(147.032837, 115.615489)"><g><path d="M 7.234375 -3.09375 C 7.234375 -2.550781 7.132812 -2.070312 6.9375 -1.65625 C 6.738281 -1.25 6.460938 -0.910156 6.109375 -0.640625 C 5.765625 -0.367188 5.359375 -0.160156 4.890625 -0.015625 C 4.429688 0.117188 3.941406 0.1875 3.421875 0.1875 C 3.066406 0.1875 2.734375 0.15625 2.421875 0.09375 C 2.117188 0.0390625 1.847656 -0.0234375 1.609375 -0.109375 C 1.378906 -0.191406 1.1875 -0.28125 1.03125 -0.375 C 0.875 -0.46875 0.757812 -0.546875 0.6875 -0.609375 C 0.625 -0.679688 0.578125 -0.78125 0.546875 -0.90625 C 0.515625 -1.039062 0.5 -1.226562 0.5 -1.46875 C 0.5 -1.632812 0.503906 -1.773438 0.515625 -1.890625 C 0.523438 -2.003906 0.539062 -2.09375 0.5625 -2.15625 C 0.59375 -2.226562 0.625 -2.28125 0.65625 -2.3125 C 0.695312 -2.34375 0.75 -2.359375 0.8125 -2.359375 C 0.882812 -2.359375 0.988281 -2.3125 1.125 -2.21875 C 1.257812 -2.132812 1.429688 -2.035156 1.640625 -1.921875 C 1.859375 -1.816406 2.113281 -1.71875 2.40625 -1.625 C 2.695312 -1.539062 3.035156 -1.5 3.421875 -1.5 C 3.679688 -1.5 3.910156 -1.53125 4.109375 -1.59375 C 4.316406 -1.65625 4.488281 -1.742188 4.625 -1.859375 C 4.769531 -1.972656 4.878906 -2.109375 4.953125 -2.265625 C 5.023438 -2.429688 5.0625 -2.617188 5.0625 -2.828125 C 5.0625 -3.054688 5 -3.253906 4.875 -3.421875 C 4.75 -3.585938 4.582031 -3.734375 4.375 -3.859375 C 4.164062 -3.992188 3.929688 -4.117188 3.671875 -4.234375 C 3.410156 -4.347656 3.140625 -4.46875 2.859375 -4.59375 C 2.585938 -4.726562 2.320312 -4.875 2.0625 -5.03125 C 1.800781 -5.195312 1.566406 -5.390625 1.359375 -5.609375 C 1.160156 -5.835938 0.992188 -6.101562 0.859375 -6.40625 C 0.734375 -6.71875 0.671875 -7.09375 0.671875 -7.53125 C 0.671875 -8.019531 0.765625 -8.453125 0.953125 -8.828125 C 1.140625 -9.203125 1.382812 -9.515625 1.6875 -9.765625 C 2 -10.015625 2.363281 -10.195312 2.78125 -10.3125 C 3.207031 -10.4375 3.660156 -10.5 4.140625 -10.5 C 4.378906 -10.5 4.617188 -10.476562 4.859375 -10.4375 C 5.109375 -10.40625 5.335938 -10.359375 5.546875 -10.296875 C 5.765625 -10.234375 5.957031 -10.160156 6.125 -10.078125 C 6.289062 -9.992188 6.398438 -9.925781 6.453125 -9.875 C 6.503906 -9.820312 6.535156 -9.773438 6.546875 -9.734375 C 6.566406 -9.703125 6.582031 -9.65625 6.59375 -9.59375 C 6.613281 -9.53125 6.625 -9.453125 6.625 -9.359375 C 6.632812 -9.265625 6.640625 -9.148438 6.640625 -9.015625 C 6.640625 -8.859375 6.632812 -8.726562 6.625 -8.625 C 6.625 -8.519531 6.613281 -8.429688 6.59375 -8.359375 C 6.570312 -8.296875 6.539062 -8.25 6.5 -8.21875 C 6.46875 -8.1875 6.425781 -8.171875 6.375 -8.171875 C 6.3125 -8.171875 6.21875 -8.207031 6.09375 -8.28125 C 5.96875 -8.351562 5.8125 -8.429688 5.625 -8.515625 C 5.4375 -8.609375 5.21875 -8.6875 4.96875 -8.75 C 4.726562 -8.820312 4.460938 -8.859375 4.171875 -8.859375 C 3.941406 -8.859375 3.738281 -8.832031 3.5625 -8.78125 C 3.394531 -8.726562 3.253906 -8.648438 3.140625 -8.546875 C 3.023438 -8.453125 2.941406 -8.332031 2.890625 -8.1875 C 2.835938 -8.050781 2.8125 -7.90625 2.8125 -7.75 C 2.8125 -7.53125 2.875 -7.332031 3 -7.15625 C 3.125 -6.988281 3.289062 -6.835938 3.5 -6.703125 C 3.707031 -6.578125 3.941406 -6.457031 4.203125 -6.34375 C 4.472656 -6.226562 4.742188 -6.109375 5.015625 -5.984375 C 5.296875 -5.859375 5.566406 -5.710938 5.828125 -5.546875 C 6.097656 -5.390625 6.335938 -5.195312 6.546875 -4.96875 C 6.753906 -4.738281 6.921875 -4.472656 7.046875 -4.171875 C 7.171875 -3.867188 7.234375 -3.507812 7.234375 -3.09375 Z M 7.234375 -3.09375 "/></g></g></g><g fill="#94666b" fill-opacity="1"><g transform="translate(154.750331, 115.615489)"><g><path d="M 4.953125 -0.71875 C 4.953125 -0.570312 4.941406 -0.453125 4.921875 -0.359375 C 4.898438 -0.265625 4.867188 -0.195312 4.828125 -0.15625 C 4.785156 -0.113281 4.71875 -0.0703125 4.625 -0.03125 C 4.539062 0 4.441406 0.0234375 4.328125 0.046875 C 4.222656 0.078125 4.109375 0.0976562 3.984375 0.109375 C 3.867188 0.128906 3.75 0.140625 3.625 0.140625 C 3.25 0.140625 2.925781 0.09375 2.65625 0 C 2.394531 -0.101562 2.179688 -0.253906 2.015625 -0.453125 C 1.847656 -0.648438 1.722656 -0.898438 1.640625 -1.203125 C 1.566406 -1.515625 1.53125 -1.878906 1.53125 -2.296875 L 1.53125 -6.484375 L 0.53125 -6.484375 C 0.445312 -6.484375 0.378906 -6.523438 0.328125 -6.609375 C 0.285156 -6.703125 0.265625 -6.84375 0.265625 -7.03125 C 0.265625 -7.132812 0.269531 -7.21875 0.28125 -7.28125 C 0.289062 -7.351562 0.304688 -7.410156 0.328125 -7.453125 C 0.347656 -7.503906 0.375 -7.535156 0.40625 -7.546875 C 0.445312 -7.566406 0.488281 -7.578125 0.53125 -7.578125 L 1.53125 -7.578125 L 1.53125 -9.28125 C 1.53125 -9.320312 1.539062 -9.359375 1.5625 -9.390625 C 1.582031 -9.421875 1.613281 -9.445312 1.65625 -9.46875 C 1.707031 -9.5 1.773438 -9.519531 1.859375 -9.53125 C 1.953125 -9.539062 2.0625 -9.546875 2.1875 -9.546875 C 2.320312 -9.546875 2.429688 -9.539062 2.515625 -9.53125 C 2.597656 -9.519531 2.660156 -9.5 2.703125 -9.46875 C 2.753906 -9.445312 2.789062 -9.421875 2.8125 -9.390625 C 2.832031 -9.359375 2.84375 -9.320312 2.84375 -9.28125 L 2.84375 -7.578125 L 4.6875 -7.578125 C 4.726562 -7.578125 4.765625 -7.566406 4.796875 -7.546875 C 4.828125 -7.535156 4.851562 -7.503906 4.875 -7.453125 C 4.90625 -7.410156 4.925781 -7.351562 4.9375 -7.28125 C 4.945312 -7.21875 4.953125 -7.132812 4.953125 -7.03125 C 4.953125 -6.84375 4.925781 -6.703125 4.875 -6.609375 C 4.832031 -6.523438 4.769531 -6.484375 4.6875 -6.484375 L 2.84375 -6.484375 L 2.84375 -2.484375 C 2.84375 -1.992188 2.914062 -1.617188 3.0625 -1.359375 C 3.207031 -1.109375 3.46875 -0.984375 3.84375 -0.984375 C 3.96875 -0.984375 4.078125 -0.992188 4.171875 -1.015625 C 4.273438 -1.046875 4.363281 -1.070312 4.4375 -1.09375 C 4.507812 -1.125 4.570312 -1.148438 4.625 -1.171875 C 4.675781 -1.203125 4.722656 -1.21875 4.765625 -1.21875 C 4.796875 -1.21875 4.820312 -1.207031 4.84375 -1.1875 C 4.863281 -1.175781 4.878906 -1.148438 4.890625 -1.109375 C 4.910156 -1.078125 4.925781 -1.03125 4.9375 -0.96875 C 4.945312 -0.90625 4.953125 -0.820312 4.953125 -0.71875 Z M 4.953125 -0.71875 "/></g></g><g transform="translate(160.219546, 115.615489)"><g><path d="M 6.625 -0.1875 C 6.625 -0.125 6.601562 -0.078125 6.5625 -0.046875 C 6.519531 -0.015625 6.460938 0.00390625 6.390625 0.015625 C 6.316406 0.0351562 6.207031 0.046875 6.0625 0.046875 C 5.925781 0.046875 5.816406 0.0351562 5.734375 0.015625 C 5.648438 0.00390625 5.585938 -0.015625 5.546875 -0.046875 C 5.515625 -0.078125 5.5 -0.125 5.5 -0.1875 L 5.5 -0.90625 C 5.175781 -0.570312 4.820312 -0.3125 4.4375 -0.125 C 4.050781 0.0625 3.644531 0.15625 3.21875 0.15625 C 2.84375 0.15625 2.5 0.101562 2.1875 0 C 1.882812 -0.09375 1.625 -0.234375 1.40625 -0.421875 C 1.195312 -0.609375 1.03125 -0.835938 0.90625 -1.109375 C 0.789062 -1.378906 0.734375 -1.6875 0.734375 -2.03125 C 0.734375 -2.4375 0.816406 -2.785156 0.984375 -3.078125 C 1.148438 -3.378906 1.382812 -3.628906 1.6875 -3.828125 C 2 -4.023438 2.375 -4.171875 2.8125 -4.265625 C 3.257812 -4.367188 3.765625 -4.421875 4.328125 -4.421875 L 5.3125 -4.421875 L 5.3125 -4.96875 C 5.3125 -5.25 5.28125 -5.492188 5.21875 -5.703125 C 5.164062 -5.921875 5.070312 -6.097656 4.9375 -6.234375 C 4.8125 -6.378906 4.644531 -6.488281 4.4375 -6.5625 C 4.226562 -6.632812 3.972656 -6.671875 3.671875 -6.671875 C 3.347656 -6.671875 3.054688 -6.628906 2.796875 -6.546875 C 2.546875 -6.472656 2.320312 -6.390625 2.125 -6.296875 C 1.925781 -6.203125 1.757812 -6.113281 1.625 -6.03125 C 1.5 -5.957031 1.40625 -5.921875 1.34375 -5.921875 C 1.300781 -5.921875 1.265625 -5.929688 1.234375 -5.953125 C 1.203125 -5.972656 1.171875 -6.003906 1.140625 -6.046875 C 1.117188 -6.085938 1.101562 -6.140625 1.09375 -6.203125 C 1.082031 -6.273438 1.078125 -6.351562 1.078125 -6.4375 C 1.078125 -6.570312 1.085938 -6.675781 1.109375 -6.75 C 1.128906 -6.820312 1.175781 -6.894531 1.25 -6.96875 C 1.320312 -7.039062 1.441406 -7.117188 1.609375 -7.203125 C 1.785156 -7.296875 1.988281 -7.378906 2.21875 -7.453125 C 2.445312 -7.535156 2.695312 -7.601562 2.96875 -7.65625 C 3.238281 -7.707031 3.515625 -7.734375 3.796875 -7.734375 C 4.304688 -7.734375 4.742188 -7.671875 5.109375 -7.546875 C 5.472656 -7.429688 5.765625 -7.257812 5.984375 -7.03125 C 6.210938 -6.8125 6.375 -6.535156 6.46875 -6.203125 C 6.570312 -5.867188 6.625 -5.476562 6.625 -5.03125 Z M 5.3125 -3.46875 L 4.1875 -3.46875 C 3.832031 -3.46875 3.519531 -3.4375 3.25 -3.375 C 2.988281 -3.3125 2.769531 -3.21875 2.59375 -3.09375 C 2.414062 -2.976562 2.285156 -2.835938 2.203125 -2.671875 C 2.117188 -2.503906 2.078125 -2.3125 2.078125 -2.09375 C 2.078125 -1.71875 2.195312 -1.421875 2.4375 -1.203125 C 2.675781 -0.984375 3.003906 -0.875 3.421875 -0.875 C 3.773438 -0.875 4.097656 -0.960938 4.390625 -1.140625 C 4.679688 -1.316406 4.988281 -1.585938 5.3125 -1.953125 Z M 5.3125 -3.46875 "/></g></g><g transform="translate(168.040683, 115.615489)"><g><path d="M 4.953125 -0.71875 C 4.953125 -0.570312 4.941406 -0.453125 4.921875 -0.359375 C 4.898438 -0.265625 4.867188 -0.195312 4.828125 -0.15625 C 4.785156 -0.113281 4.71875 -0.0703125 4.625 -0.03125 C 4.539062 0 4.441406 0.0234375 4.328125 0.046875 C 4.222656 0.078125 4.109375 0.0976562 3.984375 0.109375 C 3.867188 0.128906 3.75 0.140625 3.625 0.140625 C 3.25 0.140625 2.925781 0.09375 2.65625 0 C 2.394531 -0.101562 2.179688 -0.253906 2.015625 -0.453125 C 1.847656 -0.648438 1.722656 -0.898438 1.640625 -1.203125 C 1.566406 -1.515625 1.53125 -1.878906 1.53125 -2.296875 L 1.53125 -6.484375 L 0.53125 -6.484375 C 0.445312 -6.484375 0.378906 -6.523438 0.328125 -6.609375 C 0.285156 -6.703125 0.265625 -6.84375 0.265625 -7.03125 C 0.265625 -7.132812 0.269531 -7.21875 0.28125 -7.28125 C 0.289062 -7.351562 0.304688 -7.410156 0.328125 -7.453125 C 0.347656 -7.503906 0.375 -7.535156 0.40625 -7.546875 C 0.445312 -7.566406 0.488281 -7.578125 0.53125 -7.578125 L 1.53125 -7.578125 L 1.53125 -9.28125 C 1.53125 -9.320312 1.539062 -9.359375 1.5625 -9.390625 C 1.582031 -9.421875 1.613281 -9.445312 1.65625 -9.46875 C 1.707031 -9.5 1.773438 -9.519531 1.859375 -9.53125 C 1.953125 -9.539062 2.0625 -9.546875 2.1875 -9.546875 C 2.320312 -9.546875 2.429688 -9.539062 2.515625 -9.53125 C 2.597656 -9.519531 2.660156 -9.5 2.703125 -9.46875 C 2.753906 -9.445312 2.789062 -9.421875 2.8125 -9.390625 C 2.832031 -9.359375 2.84375 -9.320312 2.84375 -9.28125 L 2.84375 -7.578125 L 4.6875 -7.578125 C 4.726562 -7.578125 4.765625 -7.566406 4.796875 -7.546875 C 4.828125 -7.535156 4.851562 -7.503906 4.875 -7.453125 C 4.90625 -7.410156 4.925781 -7.351562 4.9375 -7.28125 C 4.945312 -7.21875 4.953125 -7.132812 4.953125 -7.03125 C 4.953125 -6.84375 4.925781 -6.703125 4.875 -6.609375 C 4.832031 -6.523438 4.769531 -6.484375 4.6875 -6.484375 L 2.84375 -6.484375 L 2.84375 -2.484375 C 2.84375 -1.992188 2.914062 -1.617188 3.0625 -1.359375 C 3.207031 -1.109375 3.46875 -0.984375 3.84375 -0.984375 C 3.96875 -0.984375 4.078125 -0.992188 4.171875 -1.015625 C 4.273438 -1.046875 4.363281 -1.070312 4.4375 -1.09375 C 4.507812 -1.125 4.570312 -1.148438 4.625 -1.171875 C 4.675781 -1.203125 4.722656 -1.21875 4.765625 -1.21875 C 4.796875 -1.21875 4.820312 -1.207031 4.84375 -1.1875 C 4.863281 -1.175781 4.878906 -1.148438 4.890625 -1.109375 C 4.910156 -1.078125 4.925781 -1.03125 4.9375 -0.96875 C 4.945312 -0.90625 4.953125 -0.820312 4.953125 -0.71875 Z M 4.953125 -0.71875 "/></g></g><g transform="translate(173.509898, 115.615489)"><g><path d="M 2.53125 -0.203125 C 2.53125 -0.160156 2.519531 -0.125 2.5 -0.09375 C 2.476562 -0.0625 2.441406 -0.0351562 2.390625 -0.015625 C 2.347656 0.00390625 2.285156 0.0195312 2.203125 0.03125 C 2.117188 0.0390625 2.007812 0.046875 1.875 0.046875 C 1.75 0.046875 1.640625 0.0390625 1.546875 0.03125 C 1.460938 0.0195312 1.394531 0.00390625 1.34375 -0.015625 C 1.300781 -0.0351562 1.269531 -0.0625 1.25 -0.09375 C 1.226562 -0.125 1.21875 -0.160156 1.21875 -0.203125 L 1.21875 -7.375 C 1.21875 -7.414062 1.226562 -7.453125 1.25 -7.484375 C 1.269531 -7.515625 1.300781 -7.539062 1.34375 -7.5625 C 1.394531 -7.582031 1.460938 -7.597656 1.546875 -7.609375 C 1.640625 -7.617188 1.75 -7.625 1.875 -7.625 C 2.007812 -7.625 2.117188 -7.617188 2.203125 -7.609375 C 2.285156 -7.597656 2.347656 -7.582031 2.390625 -7.5625 C 2.441406 -7.539062 2.476562 -7.515625 2.5 -7.484375 C 2.519531 -7.453125 2.53125 -7.414062 2.53125 -7.375 Z M 2.6875 -9.796875 C 2.6875 -9.492188 2.628906 -9.285156 2.515625 -9.171875 C 2.398438 -9.054688 2.179688 -9 1.859375 -9 C 1.554688 -9 1.347656 -9.050781 1.234375 -9.15625 C 1.117188 -9.269531 1.0625 -9.476562 1.0625 -9.78125 C 1.0625 -10.09375 1.117188 -10.300781 1.234375 -10.40625 C 1.347656 -10.519531 1.5625 -10.578125 1.875 -10.578125 C 2.1875 -10.578125 2.398438 -10.519531 2.515625 -10.40625 C 2.628906 -10.300781 2.6875 -10.097656 2.6875 -9.796875 Z M 2.6875 -9.796875 "/></g></g><g transform="translate(177.257028, 115.615489)"><g><path d="M 5.71875 -2.15625 C 5.71875 -1.789062 5.648438 -1.460938 5.515625 -1.171875 C 5.378906 -0.878906 5.1875 -0.632812 4.9375 -0.4375 C 4.6875 -0.25 4.390625 -0.101562 4.046875 0 C 3.703125 0.101562 3.320312 0.15625 2.90625 0.15625 C 2.65625 0.15625 2.410156 0.132812 2.171875 0.09375 C 1.941406 0.0507812 1.734375 0 1.546875 -0.0625 C 1.367188 -0.125 1.21875 -0.1875 1.09375 -0.25 C 0.96875 -0.3125 0.875 -0.367188 0.8125 -0.421875 C 0.75 -0.484375 0.703125 -0.5625 0.671875 -0.65625 C 0.648438 -0.75 0.640625 -0.878906 0.640625 -1.046875 C 0.640625 -1.148438 0.644531 -1.234375 0.65625 -1.296875 C 0.664062 -1.367188 0.675781 -1.425781 0.6875 -1.46875 C 0.707031 -1.507812 0.734375 -1.539062 0.765625 -1.5625 C 0.796875 -1.582031 0.832031 -1.59375 0.875 -1.59375 C 0.925781 -1.59375 1.007812 -1.554688 1.125 -1.484375 C 1.238281 -1.410156 1.378906 -1.328125 1.546875 -1.234375 C 1.710938 -1.148438 1.910156 -1.070312 2.140625 -1 C 2.367188 -0.9375 2.632812 -0.90625 2.9375 -0.90625 C 3.15625 -0.90625 3.351562 -0.925781 3.53125 -0.96875 C 3.71875 -1.019531 3.875 -1.09375 4 -1.1875 C 4.132812 -1.28125 4.238281 -1.394531 4.3125 -1.53125 C 4.382812 -1.675781 4.421875 -1.847656 4.421875 -2.046875 C 4.421875 -2.253906 4.367188 -2.425781 4.265625 -2.5625 C 4.160156 -2.695312 4.023438 -2.816406 3.859375 -2.921875 C 3.691406 -3.023438 3.5 -3.117188 3.28125 -3.203125 C 3.070312 -3.285156 2.851562 -3.375 2.625 -3.46875 C 2.394531 -3.5625 2.171875 -3.664062 1.953125 -3.78125 C 1.742188 -3.894531 1.550781 -4.03125 1.375 -4.1875 C 1.207031 -4.351562 1.070312 -4.550781 0.96875 -4.78125 C 0.875 -5.007812 0.828125 -5.285156 0.828125 -5.609375 C 0.828125 -5.890625 0.878906 -6.15625 0.984375 -6.40625 C 1.085938 -6.664062 1.25 -6.890625 1.46875 -7.078125 C 1.6875 -7.273438 1.957031 -7.429688 2.28125 -7.546875 C 2.613281 -7.671875 3 -7.734375 3.4375 -7.734375 C 3.625 -7.734375 3.8125 -7.71875 4 -7.6875 C 4.195312 -7.65625 4.375 -7.613281 4.53125 -7.5625 C 4.6875 -7.519531 4.816406 -7.46875 4.921875 -7.40625 C 5.035156 -7.351562 5.117188 -7.304688 5.171875 -7.265625 C 5.222656 -7.222656 5.257812 -7.1875 5.28125 -7.15625 C 5.300781 -7.125 5.3125 -7.085938 5.3125 -7.046875 C 5.320312 -7.003906 5.332031 -6.953125 5.34375 -6.890625 C 5.351562 -6.835938 5.359375 -6.769531 5.359375 -6.6875 C 5.359375 -6.59375 5.351562 -6.507812 5.34375 -6.4375 C 5.332031 -6.375 5.316406 -6.320312 5.296875 -6.28125 C 5.285156 -6.238281 5.265625 -6.207031 5.234375 -6.1875 C 5.210938 -6.164062 5.1875 -6.15625 5.15625 -6.15625 C 5.101562 -6.15625 5.03125 -6.1875 4.9375 -6.25 C 4.851562 -6.3125 4.738281 -6.375 4.59375 -6.4375 C 4.445312 -6.5 4.273438 -6.5625 4.078125 -6.625 C 3.890625 -6.6875 3.671875 -6.71875 3.421875 -6.71875 C 3.191406 -6.71875 2.992188 -6.691406 2.828125 -6.640625 C 2.660156 -6.585938 2.519531 -6.515625 2.40625 -6.421875 C 2.300781 -6.328125 2.21875 -6.21875 2.15625 -6.09375 C 2.101562 -5.96875 2.078125 -5.828125 2.078125 -5.671875 C 2.078125 -5.460938 2.128906 -5.285156 2.234375 -5.140625 C 2.347656 -5.003906 2.488281 -4.882812 2.65625 -4.78125 C 2.820312 -4.675781 3.015625 -4.582031 3.234375 -4.5 C 3.453125 -4.414062 3.671875 -4.328125 3.890625 -4.234375 C 4.117188 -4.140625 4.34375 -4.035156 4.5625 -3.921875 C 4.789062 -3.816406 4.988281 -3.679688 5.15625 -3.515625 C 5.320312 -3.359375 5.457031 -3.164062 5.5625 -2.9375 C 5.664062 -2.71875 5.71875 -2.457031 5.71875 -2.15625 Z M 5.71875 -2.15625 "/></g></g><g transform="translate(183.643095, 115.615489)"><g><path d="M 4.953125 -0.71875 C 4.953125 -0.570312 4.941406 -0.453125 4.921875 -0.359375 C 4.898438 -0.265625 4.867188 -0.195312 4.828125 -0.15625 C 4.785156 -0.113281 4.71875 -0.0703125 4.625 -0.03125 C 4.539062 0 4.441406 0.0234375 4.328125 0.046875 C 4.222656 0.078125 4.109375 0.0976562 3.984375 0.109375 C 3.867188 0.128906 3.75 0.140625 3.625 0.140625 C 3.25 0.140625 2.925781 0.09375 2.65625 0 C 2.394531 -0.101562 2.179688 -0.253906 2.015625 -0.453125 C 1.847656 -0.648438 1.722656 -0.898438 1.640625 -1.203125 C 1.566406 -1.515625 1.53125 -1.878906 1.53125 -2.296875 L 1.53125 -6.484375 L 0.53125 -6.484375 C 0.445312 -6.484375 0.378906 -6.523438 0.328125 -6.609375 C 0.285156 -6.703125 0.265625 -6.84375 0.265625 -7.03125 C 0.265625 -7.132812 0.269531 -7.21875 0.28125 -7.28125 C 0.289062 -7.351562 0.304688 -7.410156 0.328125 -7.453125 C 0.347656 -7.503906 0.375 -7.535156 0.40625 -7.546875 C 0.445312 -7.566406 0.488281 -7.578125 0.53125 -7.578125 L 1.53125 -7.578125 L 1.53125 -9.28125 C 1.53125 -9.320312 1.539062 -9.359375 1.5625 -9.390625 C 1.582031 -9.421875 1.613281 -9.445312 1.65625 -9.46875 C 1.707031 -9.5 1.773438 -9.519531 1.859375 -9.53125 C 1.953125 -9.539062 2.0625 -9.546875 2.1875 -9.546875 C 2.320312 -9.546875 2.429688 -9.539062 2.515625 -9.53125 C 2.597656 -9.519531 2.660156 -9.5 2.703125 -9.46875 C 2.753906 -9.445312 2.789062 -9.421875 2.8125 -9.390625 C 2.832031 -9.359375 2.84375 -9.320312 2.84375 -9.28125 L 2.84375 -7.578125 L 4.6875 -7.578125 C 4.726562 -7.578125 4.765625 -7.566406 4.796875 -7.546875 C 4.828125 -7.535156 4.851562 -7.503906 4.875 -7.453125 C 4.90625 -7.410156 4.925781 -7.351562 4.9375 -7.28125 C 4.945312 -7.21875 4.953125 -7.132812 4.953125 -7.03125 C 4.953125 -6.84375 4.925781 -6.703125 4.875 -6.609375 C 4.832031 -6.523438 4.769531 -6.484375 4.6875 -6.484375 L 2.84375 -6.484375 L 2.84375 -2.484375 C 2.84375 -1.992188 2.914062 -1.617188 3.0625 -1.359375 C 3.207031 -1.109375 3.46875 -0.984375 3.84375 -0.984375 C 3.96875 -0.984375 4.078125 -0.992188 4.171875 -1.015625 C 4.273438 -1.046875 4.363281 -1.070312 4.4375 -1.09375 C 4.507812 -1.125 4.570312 -1.148438 4.625 -1.171875 C 4.675781 -1.203125 4.722656 -1.21875 4.765625 -1.21875 C 4.796875 -1.21875 4.820312 -1.207031 4.84375 -1.1875 C 4.863281 -1.175781 4.878906 -1.148438 4.890625 -1.109375 C 4.910156 -1.078125 4.925781 -1.03125 4.9375 -0.96875 C 4.945312 -0.90625 4.953125 -0.820312 4.953125 -0.71875 Z M 4.953125 -0.71875 "/></g></g><g transform="translate(189.11231, 115.615489)"><g><path d="M 2.53125 -0.203125 C 2.53125 -0.160156 2.519531 -0.125 2.5 -0.09375 C 2.476562 -0.0625 2.441406 -0.0351562 2.390625 -0.015625 C 2.347656 0.00390625 2.285156 0.0195312 2.203125 0.03125 C 2.117188 0.0390625 2.007812 0.046875 1.875 0.046875 C 1.75 0.046875 1.640625 0.0390625 1.546875 0.03125 C 1.460938 0.0195312 1.394531 0.00390625 1.34375 -0.015625 C 1.300781 -0.0351562 1.269531 -0.0625 1.25 -0.09375 C 1.226562 -0.125 1.21875 -0.160156 1.21875 -0.203125 L 1.21875 -7.375 C 1.21875 -7.414062 1.226562 -7.453125 1.25 -7.484375 C 1.269531 -7.515625 1.300781 -7.539062 1.34375 -7.5625 C 1.394531 -7.582031 1.460938 -7.597656 1.546875 -7.609375 C 1.640625 -7.617188 1.75 -7.625 1.875 -7.625 C 2.007812 -7.625 2.117188 -7.617188 2.203125 -7.609375 C 2.285156 -7.597656 2.347656 -7.582031 2.390625 -7.5625 C 2.441406 -7.539062 2.476562 -7.515625 2.5 -7.484375 C 2.519531 -7.453125 2.53125 -7.414062 2.53125 -7.375 Z M 2.6875 -9.796875 C 2.6875 -9.492188 2.628906 -9.285156 2.515625 -9.171875 C 2.398438 -9.054688 2.179688 -9 1.859375 -9 C 1.554688 -9 1.347656 -9.050781 1.234375 -9.15625 C 1.117188 -9.269531 1.0625 -9.476562 1.0625 -9.78125 C 1.0625 -10.09375 1.117188 -10.300781 1.234375 -10.40625 C 1.347656 -10.519531 1.5625 -10.578125 1.875 -10.578125 C 2.1875 -10.578125 2.398438 -10.519531 2.515625 -10.40625 C 2.628906 -10.300781 2.6875 -10.097656 2.6875 -9.796875 Z M 2.6875 -9.796875 "/></g></g><g transform="translate(192.85944, 115.615489)"><g><path d="M 6.375 -1.296875 C 6.375 -1.203125 6.367188 -1.117188 6.359375 -1.046875 C 6.359375 -0.984375 6.351562 -0.929688 6.34375 -0.890625 C 6.332031 -0.847656 6.316406 -0.804688 6.296875 -0.765625 C 6.273438 -0.734375 6.226562 -0.679688 6.15625 -0.609375 C 6.09375 -0.546875 5.984375 -0.460938 5.828125 -0.359375 C 5.671875 -0.265625 5.488281 -0.175781 5.28125 -0.09375 C 5.082031 -0.0195312 4.867188 0.0351562 4.640625 0.078125 C 4.410156 0.128906 4.171875 0.15625 3.921875 0.15625 C 3.398438 0.15625 2.941406 0.0703125 2.546875 -0.09375 C 2.148438 -0.269531 1.816406 -0.519531 1.546875 -0.84375 C 1.273438 -1.175781 1.066406 -1.578125 0.921875 -2.046875 C 0.785156 -2.523438 0.71875 -3.078125 0.71875 -3.703125 C 0.71875 -4.410156 0.800781 -5.015625 0.96875 -5.515625 C 1.144531 -6.023438 1.382812 -6.441406 1.6875 -6.765625 C 1.988281 -7.085938 2.34375 -7.328125 2.75 -7.484375 C 3.15625 -7.640625 3.59375 -7.71875 4.0625 -7.71875 C 4.289062 -7.71875 4.515625 -7.695312 4.734375 -7.65625 C 4.953125 -7.613281 5.148438 -7.554688 5.328125 -7.484375 C 5.503906 -7.421875 5.660156 -7.34375 5.796875 -7.25 C 5.941406 -7.164062 6.046875 -7.085938 6.109375 -7.015625 C 6.171875 -6.953125 6.210938 -6.898438 6.234375 -6.859375 C 6.265625 -6.828125 6.285156 -6.785156 6.296875 -6.734375 C 6.316406 -6.691406 6.328125 -6.632812 6.328125 -6.5625 C 6.335938 -6.5 6.34375 -6.421875 6.34375 -6.328125 C 6.34375 -6.117188 6.316406 -5.972656 6.265625 -5.890625 C 6.222656 -5.804688 6.164062 -5.765625 6.09375 -5.765625 C 6.019531 -5.765625 5.929688 -5.804688 5.828125 -5.890625 C 5.722656 -5.984375 5.585938 -6.082031 5.421875 -6.1875 C 5.265625 -6.300781 5.070312 -6.398438 4.84375 -6.484375 C 4.625 -6.578125 4.359375 -6.625 4.046875 -6.625 C 3.410156 -6.625 2.925781 -6.378906 2.59375 -5.890625 C 2.257812 -5.398438 2.09375 -4.691406 2.09375 -3.765625 C 2.09375 -3.304688 2.132812 -2.898438 2.21875 -2.546875 C 2.3125 -2.203125 2.441406 -1.910156 2.609375 -1.671875 C 2.773438 -1.441406 2.984375 -1.269531 3.234375 -1.15625 C 3.484375 -1.039062 3.765625 -0.984375 4.078125 -0.984375 C 4.378906 -0.984375 4.644531 -1.03125 4.875 -1.125 C 5.101562 -1.226562 5.300781 -1.335938 5.46875 -1.453125 C 5.632812 -1.566406 5.773438 -1.664062 5.890625 -1.75 C 6.003906 -1.84375 6.09375 -1.890625 6.15625 -1.890625 C 6.195312 -1.890625 6.226562 -1.878906 6.25 -1.859375 C 6.28125 -1.835938 6.304688 -1.800781 6.328125 -1.75 C 6.347656 -1.707031 6.359375 -1.644531 6.359375 -1.5625 C 6.367188 -1.488281 6.375 -1.398438 6.375 -1.296875 Z M 6.375 -1.296875 "/></g></g><g transform="translate(199.763726, 115.615489)"><g><path d="M 5.71875 -2.15625 C 5.71875 -1.789062 5.648438 -1.460938 5.515625 -1.171875 C 5.378906 -0.878906 5.1875 -0.632812 4.9375 -0.4375 C 4.6875 -0.25 4.390625 -0.101562 4.046875 0 C 3.703125 0.101562 3.320312 0.15625 2.90625 0.15625 C 2.65625 0.15625 2.410156 0.132812 2.171875 0.09375 C 1.941406 0.0507812 1.734375 0 1.546875 -0.0625 C 1.367188 -0.125 1.21875 -0.1875 1.09375 -0.25 C 0.96875 -0.3125 0.875 -0.367188 0.8125 -0.421875 C 0.75 -0.484375 0.703125 -0.5625 0.671875 -0.65625 C 0.648438 -0.75 0.640625 -0.878906 0.640625 -1.046875 C 0.640625 -1.148438 0.644531 -1.234375 0.65625 -1.296875 C 0.664062 -1.367188 0.675781 -1.425781 0.6875 -1.46875 C 0.707031 -1.507812 0.734375 -1.539062 0.765625 -1.5625 C 0.796875 -1.582031 0.832031 -1.59375 0.875 -1.59375 C 0.925781 -1.59375 1.007812 -1.554688 1.125 -1.484375 C 1.238281 -1.410156 1.378906 -1.328125 1.546875 -1.234375 C 1.710938 -1.148438 1.910156 -1.070312 2.140625 -1 C 2.367188 -0.9375 2.632812 -0.90625 2.9375 -0.90625 C 3.15625 -0.90625 3.351562 -0.925781 3.53125 -0.96875 C 3.71875 -1.019531 3.875 -1.09375 4 -1.1875 C 4.132812 -1.28125 4.238281 -1.394531 4.3125 -1.53125 C 4.382812 -1.675781 4.421875 -1.847656 4.421875 -2.046875 C 4.421875 -2.253906 4.367188 -2.425781 4.265625 -2.5625 C 4.160156 -2.695312 4.023438 -2.816406 3.859375 -2.921875 C 3.691406 -3.023438 3.5 -3.117188 3.28125 -3.203125 C 3.070312 -3.285156 2.851562 -3.375 2.625 -3.46875 C 2.394531 -3.5625 2.171875 -3.664062 1.953125 -3.78125 C 1.742188 -3.894531 1.550781 -4.03125 1.375 -4.1875 C 1.207031 -4.351562 1.070312 -4.550781 0.96875 -4.78125 C 0.875 -5.007812 0.828125 -5.285156 0.828125 -5.609375 C 0.828125 -5.890625 0.878906 -6.15625 0.984375 -6.40625 C 1.085938 -6.664062 1.25 -6.890625 1.46875 -7.078125 C 1.6875 -7.273438 1.957031 -7.429688 2.28125 -7.546875 C 2.613281 -7.671875 3 -7.734375 3.4375 -7.734375 C 3.625 -7.734375 3.8125 -7.71875 4 -7.6875 C 4.195312 -7.65625 4.375 -7.613281 4.53125 -7.5625 C 4.6875 -7.519531 4.816406 -7.46875 4.921875 -7.40625 C 5.035156 -7.351562 5.117188 -7.304688 5.171875 -7.265625 C 5.222656 -7.222656 5.257812 -7.1875 5.28125 -7.15625 C 5.300781 -7.125 5.3125 -7.085938 5.3125 -7.046875 C 5.320312 -7.003906 5.332031 -6.953125 5.34375 -6.890625 C 5.351562 -6.835938 5.359375 -6.769531 5.359375 -6.6875 C 5.359375 -6.59375 5.351562 -6.507812 5.34375 -6.4375 C 5.332031 -6.375 5.316406 -6.320312 5.296875 -6.28125 C 5.285156 -6.238281 5.265625 -6.207031 5.234375 -6.1875 C 5.210938 -6.164062 5.1875 -6.15625 5.15625 -6.15625 C 5.101562 -6.15625 5.03125 -6.1875 4.9375 -6.25 C 4.851562 -6.3125 4.738281 -6.375 4.59375 -6.4375 C 4.445312 -6.5 4.273438 -6.5625 4.078125 -6.625 C 3.890625 -6.6875 3.671875 -6.71875 3.421875 -6.71875 C 3.191406 -6.71875 2.992188 -6.691406 2.828125 -6.640625 C 2.660156 -6.585938 2.519531 -6.515625 2.40625 -6.421875 C 2.300781 -6.328125 2.21875 -6.21875 2.15625 -6.09375 C 2.101562 -5.96875 2.078125 -5.828125 2.078125 -5.671875 C 2.078125 -5.460938 2.128906 -5.285156 2.234375 -5.140625 C 2.347656 -5.003906 2.488281 -4.882812 2.65625 -4.78125 C 2.820312 -4.675781 3.015625 -4.582031 3.234375 -4.5 C 3.453125 -4.414062 3.671875 -4.328125 3.890625 -4.234375 C 4.117188 -4.140625 4.34375 -4.035156 4.5625 -3.921875 C 4.789062 -3.816406 4.988281 -3.679688 5.15625 -3.515625 C 5.320312 -3.359375 5.457031 -3.164062 5.5625 -2.9375 C 5.664062 -2.71875 5.71875 -2.457031 5.71875 -2.15625 Z M 5.71875 -2.15625 "/></g></g><g transform="translate(206.149792, 115.615489)"><g/></g></g><g fill="#7d343c" fill-opacity="1"><g transform="translate(209.844307, 115.615489)"><g><path d="M 10.40625 -5.28125 C 10.40625 -4.425781 10.296875 -3.660156 10.078125 -2.984375 C 9.867188 -2.304688 9.550781 -1.734375 9.125 -1.265625 C 8.707031 -0.796875 8.191406 -0.4375 7.578125 -0.1875 C 6.960938 0.0625 6.242188 0.1875 5.421875 0.1875 C 4.617188 0.1875 3.921875 0.0820312 3.328125 -0.125 C 2.734375 -0.34375 2.234375 -0.664062 1.828125 -1.09375 C 1.429688 -1.519531 1.132812 -2.066406 0.9375 -2.734375 C 0.738281 -3.398438 0.640625 -4.1875 0.640625 -5.09375 C 0.640625 -5.925781 0.742188 -6.675781 0.953125 -7.34375 C 1.171875 -8.007812 1.488281 -8.578125 1.90625 -9.046875 C 2.320312 -9.515625 2.835938 -9.875 3.453125 -10.125 C 4.078125 -10.375 4.800781 -10.5 5.625 -10.5 C 6.40625 -10.5 7.09375 -10.394531 7.6875 -10.1875 C 8.289062 -9.976562 8.789062 -9.660156 9.1875 -9.234375 C 9.59375 -8.804688 9.894531 -8.265625 10.09375 -7.609375 C 10.300781 -6.953125 10.40625 -6.175781 10.40625 -5.28125 Z M 8.203125 -5.171875 C 8.203125 -5.710938 8.160156 -6.203125 8.078125 -6.640625 C 7.992188 -7.085938 7.847656 -7.46875 7.640625 -7.78125 C 7.429688 -8.101562 7.15625 -8.347656 6.8125 -8.515625 C 6.476562 -8.691406 6.054688 -8.78125 5.546875 -8.78125 C 5.035156 -8.78125 4.601562 -8.679688 4.25 -8.484375 C 3.90625 -8.296875 3.625 -8.035156 3.40625 -7.703125 C 3.195312 -7.378906 3.050781 -7 2.96875 -6.5625 C 2.882812 -6.132812 2.84375 -5.679688 2.84375 -5.203125 C 2.84375 -4.640625 2.882812 -4.128906 2.96875 -3.671875 C 3.050781 -3.222656 3.191406 -2.835938 3.390625 -2.515625 C 3.597656 -2.203125 3.867188 -1.960938 4.203125 -1.796875 C 4.546875 -1.628906 4.976562 -1.546875 5.5 -1.546875 C 6.007812 -1.546875 6.4375 -1.640625 6.78125 -1.828125 C 7.125 -2.023438 7.398438 -2.285156 7.609375 -2.609375 C 7.828125 -2.941406 7.976562 -3.328125 8.0625 -3.765625 C 8.15625 -4.203125 8.203125 -4.671875 8.203125 -5.171875 Z M 8.203125 -5.171875 "/></g></g></g><g fill="#94666b" fill-opacity="1"><g transform="translate(220.891165, 115.615489)"><g><path d="M 5.15625 -10.328125 C 5.15625 -10.222656 5.148438 -10.140625 5.140625 -10.078125 C 5.128906 -10.015625 5.113281 -9.960938 5.09375 -9.921875 C 5.082031 -9.890625 5.066406 -9.867188 5.046875 -9.859375 C 5.023438 -9.847656 5 -9.84375 4.96875 -9.84375 C 4.925781 -9.84375 4.878906 -9.851562 4.828125 -9.875 C 4.773438 -9.894531 4.707031 -9.921875 4.625 -9.953125 C 4.539062 -9.984375 4.441406 -10.007812 4.328125 -10.03125 C 4.222656 -10.050781 4.101562 -10.0625 3.96875 -10.0625 C 3.769531 -10.0625 3.597656 -10.03125 3.453125 -9.96875 C 3.316406 -9.90625 3.207031 -9.804688 3.125 -9.671875 C 3.039062 -9.535156 2.976562 -9.359375 2.9375 -9.140625 C 2.90625 -8.929688 2.890625 -8.671875 2.890625 -8.359375 L 2.890625 -7.578125 L 4.484375 -7.578125 C 4.523438 -7.578125 4.5625 -7.566406 4.59375 -7.546875 C 4.625 -7.535156 4.648438 -7.503906 4.671875 -7.453125 C 4.703125 -7.410156 4.722656 -7.351562 4.734375 -7.28125 C 4.742188 -7.21875 4.75 -7.132812 4.75 -7.03125 C 4.75 -6.84375 4.722656 -6.703125 4.671875 -6.609375 C 4.628906 -6.523438 4.566406 -6.484375 4.484375 -6.484375 L 2.890625 -6.484375 L 2.890625 -0.203125 C 2.890625 -0.160156 2.878906 -0.125 2.859375 -0.09375 C 2.835938 -0.0625 2.800781 -0.0351562 2.75 -0.015625 C 2.695312 0.00390625 2.628906 0.0195312 2.546875 0.03125 C 2.460938 0.0390625 2.351562 0.046875 2.21875 0.046875 C 2.09375 0.046875 1.988281 0.0390625 1.90625 0.03125 C 1.820312 0.0195312 1.753906 0.00390625 1.703125 -0.015625 C 1.648438 -0.0351562 1.613281 -0.0625 1.59375 -0.09375 C 1.570312 -0.125 1.5625 -0.160156 1.5625 -0.203125 L 1.5625 -6.484375 L 0.546875 -6.484375 C 0.460938 -6.484375 0.398438 -6.523438 0.359375 -6.609375 C 0.316406 -6.703125 0.296875 -6.84375 0.296875 -7.03125 C 0.296875 -7.132812 0.300781 -7.21875 0.3125 -7.28125 C 0.320312 -7.351562 0.335938 -7.410156 0.359375 -7.453125 C 0.378906 -7.503906 0.40625 -7.535156 0.4375 -7.546875 C 0.46875 -7.566406 0.503906 -7.578125 0.546875 -7.578125 L 1.5625 -7.578125 L 1.5625 -8.328125 C 1.5625 -8.828125 1.609375 -9.253906 1.703125 -9.609375 C 1.796875 -9.972656 1.9375 -10.265625 2.125 -10.484375 C 2.320312 -10.710938 2.5625 -10.878906 2.84375 -10.984375 C 3.132812 -11.097656 3.476562 -11.15625 3.875 -11.15625 C 4.0625 -11.15625 4.242188 -11.140625 4.421875 -11.109375 C 4.597656 -11.078125 4.734375 -11.039062 4.828125 -11 C 4.921875 -10.957031 4.984375 -10.921875 5.015625 -10.890625 C 5.046875 -10.859375 5.070312 -10.816406 5.09375 -10.765625 C 5.113281 -10.710938 5.128906 -10.648438 5.140625 -10.578125 C 5.148438 -10.503906 5.15625 -10.421875 5.15625 -10.328125 Z M 5.15625 -10.328125 "/></g></g><g transform="translate(225.87405, 115.615489)"><g/></g></g><g fill="#7d343c" fill-opacity="1"><g transform="translate(229.565372, 115.615489)"><g><path d="M 8.265625 -1.5625 C 8.265625 -1.425781 8.257812 -1.3125 8.25 -1.21875 C 8.238281 -1.125 8.222656 -1.046875 8.203125 -0.984375 C 8.191406 -0.921875 8.171875 -0.863281 8.140625 -0.8125 C 8.117188 -0.757812 8.078125 -0.703125 8.015625 -0.640625 C 7.960938 -0.585938 7.851562 -0.507812 7.6875 -0.40625 C 7.519531 -0.3125 7.3125 -0.222656 7.0625 -0.140625 C 6.820312 -0.0546875 6.546875 0.015625 6.234375 0.078125 C 5.921875 0.140625 5.585938 0.171875 5.234375 0.171875 C 4.523438 0.171875 3.882812 0.0625 3.3125 -0.15625 C 2.75 -0.375 2.265625 -0.695312 1.859375 -1.125 C 1.460938 -1.5625 1.15625 -2.101562 0.9375 -2.75 C 0.726562 -3.40625 0.625 -4.160156 0.625 -5.015625 C 0.625 -5.898438 0.738281 -6.679688 0.96875 -7.359375 C 1.207031 -8.035156 1.535156 -8.601562 1.953125 -9.0625 C 2.378906 -9.53125 2.882812 -9.882812 3.46875 -10.125 C 4.0625 -10.363281 4.707031 -10.484375 5.40625 -10.484375 C 5.695312 -10.484375 5.972656 -10.457031 6.234375 -10.40625 C 6.503906 -10.363281 6.75 -10.300781 6.96875 -10.21875 C 7.195312 -10.144531 7.398438 -10.054688 7.578125 -9.953125 C 7.765625 -9.859375 7.894531 -9.773438 7.96875 -9.703125 C 8.039062 -9.628906 8.085938 -9.566406 8.109375 -9.515625 C 8.140625 -9.472656 8.160156 -9.410156 8.171875 -9.328125 C 8.191406 -9.253906 8.207031 -9.164062 8.21875 -9.0625 C 8.226562 -8.96875 8.234375 -8.847656 8.234375 -8.703125 C 8.234375 -8.535156 8.226562 -8.394531 8.21875 -8.28125 C 8.207031 -8.175781 8.1875 -8.085938 8.15625 -8.015625 C 8.125 -7.953125 8.085938 -7.90625 8.046875 -7.875 C 8.015625 -7.84375 7.976562 -7.828125 7.9375 -7.828125 C 7.851562 -7.828125 7.75 -7.867188 7.625 -7.953125 C 7.507812 -8.046875 7.351562 -8.148438 7.15625 -8.265625 C 6.957031 -8.378906 6.722656 -8.484375 6.453125 -8.578125 C 6.191406 -8.671875 5.875 -8.71875 5.5 -8.71875 C 5.09375 -8.71875 4.726562 -8.632812 4.40625 -8.46875 C 4.082031 -8.300781 3.804688 -8.0625 3.578125 -7.75 C 3.359375 -7.4375 3.1875 -7.0625 3.0625 -6.625 C 2.945312 -6.1875 2.890625 -5.691406 2.890625 -5.140625 C 2.890625 -4.523438 2.953125 -3.992188 3.078125 -3.546875 C 3.203125 -3.109375 3.378906 -2.742188 3.609375 -2.453125 C 3.847656 -2.171875 4.128906 -1.957031 4.453125 -1.8125 C 4.773438 -1.675781 5.144531 -1.609375 5.5625 -1.609375 C 5.925781 -1.609375 6.242188 -1.648438 6.515625 -1.734375 C 6.785156 -1.828125 7.019531 -1.925781 7.21875 -2.03125 C 7.414062 -2.132812 7.578125 -2.226562 7.703125 -2.3125 C 7.828125 -2.40625 7.921875 -2.453125 7.984375 -2.453125 C 8.035156 -2.453125 8.078125 -2.441406 8.109375 -2.421875 C 8.148438 -2.398438 8.179688 -2.351562 8.203125 -2.28125 C 8.222656 -2.21875 8.238281 -2.128906 8.25 -2.015625 C 8.257812 -1.898438 8.265625 -1.75 8.265625 -1.5625 Z M 8.265625 -1.5625 "/></g></g></g><g fill="#94666b" fill-opacity="1"><g transform="translate(238.214067, 115.615489)"><g><path d="M 6.625 -0.1875 C 6.625 -0.125 6.601562 -0.078125 6.5625 -0.046875 C 6.519531 -0.015625 6.460938 0.00390625 6.390625 0.015625 C 6.316406 0.0351562 6.207031 0.046875 6.0625 0.046875 C 5.925781 0.046875 5.816406 0.0351562 5.734375 0.015625 C 5.648438 0.00390625 5.585938 -0.015625 5.546875 -0.046875 C 5.515625 -0.078125 5.5 -0.125 5.5 -0.1875 L 5.5 -0.90625 C 5.175781 -0.570312 4.820312 -0.3125 4.4375 -0.125 C 4.050781 0.0625 3.644531 0.15625 3.21875 0.15625 C 2.84375 0.15625 2.5 0.101562 2.1875 0 C 1.882812 -0.09375 1.625 -0.234375 1.40625 -0.421875 C 1.195312 -0.609375 1.03125 -0.835938 0.90625 -1.109375 C 0.789062 -1.378906 0.734375 -1.6875 0.734375 -2.03125 C 0.734375 -2.4375 0.816406 -2.785156 0.984375 -3.078125 C 1.148438 -3.378906 1.382812 -3.628906 1.6875 -3.828125 C 2 -4.023438 2.375 -4.171875 2.8125 -4.265625 C 3.257812 -4.367188 3.765625 -4.421875 4.328125 -4.421875 L 5.3125 -4.421875 L 5.3125 -4.96875 C 5.3125 -5.25 5.28125 -5.492188 5.21875 -5.703125 C 5.164062 -5.921875 5.070312 -6.097656 4.9375 -6.234375 C 4.8125 -6.378906 4.644531 -6.488281 4.4375 -6.5625 C 4.226562 -6.632812 3.972656 -6.671875 3.671875 -6.671875 C 3.347656 -6.671875 3.054688 -6.628906 2.796875 -6.546875 C 2.546875 -6.472656 2.320312 -6.390625 2.125 -6.296875 C 1.925781 -6.203125 1.757812 -6.113281 1.625 -6.03125 C 1.5 -5.957031 1.40625 -5.921875 1.34375 -5.921875 C 1.300781 -5.921875 1.265625 -5.929688 1.234375 -5.953125 C 1.203125 -5.972656 1.171875 -6.003906 1.140625 -6.046875 C 1.117188 -6.085938 1.101562 -6.140625 1.09375 -6.203125 C 1.082031 -6.273438 1.078125 -6.351562 1.078125 -6.4375 C 1.078125 -6.570312 1.085938 -6.675781 1.109375 -6.75 C 1.128906 -6.820312 1.175781 -6.894531 1.25 -6.96875 C 1.320312 -7.039062 1.441406 -7.117188 1.609375 -7.203125 C 1.785156 -7.296875 1.988281 -7.378906 2.21875 -7.453125 C 2.445312 -7.535156 2.695312 -7.601562 2.96875 -7.65625 C 3.238281 -7.707031 3.515625 -7.734375 3.796875 -7.734375 C 4.304688 -7.734375 4.742188 -7.671875 5.109375 -7.546875 C 5.472656 -7.429688 5.765625 -7.257812 5.984375 -7.03125 C 6.210938 -6.8125 6.375 -6.535156 6.46875 -6.203125 C 6.570312 -5.867188 6.625 -5.476562 6.625 -5.03125 Z M 5.3125 -3.46875 L 4.1875 -3.46875 C 3.832031 -3.46875 3.519531 -3.4375 3.25 -3.375 C 2.988281 -3.3125 2.769531 -3.21875 2.59375 -3.09375 C 2.414062 -2.976562 2.285156 -2.835938 2.203125 -2.671875 C 2.117188 -2.503906 2.078125 -2.3125 2.078125 -2.09375 C 2.078125 -1.71875 2.195312 -1.421875 2.4375 -1.203125 C 2.675781 -0.984375 3.003906 -0.875 3.421875 -0.875 C 3.773438 -0.875 4.097656 -0.960938 4.390625 -1.140625 C 4.679688 -1.316406 4.988281 -1.585938 5.3125 -1.953125 Z M 5.3125 -3.46875 "/></g></g><g transform="translate(246.035204, 115.615489)"><g><path d="M 5.40625 -6.90625 C 5.40625 -6.789062 5.398438 -6.691406 5.390625 -6.609375 C 5.390625 -6.523438 5.378906 -6.460938 5.359375 -6.421875 C 5.347656 -6.378906 5.332031 -6.34375 5.3125 -6.3125 C 5.289062 -6.289062 5.257812 -6.28125 5.21875 -6.28125 C 5.175781 -6.28125 5.125 -6.289062 5.0625 -6.3125 C 5 -6.34375 4.925781 -6.367188 4.84375 -6.390625 C 4.769531 -6.410156 4.6875 -6.429688 4.59375 -6.453125 C 4.5 -6.472656 4.394531 -6.484375 4.28125 -6.484375 C 4.144531 -6.484375 4.015625 -6.457031 3.890625 -6.40625 C 3.765625 -6.351562 3.628906 -6.265625 3.484375 -6.140625 C 3.347656 -6.023438 3.203125 -5.863281 3.046875 -5.65625 C 2.890625 -5.457031 2.71875 -5.210938 2.53125 -4.921875 L 2.53125 -0.203125 C 2.53125 -0.160156 2.519531 -0.125 2.5 -0.09375 C 2.476562 -0.0625 2.441406 -0.0351562 2.390625 -0.015625 C 2.347656 0.00390625 2.285156 0.0195312 2.203125 0.03125 C 2.117188 0.0390625 2.007812 0.046875 1.875 0.046875 C 1.75 0.046875 1.640625 0.0390625 1.546875 0.03125 C 1.460938 0.0195312 1.394531 0.00390625 1.34375 -0.015625 C 1.300781 -0.0351562 1.269531 -0.0625 1.25 -0.09375 C 1.226562 -0.125 1.21875 -0.160156 1.21875 -0.203125 L 1.21875 -7.375 C 1.21875 -7.414062 1.222656 -7.453125 1.234375 -7.484375 C 1.253906 -7.515625 1.285156 -7.539062 1.328125 -7.5625 C 1.378906 -7.582031 1.441406 -7.597656 1.515625 -7.609375 C 1.597656 -7.617188 1.695312 -7.625 1.8125 -7.625 C 1.9375 -7.625 2.035156 -7.617188 2.109375 -7.609375 C 2.179688 -7.597656 2.238281 -7.582031 2.28125 -7.5625 C 2.332031 -7.539062 2.363281 -7.515625 2.375 -7.484375 C 2.394531 -7.453125 2.40625 -7.414062 2.40625 -7.375 L 2.40625 -6.328125 C 2.601562 -6.617188 2.785156 -6.851562 2.953125 -7.03125 C 3.128906 -7.207031 3.296875 -7.347656 3.453125 -7.453125 C 3.609375 -7.554688 3.757812 -7.628906 3.90625 -7.671875 C 4.0625 -7.710938 4.21875 -7.734375 4.375 -7.734375 C 4.4375 -7.734375 4.507812 -7.726562 4.59375 -7.71875 C 4.6875 -7.707031 4.78125 -7.691406 4.875 -7.671875 C 4.96875 -7.648438 5.050781 -7.625 5.125 -7.59375 C 5.207031 -7.570312 5.265625 -7.546875 5.296875 -7.515625 C 5.328125 -7.492188 5.347656 -7.472656 5.359375 -7.453125 C 5.367188 -7.429688 5.378906 -7.398438 5.390625 -7.359375 C 5.398438 -7.316406 5.40625 -7.257812 5.40625 -7.1875 C 5.40625 -7.125 5.40625 -7.03125 5.40625 -6.90625 Z M 5.40625 -6.90625 "/></g></g><g transform="translate(251.727653, 115.615489)"><g><path d="M 7.359375 -0.203125 C 7.359375 -0.160156 7.347656 -0.125 7.328125 -0.09375 C 7.316406 -0.0625 7.285156 -0.0351562 7.234375 -0.015625 C 7.191406 0.00390625 7.132812 0.0195312 7.0625 0.03125 C 6.988281 0.0390625 6.898438 0.046875 6.796875 0.046875 C 6.679688 0.046875 6.585938 0.0390625 6.515625 0.03125 C 6.441406 0.0195312 6.378906 0.00390625 6.328125 -0.015625 C 6.285156 -0.0351562 6.25 -0.0625 6.21875 -0.09375 C 6.195312 -0.125 6.1875 -0.160156 6.1875 -0.203125 L 6.1875 -1.140625 C 5.8125 -0.734375 5.421875 -0.414062 5.015625 -0.1875 C 4.609375 0.0390625 4.164062 0.15625 3.6875 0.15625 C 3.15625 0.15625 2.703125 0.0507812 2.328125 -0.15625 C 1.960938 -0.363281 1.660156 -0.640625 1.421875 -0.984375 C 1.191406 -1.328125 1.023438 -1.734375 0.921875 -2.203125 C 0.816406 -2.679688 0.765625 -3.179688 0.765625 -3.703125 C 0.765625 -4.316406 0.828125 -4.867188 0.953125 -5.359375 C 1.085938 -5.859375 1.285156 -6.285156 1.546875 -6.640625 C 1.816406 -6.992188 2.140625 -7.265625 2.515625 -7.453125 C 2.898438 -7.640625 3.347656 -7.734375 3.859375 -7.734375 C 4.273438 -7.734375 4.65625 -7.640625 5 -7.453125 C 5.351562 -7.273438 5.703125 -7.007812 6.046875 -6.65625 L 6.046875 -10.8125 C 6.046875 -10.851562 6.050781 -10.890625 6.0625 -10.921875 C 6.082031 -10.960938 6.117188 -10.988281 6.171875 -11 C 6.234375 -11.019531 6.300781 -11.035156 6.375 -11.046875 C 6.457031 -11.066406 6.566406 -11.078125 6.703125 -11.078125 C 6.828125 -11.078125 6.929688 -11.066406 7.015625 -11.046875 C 7.109375 -11.035156 7.175781 -11.019531 7.21875 -11 C 7.269531 -10.988281 7.304688 -10.960938 7.328125 -10.921875 C 7.347656 -10.890625 7.359375 -10.851562 7.359375 -10.8125 Z M 6.046875 -5.25 C 5.691406 -5.6875 5.347656 -6.019531 5.015625 -6.25 C 4.679688 -6.476562 4.332031 -6.59375 3.96875 -6.59375 C 3.632812 -6.59375 3.347656 -6.515625 3.109375 -6.359375 C 2.878906 -6.203125 2.691406 -5.992188 2.546875 -5.734375 C 2.398438 -5.472656 2.289062 -5.175781 2.21875 -4.84375 C 2.15625 -4.519531 2.125 -4.1875 2.125 -3.84375 C 2.125 -3.476562 2.148438 -3.125 2.203125 -2.78125 C 2.265625 -2.4375 2.363281 -2.128906 2.5 -1.859375 C 2.632812 -1.585938 2.816406 -1.367188 3.046875 -1.203125 C 3.273438 -1.046875 3.566406 -0.96875 3.921875 -0.96875 C 4.085938 -0.96875 4.25 -0.988281 4.40625 -1.03125 C 4.570312 -1.082031 4.738281 -1.164062 4.90625 -1.28125 C 5.082031 -1.394531 5.265625 -1.539062 5.453125 -1.71875 C 5.640625 -1.894531 5.835938 -2.113281 6.046875 -2.375 Z M 6.046875 -5.25 "/></g></g><g transform="translate(260.306189, 115.615489)"><g><path d="M 2.53125 -0.203125 C 2.53125 -0.160156 2.519531 -0.125 2.5 -0.09375 C 2.476562 -0.0625 2.441406 -0.0351562 2.390625 -0.015625 C 2.347656 0.00390625 2.285156 0.0195312 2.203125 0.03125 C 2.117188 0.0390625 2.007812 0.046875 1.875 0.046875 C 1.75 0.046875 1.640625 0.0390625 1.546875 0.03125 C 1.460938 0.0195312 1.394531 0.00390625 1.34375 -0.015625 C 1.300781 -0.0351562 1.269531 -0.0625 1.25 -0.09375 C 1.226562 -0.125 1.21875 -0.160156 1.21875 -0.203125 L 1.21875 -7.375 C 1.21875 -7.414062 1.226562 -7.453125 1.25 -7.484375 C 1.269531 -7.515625 1.300781 -7.539062 1.34375 -7.5625 C 1.394531 -7.582031 1.460938 -7.597656 1.546875 -7.609375 C 1.640625 -7.617188 1.75 -7.625 1.875 -7.625 C 2.007812 -7.625 2.117188 -7.617188 2.203125 -7.609375 C 2.285156 -7.597656 2.347656 -7.582031 2.390625 -7.5625 C 2.441406 -7.539062 2.476562 -7.515625 2.5 -7.484375 C 2.519531 -7.453125 2.53125 -7.414062 2.53125 -7.375 Z M 2.6875 -9.796875 C 2.6875 -9.492188 2.628906 -9.285156 2.515625 -9.171875 C 2.398438 -9.054688 2.179688 -9 1.859375 -9 C 1.554688 -9 1.347656 -9.050781 1.234375 -9.15625 C 1.117188 -9.269531 1.0625 -9.476562 1.0625 -9.78125 C 1.0625 -10.09375 1.117188 -10.300781 1.234375 -10.40625 C 1.347656 -10.519531 1.5625 -10.578125 1.875 -10.578125 C 2.1875 -10.578125 2.398438 -10.519531 2.515625 -10.40625 C 2.628906 -10.300781 2.6875 -10.097656 2.6875 -9.796875 Z M 2.6875 -9.796875 "/></g></g><g transform="translate(264.053319, 115.615489)"><g><path d="M 7.890625 -3.859375 C 7.890625 -3.273438 7.8125 -2.738281 7.65625 -2.25 C 7.507812 -1.757812 7.28125 -1.335938 6.96875 -0.984375 C 6.664062 -0.628906 6.285156 -0.347656 5.828125 -0.140625 C 5.367188 0.0546875 4.832031 0.15625 4.21875 0.15625 C 3.632812 0.15625 3.125 0.0664062 2.6875 -0.109375 C 2.25 -0.285156 1.878906 -0.539062 1.578125 -0.875 C 1.285156 -1.207031 1.066406 -1.613281 0.921875 -2.09375 C 0.785156 -2.570312 0.71875 -3.113281 0.71875 -3.71875 C 0.71875 -4.300781 0.789062 -4.835938 0.9375 -5.328125 C 1.09375 -5.828125 1.320312 -6.253906 1.625 -6.609375 C 1.9375 -6.960938 2.316406 -7.238281 2.765625 -7.4375 C 3.222656 -7.632812 3.757812 -7.734375 4.375 -7.734375 C 4.96875 -7.734375 5.484375 -7.644531 5.921875 -7.46875 C 6.359375 -7.289062 6.722656 -7.035156 7.015625 -6.703125 C 7.304688 -6.367188 7.523438 -5.960938 7.671875 -5.484375 C 7.816406 -5.003906 7.890625 -4.460938 7.890625 -3.859375 Z M 6.5 -3.78125 C 6.5 -4.164062 6.460938 -4.53125 6.390625 -4.875 C 6.328125 -5.21875 6.210938 -5.519531 6.046875 -5.78125 C 5.878906 -6.039062 5.65625 -6.25 5.375 -6.40625 C 5.09375 -6.5625 4.742188 -6.640625 4.328125 -6.640625 C 3.929688 -6.640625 3.59375 -6.566406 3.3125 -6.421875 C 3.039062 -6.285156 2.8125 -6.09375 2.625 -5.84375 C 2.445312 -5.59375 2.3125 -5.289062 2.21875 -4.9375 C 2.132812 -4.59375 2.09375 -4.21875 2.09375 -3.8125 C 2.09375 -3.414062 2.128906 -3.046875 2.203125 -2.703125 C 2.273438 -2.359375 2.394531 -2.054688 2.5625 -1.796875 C 2.726562 -1.535156 2.953125 -1.328125 3.234375 -1.171875 C 3.515625 -1.023438 3.867188 -0.953125 4.296875 -0.953125 C 4.671875 -0.953125 5 -1.019531 5.28125 -1.15625 C 5.5625 -1.300781 5.789062 -1.5 5.96875 -1.75 C 6.15625 -2 6.289062 -2.296875 6.375 -2.640625 C 6.457031 -2.984375 6.5 -3.363281 6.5 -3.78125 Z M 6.5 -3.78125 "/></g></g><g transform="translate(272.663745, 115.615489)"><g><path d="M 7.109375 -7.390625 C 7.109375 -7.367188 7.101562 -7.34375 7.09375 -7.3125 C 7.09375 -7.289062 7.085938 -7.265625 7.078125 -7.234375 C 7.078125 -7.210938 7.070312 -7.1875 7.0625 -7.15625 C 7.0625 -7.125 7.054688 -7.09375 7.046875 -7.0625 L 4.59375 -0.234375 C 4.570312 -0.179688 4.539062 -0.132812 4.5 -0.09375 C 4.46875 -0.0625 4.414062 -0.03125 4.34375 0 C 4.28125 0.0195312 4.195312 0.03125 4.09375 0.03125 C 3.988281 0.0390625 3.851562 0.046875 3.6875 0.046875 C 3.53125 0.046875 3.398438 0.0390625 3.296875 0.03125 C 3.191406 0.0195312 3.101562 0.00390625 3.03125 -0.015625 C 2.96875 -0.0351562 2.914062 -0.0625 2.875 -0.09375 C 2.84375 -0.132812 2.816406 -0.179688 2.796875 -0.234375 L 0.34375 -7.0625 C 0.320312 -7.125 0.304688 -7.175781 0.296875 -7.21875 C 0.285156 -7.269531 0.273438 -7.304688 0.265625 -7.328125 C 0.265625 -7.347656 0.265625 -7.367188 0.265625 -7.390625 C 0.265625 -7.429688 0.273438 -7.46875 0.296875 -7.5 C 0.316406 -7.53125 0.351562 -7.554688 0.40625 -7.578125 C 0.457031 -7.597656 0.523438 -7.609375 0.609375 -7.609375 C 0.691406 -7.617188 0.796875 -7.625 0.921875 -7.625 C 1.066406 -7.625 1.1875 -7.617188 1.28125 -7.609375 C 1.375 -7.597656 1.445312 -7.582031 1.5 -7.5625 C 1.550781 -7.539062 1.585938 -7.515625 1.609375 -7.484375 C 1.640625 -7.453125 1.664062 -7.410156 1.6875 -7.359375 L 3.703125 -1.453125 L 3.734375 -1.359375 L 3.765625 -1.453125 L 5.765625 -7.359375 C 5.773438 -7.410156 5.789062 -7.453125 5.8125 -7.484375 C 5.84375 -7.515625 5.882812 -7.539062 5.9375 -7.5625 C 5.988281 -7.582031 6.054688 -7.597656 6.140625 -7.609375 C 6.234375 -7.617188 6.347656 -7.625 6.484375 -7.625 C 6.609375 -7.625 6.707031 -7.617188 6.78125 -7.609375 C 6.863281 -7.609375 6.925781 -7.597656 6.96875 -7.578125 C 7.019531 -7.554688 7.054688 -7.53125 7.078125 -7.5 C 7.097656 -7.46875 7.109375 -7.429688 7.109375 -7.390625 Z M 7.109375 -7.390625 "/></g></g><g transform="translate(280.038416, 115.615489)"><g><path d="M 6.625 -0.1875 C 6.625 -0.125 6.601562 -0.078125 6.5625 -0.046875 C 6.519531 -0.015625 6.460938 0.00390625 6.390625 0.015625 C 6.316406 0.0351562 6.207031 0.046875 6.0625 0.046875 C 5.925781 0.046875 5.816406 0.0351562 5.734375 0.015625 C 5.648438 0.00390625 5.585938 -0.015625 5.546875 -0.046875 C 5.515625 -0.078125 5.5 -0.125 5.5 -0.1875 L 5.5 -0.90625 C 5.175781 -0.570312 4.820312 -0.3125 4.4375 -0.125 C 4.050781 0.0625 3.644531 0.15625 3.21875 0.15625 C 2.84375 0.15625 2.5 0.101562 2.1875 0 C 1.882812 -0.09375 1.625 -0.234375 1.40625 -0.421875 C 1.195312 -0.609375 1.03125 -0.835938 0.90625 -1.109375 C 0.789062 -1.378906 0.734375 -1.6875 0.734375 -2.03125 C 0.734375 -2.4375 0.816406 -2.785156 0.984375 -3.078125 C 1.148438 -3.378906 1.382812 -3.628906 1.6875 -3.828125 C 2 -4.023438 2.375 -4.171875 2.8125 -4.265625 C 3.257812 -4.367188 3.765625 -4.421875 4.328125 -4.421875 L 5.3125 -4.421875 L 5.3125 -4.96875 C 5.3125 -5.25 5.28125 -5.492188 5.21875 -5.703125 C 5.164062 -5.921875 5.070312 -6.097656 4.9375 -6.234375 C 4.8125 -6.378906 4.644531 -6.488281 4.4375 -6.5625 C 4.226562 -6.632812 3.972656 -6.671875 3.671875 -6.671875 C 3.347656 -6.671875 3.054688 -6.628906 2.796875 -6.546875 C 2.546875 -6.472656 2.320312 -6.390625 2.125 -6.296875 C 1.925781 -6.203125 1.757812 -6.113281 1.625 -6.03125 C 1.5 -5.957031 1.40625 -5.921875 1.34375 -5.921875 C 1.300781 -5.921875 1.265625 -5.929688 1.234375 -5.953125 C 1.203125 -5.972656 1.171875 -6.003906 1.140625 -6.046875 C 1.117188 -6.085938 1.101562 -6.140625 1.09375 -6.203125 C 1.082031 -6.273438 1.078125 -6.351562 1.078125 -6.4375 C 1.078125 -6.570312 1.085938 -6.675781 1.109375 -6.75 C 1.128906 -6.820312 1.175781 -6.894531 1.25 -6.96875 C 1.320312 -7.039062 1.441406 -7.117188 1.609375 -7.203125 C 1.785156 -7.296875 1.988281 -7.378906 2.21875 -7.453125 C 2.445312 -7.535156 2.695312 -7.601562 2.96875 -7.65625 C 3.238281 -7.707031 3.515625 -7.734375 3.796875 -7.734375 C 4.304688 -7.734375 4.742188 -7.671875 5.109375 -7.546875 C 5.472656 -7.429688 5.765625 -7.257812 5.984375 -7.03125 C 6.210938 -6.8125 6.375 -6.535156 6.46875 -6.203125 C 6.570312 -5.867188 6.625 -5.476562 6.625 -5.03125 Z M 5.3125 -3.46875 L 4.1875 -3.46875 C 3.832031 -3.46875 3.519531 -3.4375 3.25 -3.375 C 2.988281 -3.3125 2.769531 -3.21875 2.59375 -3.09375 C 2.414062 -2.976562 2.285156 -2.835938 2.203125 -2.671875 C 2.117188 -2.503906 2.078125 -2.3125 2.078125 -2.09375 C 2.078125 -1.71875 2.195312 -1.421875 2.4375 -1.203125 C 2.675781 -0.984375 3.003906 -0.875 3.421875 -0.875 C 3.773438 -0.875 4.097656 -0.960938 4.390625 -1.140625 C 4.679688 -1.316406 4.988281 -1.585938 5.3125 -1.953125 Z M 5.3125 -3.46875 "/></g></g><g transform="translate(287.859553, 115.615489)"><g><path d="M 5.71875 -2.15625 C 5.71875 -1.789062 5.648438 -1.460938 5.515625 -1.171875 C 5.378906 -0.878906 5.1875 -0.632812 4.9375 -0.4375 C 4.6875 -0.25 4.390625 -0.101562 4.046875 0 C 3.703125 0.101562 3.320312 0.15625 2.90625 0.15625 C 2.65625 0.15625 2.410156 0.132812 2.171875 0.09375 C 1.941406 0.0507812 1.734375 0 1.546875 -0.0625 C 1.367188 -0.125 1.21875 -0.1875 1.09375 -0.25 C 0.96875 -0.3125 0.875 -0.367188 0.8125 -0.421875 C 0.75 -0.484375 0.703125 -0.5625 0.671875 -0.65625 C 0.648438 -0.75 0.640625 -0.878906 0.640625 -1.046875 C 0.640625 -1.148438 0.644531 -1.234375 0.65625 -1.296875 C 0.664062 -1.367188 0.675781 -1.425781 0.6875 -1.46875 C 0.707031 -1.507812 0.734375 -1.539062 0.765625 -1.5625 C 0.796875 -1.582031 0.832031 -1.59375 0.875 -1.59375 C 0.925781 -1.59375 1.007812 -1.554688 1.125 -1.484375 C 1.238281 -1.410156 1.378906 -1.328125 1.546875 -1.234375 C 1.710938 -1.148438 1.910156 -1.070312 2.140625 -1 C 2.367188 -0.9375 2.632812 -0.90625 2.9375 -0.90625 C 3.15625 -0.90625 3.351562 -0.925781 3.53125 -0.96875 C 3.71875 -1.019531 3.875 -1.09375 4 -1.1875 C 4.132812 -1.28125 4.238281 -1.394531 4.3125 -1.53125 C 4.382812 -1.675781 4.421875 -1.847656 4.421875 -2.046875 C 4.421875 -2.253906 4.367188 -2.425781 4.265625 -2.5625 C 4.160156 -2.695312 4.023438 -2.816406 3.859375 -2.921875 C 3.691406 -3.023438 3.5 -3.117188 3.28125 -3.203125 C 3.070312 -3.285156 2.851562 -3.375 2.625 -3.46875 C 2.394531 -3.5625 2.171875 -3.664062 1.953125 -3.78125 C 1.742188 -3.894531 1.550781 -4.03125 1.375 -4.1875 C 1.207031 -4.351562 1.070312 -4.550781 0.96875 -4.78125 C 0.875 -5.007812 0.828125 -5.285156 0.828125 -5.609375 C 0.828125 -5.890625 0.878906 -6.15625 0.984375 -6.40625 C 1.085938 -6.664062 1.25 -6.890625 1.46875 -7.078125 C 1.6875 -7.273438 1.957031 -7.429688 2.28125 -7.546875 C 2.613281 -7.671875 3 -7.734375 3.4375 -7.734375 C 3.625 -7.734375 3.8125 -7.71875 4 -7.6875 C 4.195312 -7.65625 4.375 -7.613281 4.53125 -7.5625 C 4.6875 -7.519531 4.816406 -7.46875 4.921875 -7.40625 C 5.035156 -7.351562 5.117188 -7.304688 5.171875 -7.265625 C 5.222656 -7.222656 5.257812 -7.1875 5.28125 -7.15625 C 5.300781 -7.125 5.3125 -7.085938 5.3125 -7.046875 C 5.320312 -7.003906 5.332031 -6.953125 5.34375 -6.890625 C 5.351562 -6.835938 5.359375 -6.769531 5.359375 -6.6875 C 5.359375 -6.59375 5.351562 -6.507812 5.34375 -6.4375 C 5.332031 -6.375 5.316406 -6.320312 5.296875 -6.28125 C 5.285156 -6.238281 5.265625 -6.207031 5.234375 -6.1875 C 5.210938 -6.164062 5.1875 -6.15625 5.15625 -6.15625 C 5.101562 -6.15625 5.03125 -6.1875 4.9375 -6.25 C 4.851562 -6.3125 4.738281 -6.375 4.59375 -6.4375 C 4.445312 -6.5 4.273438 -6.5625 4.078125 -6.625 C 3.890625 -6.6875 3.671875 -6.71875 3.421875 -6.71875 C 3.191406 -6.71875 2.992188 -6.691406 2.828125 -6.640625 C 2.660156 -6.585938 2.519531 -6.515625 2.40625 -6.421875 C 2.300781 -6.328125 2.21875 -6.21875 2.15625 -6.09375 C 2.101562 -5.96875 2.078125 -5.828125 2.078125 -5.671875 C 2.078125 -5.460938 2.128906 -5.285156 2.234375 -5.140625 C 2.347656 -5.003906 2.488281 -4.882812 2.65625 -4.78125 C 2.820312 -4.675781 3.015625 -4.582031 3.234375 -4.5 C 3.453125 -4.414062 3.671875 -4.328125 3.890625 -4.234375 C 4.117188 -4.140625 4.34375 -4.035156 4.5625 -3.921875 C 4.789062 -3.816406 4.988281 -3.679688 5.15625 -3.515625 C 5.320312 -3.359375 5.457031 -3.164062 5.5625 -2.9375 C 5.664062 -2.71875 5.71875 -2.457031 5.71875 -2.15625 Z M 5.71875 -2.15625 "/></g></g><g transform="translate(294.245619, 115.615489)"><g><path d="M 6.375 -1.296875 C 6.375 -1.203125 6.367188 -1.117188 6.359375 -1.046875 C 6.359375 -0.984375 6.351562 -0.929688 6.34375 -0.890625 C 6.332031 -0.847656 6.316406 -0.804688 6.296875 -0.765625 C 6.273438 -0.734375 6.226562 -0.679688 6.15625 -0.609375 C 6.09375 -0.546875 5.984375 -0.460938 5.828125 -0.359375 C 5.671875 -0.265625 5.488281 -0.175781 5.28125 -0.09375 C 5.082031 -0.0195312 4.867188 0.0351562 4.640625 0.078125 C 4.410156 0.128906 4.171875 0.15625 3.921875 0.15625 C 3.398438 0.15625 2.941406 0.0703125 2.546875 -0.09375 C 2.148438 -0.269531 1.816406 -0.519531 1.546875 -0.84375 C 1.273438 -1.175781 1.066406 -1.578125 0.921875 -2.046875 C 0.785156 -2.523438 0.71875 -3.078125 0.71875 -3.703125 C 0.71875 -4.410156 0.800781 -5.015625 0.96875 -5.515625 C 1.144531 -6.023438 1.382812 -6.441406 1.6875 -6.765625 C 1.988281 -7.085938 2.34375 -7.328125 2.75 -7.484375 C 3.15625 -7.640625 3.59375 -7.71875 4.0625 -7.71875 C 4.289062 -7.71875 4.515625 -7.695312 4.734375 -7.65625 C 4.953125 -7.613281 5.148438 -7.554688 5.328125 -7.484375 C 5.503906 -7.421875 5.660156 -7.34375 5.796875 -7.25 C 5.941406 -7.164062 6.046875 -7.085938 6.109375 -7.015625 C 6.171875 -6.953125 6.210938 -6.898438 6.234375 -6.859375 C 6.265625 -6.828125 6.285156 -6.785156 6.296875 -6.734375 C 6.316406 -6.691406 6.328125 -6.632812 6.328125 -6.5625 C 6.335938 -6.5 6.34375 -6.421875 6.34375 -6.328125 C 6.34375 -6.117188 6.316406 -5.972656 6.265625 -5.890625 C 6.222656 -5.804688 6.164062 -5.765625 6.09375 -5.765625 C 6.019531 -5.765625 5.929688 -5.804688 5.828125 -5.890625 C 5.722656 -5.984375 5.585938 -6.082031 5.421875 -6.1875 C 5.265625 -6.300781 5.070312 -6.398438 4.84375 -6.484375 C 4.625 -6.578125 4.359375 -6.625 4.046875 -6.625 C 3.410156 -6.625 2.925781 -6.378906 2.59375 -5.890625 C 2.257812 -5.398438 2.09375 -4.691406 2.09375 -3.765625 C 2.09375 -3.304688 2.132812 -2.898438 2.21875 -2.546875 C 2.3125 -2.203125 2.441406 -1.910156 2.609375 -1.671875 C 2.773438 -1.441406 2.984375 -1.269531 3.234375 -1.15625 C 3.484375 -1.039062 3.765625 -0.984375 4.078125 -0.984375 C 4.378906 -0.984375 4.644531 -1.03125 4.875 -1.125 C 5.101562 -1.226562 5.300781 -1.335938 5.46875 -1.453125 C 5.632812 -1.566406 5.773438 -1.664062 5.890625 -1.75 C 6.003906 -1.84375 6.09375 -1.890625 6.15625 -1.890625 C 6.195312 -1.890625 6.226562 -1.878906 6.25 -1.859375 C 6.28125 -1.835938 6.304688 -1.800781 6.328125 -1.75 C 6.347656 -1.707031 6.359375 -1.644531 6.359375 -1.5625 C 6.367188 -1.488281 6.375 -1.398438 6.375 -1.296875 Z M 6.375 -1.296875 "/></g></g><g transform="translate(301.149905, 115.615489)"><g><path d="M 7.359375 -0.203125 C 7.359375 -0.160156 7.347656 -0.125 7.328125 -0.09375 C 7.316406 -0.0625 7.285156 -0.0351562 7.234375 -0.015625 C 7.191406 0.00390625 7.128906 0.0195312 7.046875 0.03125 C 6.972656 0.0390625 6.878906 0.046875 6.765625 0.046875 C 6.640625 0.046875 6.539062 0.0390625 6.46875 0.03125 C 6.394531 0.0195312 6.332031 0.00390625 6.28125 -0.015625 C 6.238281 -0.0351562 6.207031 -0.0625 6.1875 -0.09375 C 6.175781 -0.125 6.171875 -0.160156 6.171875 -0.203125 L 6.171875 -1.140625 C 5.765625 -0.691406 5.359375 -0.363281 4.953125 -0.15625 C 4.554688 0.0507812 4.15625 0.15625 3.75 0.15625 C 3.269531 0.15625 2.863281 0.078125 2.53125 -0.078125 C 2.207031 -0.242188 1.941406 -0.460938 1.734375 -0.734375 C 1.535156 -1.003906 1.394531 -1.320312 1.3125 -1.6875 C 1.226562 -2.050781 1.1875 -2.492188 1.1875 -3.015625 L 1.1875 -7.375 C 1.1875 -7.414062 1.191406 -7.453125 1.203125 -7.484375 C 1.222656 -7.515625 1.257812 -7.539062 1.3125 -7.5625 C 1.363281 -7.582031 1.429688 -7.597656 1.515625 -7.609375 C 1.609375 -7.617188 1.71875 -7.625 1.84375 -7.625 C 1.96875 -7.625 2.070312 -7.617188 2.15625 -7.609375 C 2.238281 -7.597656 2.304688 -7.582031 2.359375 -7.5625 C 2.410156 -7.539062 2.445312 -7.515625 2.46875 -7.484375 C 2.488281 -7.453125 2.5 -7.414062 2.5 -7.375 L 2.5 -3.203125 C 2.5 -2.773438 2.53125 -2.4375 2.59375 -2.1875 C 2.65625 -1.9375 2.75 -1.722656 2.875 -1.546875 C 3 -1.367188 3.15625 -1.226562 3.34375 -1.125 C 3.539062 -1.03125 3.765625 -0.984375 4.015625 -0.984375 C 4.347656 -0.984375 4.675781 -1.097656 5 -1.328125 C 5.332031 -1.566406 5.679688 -1.910156 6.046875 -2.359375 L 6.046875 -7.375 C 6.046875 -7.414062 6.050781 -7.453125 6.0625 -7.484375 C 6.082031 -7.515625 6.117188 -7.539062 6.171875 -7.5625 C 6.234375 -7.582031 6.300781 -7.597656 6.375 -7.609375 C 6.457031 -7.617188 6.566406 -7.625 6.703125 -7.625 C 6.828125 -7.625 6.929688 -7.617188 7.015625 -7.609375 C 7.109375 -7.597656 7.175781 -7.582031 7.21875 -7.5625 C 7.269531 -7.539062 7.304688 -7.515625 7.328125 -7.484375 C 7.347656 -7.453125 7.359375 -7.414062 7.359375 -7.375 Z M 7.359375 -0.203125 "/></g></g><g transform="translate(309.728441, 115.615489)"><g><path d="M 2.53125 -0.203125 C 2.53125 -0.160156 2.519531 -0.125 2.5 -0.09375 C 2.476562 -0.0625 2.441406 -0.0351562 2.390625 -0.015625 C 2.347656 0.00390625 2.285156 0.0195312 2.203125 0.03125 C 2.117188 0.0390625 2.007812 0.046875 1.875 0.046875 C 1.75 0.046875 1.640625 0.0390625 1.546875 0.03125 C 1.460938 0.0195312 1.394531 0.00390625 1.34375 -0.015625 C 1.300781 -0.0351562 1.269531 -0.0625 1.25 -0.09375 C 1.226562 -0.125 1.21875 -0.160156 1.21875 -0.203125 L 1.21875 -10.84375 C 1.21875 -10.894531 1.226562 -10.9375 1.25 -10.96875 C 1.269531 -11 1.300781 -11.023438 1.34375 -11.046875 C 1.394531 -11.066406 1.460938 -11.082031 1.546875 -11.09375 C 1.640625 -11.101562 1.75 -11.109375 1.875 -11.109375 C 2.007812 -11.109375 2.117188 -11.101562 2.203125 -11.09375 C 2.285156 -11.082031 2.347656 -11.066406 2.390625 -11.046875 C 2.441406 -11.023438 2.476562 -11 2.5 -10.96875 C 2.519531 -10.9375 2.53125 -10.894531 2.53125 -10.84375 Z M 2.53125 -0.203125 "/></g></g><g transform="translate(313.475571, 115.615489)"><g><path d="M 6.625 -0.1875 C 6.625 -0.125 6.601562 -0.078125 6.5625 -0.046875 C 6.519531 -0.015625 6.460938 0.00390625 6.390625 0.015625 C 6.316406 0.0351562 6.207031 0.046875 6.0625 0.046875 C 5.925781 0.046875 5.816406 0.0351562 5.734375 0.015625 C 5.648438 0.00390625 5.585938 -0.015625 5.546875 -0.046875 C 5.515625 -0.078125 5.5 -0.125 5.5 -0.1875 L 5.5 -0.90625 C 5.175781 -0.570312 4.820312 -0.3125 4.4375 -0.125 C 4.050781 0.0625 3.644531 0.15625 3.21875 0.15625 C 2.84375 0.15625 2.5 0.101562 2.1875 0 C 1.882812 -0.09375 1.625 -0.234375 1.40625 -0.421875 C 1.195312 -0.609375 1.03125 -0.835938 0.90625 -1.109375 C 0.789062 -1.378906 0.734375 -1.6875 0.734375 -2.03125 C 0.734375 -2.4375 0.816406 -2.785156 0.984375 -3.078125 C 1.148438 -3.378906 1.382812 -3.628906 1.6875 -3.828125 C 2 -4.023438 2.375 -4.171875 2.8125 -4.265625 C 3.257812 -4.367188 3.765625 -4.421875 4.328125 -4.421875 L 5.3125 -4.421875 L 5.3125 -4.96875 C 5.3125 -5.25 5.28125 -5.492188 5.21875 -5.703125 C 5.164062 -5.921875 5.070312 -6.097656 4.9375 -6.234375 C 4.8125 -6.378906 4.644531 -6.488281 4.4375 -6.5625 C 4.226562 -6.632812 3.972656 -6.671875 3.671875 -6.671875 C 3.347656 -6.671875 3.054688 -6.628906 2.796875 -6.546875 C 2.546875 -6.472656 2.320312 -6.390625 2.125 -6.296875 C 1.925781 -6.203125 1.757812 -6.113281 1.625 -6.03125 C 1.5 -5.957031 1.40625 -5.921875 1.34375 -5.921875 C 1.300781 -5.921875 1.265625 -5.929688 1.234375 -5.953125 C 1.203125 -5.972656 1.171875 -6.003906 1.140625 -6.046875 C 1.117188 -6.085938 1.101562 -6.140625 1.09375 -6.203125 C 1.082031 -6.273438 1.078125 -6.351562 1.078125 -6.4375 C 1.078125 -6.570312 1.085938 -6.675781 1.109375 -6.75 C 1.128906 -6.820312 1.175781 -6.894531 1.25 -6.96875 C 1.320312 -7.039062 1.441406 -7.117188 1.609375 -7.203125 C 1.785156 -7.296875 1.988281 -7.378906 2.21875 -7.453125 C 2.445312 -7.535156 2.695312 -7.601562 2.96875 -7.65625 C 3.238281 -7.707031 3.515625 -7.734375 3.796875 -7.734375 C 4.304688 -7.734375 4.742188 -7.671875 5.109375 -7.546875 C 5.472656 -7.429688 5.765625 -7.257812 5.984375 -7.03125 C 6.210938 -6.8125 6.375 -6.535156 6.46875 -6.203125 C 6.570312 -5.867188 6.625 -5.476562 6.625 -5.03125 Z M 5.3125 -3.46875 L 4.1875 -3.46875 C 3.832031 -3.46875 3.519531 -3.4375 3.25 -3.375 C 2.988281 -3.3125 2.769531 -3.21875 2.59375 -3.09375 C 2.414062 -2.976562 2.285156 -2.835938 2.203125 -2.671875 C 2.117188 -2.503906 2.078125 -2.3125 2.078125 -2.09375 C 2.078125 -1.71875 2.195312 -1.421875 2.4375 -1.203125 C 2.675781 -0.984375 3.003906 -0.875 3.421875 -0.875 C 3.773438 -0.875 4.097656 -0.960938 4.390625 -1.140625 C 4.679688 -1.316406 4.988281 -1.585938 5.3125 -1.953125 Z M 5.3125 -3.46875 "/></g></g><g transform="translate(321.296708, 115.615489)"><g><path d="M 5.40625 -6.90625 C 5.40625 -6.789062 5.398438 -6.691406 5.390625 -6.609375 C 5.390625 -6.523438 5.378906 -6.460938 5.359375 -6.421875 C 5.347656 -6.378906 5.332031 -6.34375 5.3125 -6.3125 C 5.289062 -6.289062 5.257812 -6.28125 5.21875 -6.28125 C 5.175781 -6.28125 5.125 -6.289062 5.0625 -6.3125 C 5 -6.34375 4.925781 -6.367188 4.84375 -6.390625 C 4.769531 -6.410156 4.6875 -6.429688 4.59375 -6.453125 C 4.5 -6.472656 4.394531 -6.484375 4.28125 -6.484375 C 4.144531 -6.484375 4.015625 -6.457031 3.890625 -6.40625 C 3.765625 -6.351562 3.628906 -6.265625 3.484375 -6.140625 C 3.347656 -6.023438 3.203125 -5.863281 3.046875 -5.65625 C 2.890625 -5.457031 2.71875 -5.210938 2.53125 -4.921875 L 2.53125 -0.203125 C 2.53125 -0.160156 2.519531 -0.125 2.5 -0.09375 C 2.476562 -0.0625 2.441406 -0.0351562 2.390625 -0.015625 C 2.347656 0.00390625 2.285156 0.0195312 2.203125 0.03125 C 2.117188 0.0390625 2.007812 0.046875 1.875 0.046875 C 1.75 0.046875 1.640625 0.0390625 1.546875 0.03125 C 1.460938 0.0195312 1.394531 0.00390625 1.34375 -0.015625 C 1.300781 -0.0351562 1.269531 -0.0625 1.25 -0.09375 C 1.226562 -0.125 1.21875 -0.160156 1.21875 -0.203125 L 1.21875 -7.375 C 1.21875 -7.414062 1.222656 -7.453125 1.234375 -7.484375 C 1.253906 -7.515625 1.285156 -7.539062 1.328125 -7.5625 C 1.378906 -7.582031 1.441406 -7.597656 1.515625 -7.609375 C 1.597656 -7.617188 1.695312 -7.625 1.8125 -7.625 C 1.9375 -7.625 2.035156 -7.617188 2.109375 -7.609375 C 2.179688 -7.597656 2.238281 -7.582031 2.28125 -7.5625 C 2.332031 -7.539062 2.363281 -7.515625 2.375 -7.484375 C 2.394531 -7.453125 2.40625 -7.414062 2.40625 -7.375 L 2.40625 -6.328125 C 2.601562 -6.617188 2.785156 -6.851562 2.953125 -7.03125 C 3.128906 -7.207031 3.296875 -7.347656 3.453125 -7.453125 C 3.609375 -7.554688 3.757812 -7.628906 3.90625 -7.671875 C 4.0625 -7.710938 4.21875 -7.734375 4.375 -7.734375 C 4.4375 -7.734375 4.507812 -7.726562 4.59375 -7.71875 C 4.6875 -7.707031 4.78125 -7.691406 4.875 -7.671875 C 4.96875 -7.648438 5.050781 -7.625 5.125 -7.59375 C 5.207031 -7.570312 5.265625 -7.546875 5.296875 -7.515625 C 5.328125 -7.492188 5.347656 -7.472656 5.359375 -7.453125 C 5.367188 -7.429688 5.378906 -7.398438 5.390625 -7.359375 C 5.398438 -7.316406 5.40625 -7.257812 5.40625 -7.1875 C 5.40625 -7.125 5.40625 -7.03125 5.40625 -6.90625 Z M 5.40625 -6.90625 "/></g></g><g transform="translate(326.989157, 115.615489)"><g/></g></g><g fill="#7d343c" fill-opacity="1"><g transform="translate(330.683663, 115.615489)"><g><path d="M 9.171875 -0.28125 C 9.171875 -0.226562 9.15625 -0.179688 9.125 -0.140625 C 9.09375 -0.0976562 9.035156 -0.0625 8.953125 -0.03125 C 8.867188 -0.0078125 8.757812 0.00390625 8.625 0.015625 C 8.5 0.0351562 8.332031 0.046875 8.125 0.046875 C 7.925781 0.046875 7.757812 0.0351562 7.625 0.015625 C 7.488281 0.00390625 7.378906 -0.0078125 7.296875 -0.03125 C 7.222656 -0.0625 7.164062 -0.0976562 7.125 -0.140625 C 7.09375 -0.179688 7.078125 -0.226562 7.078125 -0.28125 L 7.078125 -4.453125 L 3.21875 -4.453125 L 3.21875 -0.28125 C 3.21875 -0.226562 3.203125 -0.179688 3.171875 -0.140625 C 3.140625 -0.0976562 3.082031 -0.0625 3 -0.03125 C 2.925781 -0.0078125 2.820312 0.00390625 2.6875 0.015625 C 2.550781 0.0351562 2.378906 0.046875 2.171875 0.046875 C 1.972656 0.046875 1.804688 0.0351562 1.671875 0.015625 C 1.535156 0.00390625 1.425781 -0.0078125 1.34375 -0.03125 C 1.269531 -0.0625 1.210938 -0.0976562 1.171875 -0.140625 C 1.140625 -0.179688 1.125 -0.226562 1.125 -0.28125 L 1.125 -10.03125 C 1.125 -10.082031 1.140625 -10.128906 1.171875 -10.171875 C 1.210938 -10.210938 1.269531 -10.242188 1.34375 -10.265625 C 1.425781 -10.296875 1.535156 -10.316406 1.671875 -10.328125 C 1.804688 -10.347656 1.972656 -10.359375 2.171875 -10.359375 C 2.378906 -10.359375 2.550781 -10.347656 2.6875 -10.328125 C 2.820312 -10.316406 2.925781 -10.296875 3 -10.265625 C 3.082031 -10.242188 3.140625 -10.210938 3.171875 -10.171875 C 3.203125 -10.128906 3.21875 -10.082031 3.21875 -10.03125 L 3.21875 -6.25 L 7.078125 -6.25 L 7.078125 -10.03125 C 7.078125 -10.082031 7.09375 -10.128906 7.125 -10.171875 C 7.164062 -10.210938 7.222656 -10.242188 7.296875 -10.265625 C 7.378906 -10.296875 7.488281 -10.316406 7.625 -10.328125 C 7.757812 -10.347656 7.925781 -10.359375 8.125 -10.359375 C 8.332031 -10.359375 8.5 -10.347656 8.625 -10.328125 C 8.757812 -10.316406 8.867188 -10.296875 8.953125 -10.265625 C 9.035156 -10.242188 9.09375 -10.210938 9.125 -10.171875 C 9.15625 -10.128906 9.171875 -10.082031 9.171875 -10.03125 Z M 9.171875 -0.28125 "/></g></g></g><g fill="#94666b" fill-opacity="1"><g transform="translate(340.990662, 115.615489)"><g><path d="M 7.34375 -4.09375 C 7.34375 -3.882812 7.289062 -3.738281 7.1875 -3.65625 C 7.082031 -3.570312 6.960938 -3.53125 6.828125 -3.53125 L 2.125 -3.53125 C 2.125 -3.125 2.164062 -2.757812 2.25 -2.4375 C 2.332031 -2.125 2.460938 -1.851562 2.640625 -1.625 C 2.828125 -1.394531 3.066406 -1.21875 3.359375 -1.09375 C 3.660156 -0.976562 4.03125 -0.921875 4.46875 -0.921875 C 4.800781 -0.921875 5.097656 -0.945312 5.359375 -1 C 5.628906 -1.050781 5.863281 -1.113281 6.0625 -1.1875 C 6.257812 -1.257812 6.421875 -1.320312 6.546875 -1.375 C 6.671875 -1.425781 6.765625 -1.453125 6.828125 -1.453125 C 6.859375 -1.453125 6.890625 -1.441406 6.921875 -1.421875 C 6.953125 -1.410156 6.972656 -1.382812 6.984375 -1.34375 C 7.003906 -1.3125 7.019531 -1.257812 7.03125 -1.1875 C 7.039062 -1.125 7.046875 -1.046875 7.046875 -0.953125 C 7.046875 -0.878906 7.039062 -0.816406 7.03125 -0.765625 C 7.03125 -0.710938 7.023438 -0.664062 7.015625 -0.625 C 7.003906 -0.59375 6.988281 -0.5625 6.96875 -0.53125 C 6.945312 -0.5 6.921875 -0.46875 6.890625 -0.4375 C 6.867188 -0.40625 6.785156 -0.351562 6.640625 -0.28125 C 6.492188 -0.21875 6.304688 -0.15625 6.078125 -0.09375 C 5.847656 -0.03125 5.582031 0.0234375 5.28125 0.078125 C 4.988281 0.128906 4.671875 0.15625 4.328125 0.15625 C 3.734375 0.15625 3.210938 0.0703125 2.765625 -0.09375 C 2.328125 -0.257812 1.957031 -0.503906 1.65625 -0.828125 C 1.351562 -1.148438 1.125 -1.554688 0.96875 -2.046875 C 0.8125 -2.535156 0.734375 -3.101562 0.734375 -3.75 C 0.734375 -4.375 0.8125 -4.929688 0.96875 -5.421875 C 1.132812 -5.910156 1.367188 -6.328125 1.671875 -6.671875 C 1.972656 -7.015625 2.332031 -7.273438 2.75 -7.453125 C 3.175781 -7.640625 3.65625 -7.734375 4.1875 -7.734375 C 4.75 -7.734375 5.226562 -7.640625 5.625 -7.453125 C 6.019531 -7.273438 6.34375 -7.035156 6.59375 -6.734375 C 6.851562 -6.429688 7.039062 -6.070312 7.15625 -5.65625 C 7.28125 -5.238281 7.34375 -4.800781 7.34375 -4.34375 Z M 6.015625 -4.484375 C 6.035156 -5.179688 5.882812 -5.722656 5.5625 -6.109375 C 5.238281 -6.503906 4.757812 -6.703125 4.125 -6.703125 C 3.800781 -6.703125 3.515625 -6.640625 3.265625 -6.515625 C 3.023438 -6.398438 2.820312 -6.238281 2.65625 -6.03125 C 2.5 -5.832031 2.375 -5.597656 2.28125 -5.328125 C 2.1875 -5.054688 2.132812 -4.773438 2.125 -4.484375 Z M 6.015625 -4.484375 "/></g></g><g transform="translate(349.114759, 115.615489)"><g><path d="M 6.625 -0.1875 C 6.625 -0.125 6.601562 -0.078125 6.5625 -0.046875 C 6.519531 -0.015625 6.460938 0.00390625 6.390625 0.015625 C 6.316406 0.0351562 6.207031 0.046875 6.0625 0.046875 C 5.925781 0.046875 5.816406 0.0351562 5.734375 0.015625 C 5.648438 0.00390625 5.585938 -0.015625 5.546875 -0.046875 C 5.515625 -0.078125 5.5 -0.125 5.5 -0.1875 L 5.5 -0.90625 C 5.175781 -0.570312 4.820312 -0.3125 4.4375 -0.125 C 4.050781 0.0625 3.644531 0.15625 3.21875 0.15625 C 2.84375 0.15625 2.5 0.101562 2.1875 0 C 1.882812 -0.09375 1.625 -0.234375 1.40625 -0.421875 C 1.195312 -0.609375 1.03125 -0.835938 0.90625 -1.109375 C 0.789062 -1.378906 0.734375 -1.6875 0.734375 -2.03125 C 0.734375 -2.4375 0.816406 -2.785156 0.984375 -3.078125 C 1.148438 -3.378906 1.382812 -3.628906 1.6875 -3.828125 C 2 -4.023438 2.375 -4.171875 2.8125 -4.265625 C 3.257812 -4.367188 3.765625 -4.421875 4.328125 -4.421875 L 5.3125 -4.421875 L 5.3125 -4.96875 C 5.3125 -5.25 5.28125 -5.492188 5.21875 -5.703125 C 5.164062 -5.921875 5.070312 -6.097656 4.9375 -6.234375 C 4.8125 -6.378906 4.644531 -6.488281 4.4375 -6.5625 C 4.226562 -6.632812 3.972656 -6.671875 3.671875 -6.671875 C 3.347656 -6.671875 3.054688 -6.628906 2.796875 -6.546875 C 2.546875 -6.472656 2.320312 -6.390625 2.125 -6.296875 C 1.925781 -6.203125 1.757812 -6.113281 1.625 -6.03125 C 1.5 -5.957031 1.40625 -5.921875 1.34375 -5.921875 C 1.300781 -5.921875 1.265625 -5.929688 1.234375 -5.953125 C 1.203125 -5.972656 1.171875 -6.003906 1.140625 -6.046875 C 1.117188 -6.085938 1.101562 -6.140625 1.09375 -6.203125 C 1.082031 -6.273438 1.078125 -6.351562 1.078125 -6.4375 C 1.078125 -6.570312 1.085938 -6.675781 1.109375 -6.75 C 1.128906 -6.820312 1.175781 -6.894531 1.25 -6.96875 C 1.320312 -7.039062 1.441406 -7.117188 1.609375 -7.203125 C 1.785156 -7.296875 1.988281 -7.378906 2.21875 -7.453125 C 2.445312 -7.535156 2.695312 -7.601562 2.96875 -7.65625 C 3.238281 -7.707031 3.515625 -7.734375 3.796875 -7.734375 C 4.304688 -7.734375 4.742188 -7.671875 5.109375 -7.546875 C 5.472656 -7.429688 5.765625 -7.257812 5.984375 -7.03125 C 6.210938 -6.8125 6.375 -6.535156 6.46875 -6.203125 C 6.570312 -5.867188 6.625 -5.476562 6.625 -5.03125 Z M 5.3125 -3.46875 L 4.1875 -3.46875 C 3.832031 -3.46875 3.519531 -3.4375 3.25 -3.375 C 2.988281 -3.3125 2.769531 -3.21875 2.59375 -3.09375 C 2.414062 -2.976562 2.285156 -2.835938 2.203125 -2.671875 C 2.117188 -2.503906 2.078125 -2.3125 2.078125 -2.09375 C 2.078125 -1.71875 2.195312 -1.421875 2.4375 -1.203125 C 2.675781 -0.984375 3.003906 -0.875 3.421875 -0.875 C 3.773438 -0.875 4.097656 -0.960938 4.390625 -1.140625 C 4.679688 -1.316406 4.988281 -1.585938 5.3125 -1.953125 Z M 5.3125 -3.46875 "/></g></g><g transform="translate(356.935896, 115.615489)"><g><path d="M 2.53125 -0.203125 C 2.53125 -0.160156 2.519531 -0.125 2.5 -0.09375 C 2.476562 -0.0625 2.441406 -0.0351562 2.390625 -0.015625 C 2.347656 0.00390625 2.285156 0.0195312 2.203125 0.03125 C 2.117188 0.0390625 2.007812 0.046875 1.875 0.046875 C 1.75 0.046875 1.640625 0.0390625 1.546875 0.03125 C 1.460938 0.0195312 1.394531 0.00390625 1.34375 -0.015625 C 1.300781 -0.0351562 1.269531 -0.0625 1.25 -0.09375 C 1.226562 -0.125 1.21875 -0.160156 1.21875 -0.203125 L 1.21875 -10.84375 C 1.21875 -10.894531 1.226562 -10.9375 1.25 -10.96875 C 1.269531 -11 1.300781 -11.023438 1.34375 -11.046875 C 1.394531 -11.066406 1.460938 -11.082031 1.546875 -11.09375 C 1.640625 -11.101562 1.75 -11.109375 1.875 -11.109375 C 2.007812 -11.109375 2.117188 -11.101562 2.203125 -11.09375 C 2.285156 -11.082031 2.347656 -11.066406 2.390625 -11.046875 C 2.441406 -11.023438 2.476562 -11 2.5 -10.96875 C 2.519531 -10.9375 2.53125 -10.894531 2.53125 -10.84375 Z M 2.53125 -0.203125 "/></g></g><g transform="translate(360.683026, 115.615489)"><g><path d="M 4.953125 -0.71875 C 4.953125 -0.570312 4.941406 -0.453125 4.921875 -0.359375 C 4.898438 -0.265625 4.867188 -0.195312 4.828125 -0.15625 C 4.785156 -0.113281 4.71875 -0.0703125 4.625 -0.03125 C 4.539062 0 4.441406 0.0234375 4.328125 0.046875 C 4.222656 0.078125 4.109375 0.0976562 3.984375 0.109375 C 3.867188 0.128906 3.75 0.140625 3.625 0.140625 C 3.25 0.140625 2.925781 0.09375 2.65625 0 C 2.394531 -0.101562 2.179688 -0.253906 2.015625 -0.453125 C 1.847656 -0.648438 1.722656 -0.898438 1.640625 -1.203125 C 1.566406 -1.515625 1.53125 -1.878906 1.53125 -2.296875 L 1.53125 -6.484375 L 0.53125 -6.484375 C 0.445312 -6.484375 0.378906 -6.523438 0.328125 -6.609375 C 0.285156 -6.703125 0.265625 -6.84375 0.265625 -7.03125 C 0.265625 -7.132812 0.269531 -7.21875 0.28125 -7.28125 C 0.289062 -7.351562 0.304688 -7.410156 0.328125 -7.453125 C 0.347656 -7.503906 0.375 -7.535156 0.40625 -7.546875 C 0.445312 -7.566406 0.488281 -7.578125 0.53125 -7.578125 L 1.53125 -7.578125 L 1.53125 -9.28125 C 1.53125 -9.320312 1.539062 -9.359375 1.5625 -9.390625 C 1.582031 -9.421875 1.613281 -9.445312 1.65625 -9.46875 C 1.707031 -9.5 1.773438 -9.519531 1.859375 -9.53125 C 1.953125 -9.539062 2.0625 -9.546875 2.1875 -9.546875 C 2.320312 -9.546875 2.429688 -9.539062 2.515625 -9.53125 C 2.597656 -9.519531 2.660156 -9.5 2.703125 -9.46875 C 2.753906 -9.445312 2.789062 -9.421875 2.8125 -9.390625 C 2.832031 -9.359375 2.84375 -9.320312 2.84375 -9.28125 L 2.84375 -7.578125 L 4.6875 -7.578125 C 4.726562 -7.578125 4.765625 -7.566406 4.796875 -7.546875 C 4.828125 -7.535156 4.851562 -7.503906 4.875 -7.453125 C 4.90625 -7.410156 4.925781 -7.351562 4.9375 -7.28125 C 4.945312 -7.21875 4.953125 -7.132812 4.953125 -7.03125 C 4.953125 -6.84375 4.925781 -6.703125 4.875 -6.609375 C 4.832031 -6.523438 4.769531 -6.484375 4.6875 -6.484375 L 2.84375 -6.484375 L 2.84375 -2.484375 C 2.84375 -1.992188 2.914062 -1.617188 3.0625 -1.359375 C 3.207031 -1.109375 3.46875 -0.984375 3.84375 -0.984375 C 3.96875 -0.984375 4.078125 -0.992188 4.171875 -1.015625 C 4.273438 -1.046875 4.363281 -1.070312 4.4375 -1.09375 C 4.507812 -1.125 4.570312 -1.148438 4.625 -1.171875 C 4.675781 -1.203125 4.722656 -1.21875 4.765625 -1.21875 C 4.796875 -1.21875 4.820312 -1.207031 4.84375 -1.1875 C 4.863281 -1.175781 4.878906 -1.148438 4.890625 -1.109375 C 4.910156 -1.078125 4.925781 -1.03125 4.9375 -0.96875 C 4.945312 -0.90625 4.953125 -0.820312 4.953125 -0.71875 Z M 4.953125 -0.71875 "/></g></g><g transform="translate(366.152241, 115.615489)"><g><path d="M 7.40625 -0.203125 C 7.40625 -0.160156 7.390625 -0.125 7.359375 -0.09375 C 7.335938 -0.0625 7.300781 -0.0351562 7.25 -0.015625 C 7.207031 0.00390625 7.144531 0.0195312 7.0625 0.03125 C 6.976562 0.0390625 6.875 0.046875 6.75 0.046875 C 6.613281 0.046875 6.503906 0.0390625 6.421875 0.03125 C 6.335938 0.0195312 6.269531 0.00390625 6.21875 -0.015625 C 6.164062 -0.0351562 6.128906 -0.0625 6.109375 -0.09375 C 6.085938 -0.125 6.078125 -0.160156 6.078125 -0.203125 L 6.078125 -4.40625 C 6.078125 -4.8125 6.046875 -5.140625 5.984375 -5.390625 C 5.921875 -5.640625 5.828125 -5.851562 5.703125 -6.03125 C 5.585938 -6.21875 5.429688 -6.359375 5.234375 -6.453125 C 5.035156 -6.546875 4.8125 -6.59375 4.5625 -6.59375 C 4.226562 -6.59375 3.894531 -6.472656 3.5625 -6.234375 C 3.238281 -6.003906 2.894531 -5.664062 2.53125 -5.21875 L 2.53125 -0.203125 C 2.53125 -0.160156 2.519531 -0.125 2.5 -0.09375 C 2.476562 -0.0625 2.441406 -0.0351562 2.390625 -0.015625 C 2.347656 0.00390625 2.285156 0.0195312 2.203125 0.03125 C 2.117188 0.0390625 2.007812 0.046875 1.875 0.046875 C 1.75 0.046875 1.640625 0.0390625 1.546875 0.03125 C 1.460938 0.0195312 1.394531 0.00390625 1.34375 -0.015625 C 1.300781 -0.0351562 1.269531 -0.0625 1.25 -0.09375 C 1.226562 -0.125 1.21875 -0.160156 1.21875 -0.203125 L 1.21875 -10.84375 C 1.21875 -10.894531 1.226562 -10.9375 1.25 -10.96875 C 1.269531 -11 1.300781 -11.023438 1.34375 -11.046875 C 1.394531 -11.066406 1.460938 -11.082031 1.546875 -11.09375 C 1.640625 -11.101562 1.75 -11.109375 1.875 -11.109375 C 2.007812 -11.109375 2.117188 -11.101562 2.203125 -11.09375 C 2.285156 -11.082031 2.347656 -11.066406 2.390625 -11.046875 C 2.441406 -11.023438 2.476562 -11 2.5 -10.96875 C 2.519531 -10.9375 2.53125 -10.894531 2.53125 -10.84375 L 2.53125 -6.546875 C 2.90625 -6.953125 3.285156 -7.25 3.671875 -7.4375 C 4.054688 -7.632812 4.441406 -7.734375 4.828125 -7.734375 C 5.304688 -7.734375 5.707031 -7.648438 6.03125 -7.484375 C 6.363281 -7.328125 6.628906 -7.113281 6.828125 -6.84375 C 7.035156 -6.570312 7.179688 -6.253906 7.265625 -5.890625 C 7.359375 -5.523438 7.40625 -5.082031 7.40625 -4.5625 Z M 7.40625 -0.203125 "/></g></g></g></svg>