<svg xmlns="http://www.w3.org/2000/svg" xmlns:xlink="http://www.w3.org/1999/xlink" width="566" zoomAndPan="magnify" viewBox="0 0 425.25 141.750002" height="188" preserveAspectRatio="xMidYMid meet" version="1.0"><defs><filter x="0%" y="0%" width="100%" height="100%" id="53273cf697"><feColorMatrix values="0 0 0 0 1 0 0 0 0 1 0 0 0 0 1 0 0 0 1 0" color-interpolation-filters="sRGB"/></filter><g/><clipPath id="e20917d2ef"><path d="M 0 0 L 424.5 0 L 424.5 141.5 L 0 141.5 Z M 0 0 " clip-rule="nonzero"/></clipPath><mask id="070bbb59ae"><g filter="url(#53273cf697)"><rect x="-42.525" width="510.3" fill="#000000" y="-14.175" height="170.100003" fill-opacity="0.85"/></g></mask><clipPath id="fec5ee0a9f"><path d="M 0.207031 1 L 98.195312 1 L 98.195312 89.84375 L 0.207031 89.84375 Z M 0.207031 1 " clip-rule="nonzero"/></clipPath><clipPath id="02fa02b4d5"><rect x="0" width="99" y="0" height="91"/></clipPath><mask id="4a478f8cc4"><g filter="url(#53273cf697)"><rect x="-42.525" width="510.3" fill="#000000" y="-14.175" height="170.100003" fill-opacity="0.5"/></g></mask><clipPath id="91d9e22bc9"><path d="M 0.710938 1.042969 L 93.558594 1.042969 L 93.558594 38.425781 L 0.710938 38.425781 Z M 0.710938 1.042969 " clip-rule="nonzero"/></clipPath><clipPath id="d6a65070de"><rect x="0" width="94" y="0" height="39"/></clipPath></defs><g clip-path="url(#e20917d2ef)"><path fill="#ffffff" d="M 0 0 L 424.5 0 L 424.5 141.5 L 0 141.5 Z M 0 0 " fill-opacity="1" fill-rule="nonzero"/><path fill="#ffffff" d="M 0 0 L 424.5 0 L 424.5 141.5 L 0 141.5 Z M 0 0 " fill-opacity="1" fill-rule="nonzero"/></g><g mask="url(#070bbb59ae)"><g transform="matrix(1, 0, 0, 1, 41, 25)"><g clip-path="url(#02fa02b4d5)"><g clip-path="url(#fec5ee0a9f)"><path fill="#a6a6a6" d="M 97.859375 23.308594 C 92.339844 -5.082031 57.746094 -5.558594 49.214844 20.980469 C 40.683594 -5.554688 6.089844 -5.082031 0.570312 23.308594 C -4.4375 49.0625 49.214844 89.699219 49.214844 89.699219 C 49.214844 89.699219 102.867188 49.0625 97.859375 23.308594 Z M 97.859375 23.308594 " fill-opacity="1" fill-rule="nonzero"/></g></g></g></g><g mask="url(#4a478f8cc4)"><g transform="matrix(1, 0, 0, 1, 43, 41)"><g clip-path="url(#d6a65070de)"><g clip-path="url(#91d9e22bc9)"><path fill="#d9d9d9" d="M 93.429688 22.378906 C 93.195312 22.363281 92.964844 22.339844 92.738281 22.339844 C 86.042969 22.332031 79.351562 22.328125 72.65625 22.324219 C 71.066406 22.320312 69.480469 22.316406 67.894531 22.328125 C 65.632812 22.339844 63.375 22.375 61.113281 22.378906 C 59.035156 22.378906 56.957031 22.347656 54.878906 22.339844 C 54.003906 22.335938 53.132812 22.351562 52.261719 22.351562 C 50.597656 22.347656 48.933594 22.332031 47.269531 22.332031 C 46.371094 22.332031 45.472656 22.359375 44.574219 22.355469 C 42.910156 22.351562 41.246094 22.328125 39.582031 22.324219 C 38.175781 22.316406 36.769531 22.320312 35.359375 22.328125 C 34.84375 22.328125 34.726562 22.28125 34.554688 21.820312 C 34.371094 21.324219 34.214844 20.816406 33.992188 20.140625 C 33.859375 20.847656 33.75 21.375 33.660156 21.902344 C 33.175781 24.789062 32.695312 27.675781 32.210938 30.566406 C 32.105469 31.195312 31.953125 31.382812 31.566406 31.351562 C 31.222656 31.324219 31.101562 31.148438 31.035156 30.539062 C 30.777344 28.214844 30.527344 25.886719 30.269531 23.5625 C 30.050781 21.546875 29.828125 19.535156 29.601562 17.519531 C 29.371094 15.425781 29.132812 13.328125 28.898438 11.234375 C 28.765625 10.0625 28.636719 8.886719 28.421875 7.703125 C 28.363281 8.179688 28.28125 8.652344 28.25 9.128906 C 28.125 10.796875 28.019531 12.464844 27.898438 14.132812 C 27.824219 15.132812 27.722656 16.128906 27.644531 17.128906 C 27.519531 18.84375 27.410156 20.5625 27.285156 22.277344 C 27.160156 23.941406 27.019531 25.605469 26.894531 27.269531 C 26.769531 28.910156 26.652344 30.554688 26.527344 32.195312 C 26.378906 34.09375 26.226562 35.992188 26.082031 37.890625 C 26.0625 38.128906 26.054688 38.359375 25.777344 38.457031 C 25.425781 38.582031 25.117188 38.417969 25.042969 38.011719 C 24.953125 37.558594 24.914062 37.097656 24.859375 36.636719 C 24.53125 33.882812 24.21875 31.121094 23.875 28.367188 C 23.652344 26.554688 23.382812 24.75 23.144531 22.941406 C 23.078125 22.40625 23.054688 21.867188 22.992188 21.335938 C 22.953125 21.007812 22.875 20.683594 22.699219 20.351562 C 22.519531 21.003906 22.347656 21.65625 22.160156 22.300781 C 22.035156 22.722656 21.878906 23.128906 21.753906 23.546875 C 21.679688 23.800781 21.53125 23.933594 21.261719 23.945312 C 20.945312 23.957031 20.773438 23.785156 20.707031 23.511719 C 20.523438 22.816406 20.363281 22.117188 20.195312 21.417969 C 19.867188 20.070312 19.546875 18.71875 19.21875 17.371094 C 19.183594 17.226562 19.117188 17.089844 19.007812 16.792969 C 18.710938 18.410156 18.445312 19.863281 18.179688 21.324219 C 17.796875 23.445312 17.417969 25.574219 17.039062 27.695312 C 17.027344 27.746094 17.007812 27.796875 17 27.847656 C 16.953125 28.167969 16.863281 28.476562 16.472656 28.488281 C 16.101562 28.5 15.960938 28.234375 15.835938 27.925781 C 15.1875 26.355469 14.519531 24.796875 13.855469 23.234375 C 13.738281 22.953125 13.609375 22.675781 13.476562 22.386719 C 13.246094 22.371094 13.042969 22.347656 12.839844 22.347656 C 8.953125 22.34375 5.066406 22.34375 1.175781 22.347656 C 1.023438 22.347656 0.871094 22.371094 0.71875 22.382812 C 0.71875 22.074219 0.71875 21.765625 0.71875 21.457031 C 1.101562 21.46875 1.488281 21.484375 1.875 21.484375 C 5.683594 21.484375 9.492188 21.484375 13.304688 21.484375 C 14.199219 21.484375 14.199219 21.488281 14.539062 22.332031 C 15.058594 23.613281 15.574219 24.898438 16.226562 26.195312 C 16.304688 25.839844 16.398438 25.492188 16.460938 25.140625 C 17.074219 21.75 17.683594 18.363281 18.292969 14.972656 C 18.355469 14.621094 18.417969 14.265625 18.488281 13.914062 C 18.53125 13.675781 18.699219 13.574219 18.925781 13.554688 C 19.183594 13.535156 19.382812 13.621094 19.480469 13.871094 C 19.527344 13.988281 19.550781 14.117188 19.578125 14.242188 C 20.09375 16.390625 20.605469 18.539062 21.125 20.6875 C 21.164062 20.859375 21.238281 21.019531 21.339844 21.316406 C 21.492188 20.808594 21.613281 20.429688 21.726562 20.046875 C 21.980469 19.160156 22.238281 18.273438 22.488281 17.386719 C 22.578125 17.050781 22.789062 16.929688 23.117188 16.960938 C 23.4375 16.992188 23.539062 17.210938 23.570312 17.492188 C 23.730469 18.835938 23.890625 20.183594 24.050781 21.53125 C 24.175781 22.574219 24.304688 23.617188 24.433594 24.660156 C 24.667969 26.601562 24.898438 28.539062 25.132812 30.480469 C 25.199219 31.035156 25.277344 31.589844 25.425781 32.15625 C 25.46875 31.992188 25.539062 31.832031 25.550781 31.667969 C 25.671875 30.101562 25.785156 28.535156 25.898438 26.972656 C 26.089844 24.304688 26.273438 21.636719 26.472656 18.972656 C 26.640625 16.691406 26.824219 14.414062 27.003906 12.132812 C 27.191406 9.773438 27.386719 7.414062 27.570312 5.058594 C 27.640625 4.132812 27.695312 3.207031 27.757812 2.285156 C 27.773438 2.054688 27.777344 1.820312 27.804688 1.59375 C 27.839844 1.277344 27.976562 1.050781 28.335938 1.050781 C 28.6875 1.050781 28.824219 1.246094 28.859375 1.582031 C 28.925781 2.246094 29.03125 2.90625 29.105469 3.570312 C 29.335938 5.691406 29.546875 7.816406 29.785156 9.9375 C 30.058594 12.390625 30.355469 14.839844 30.632812 17.292969 C 30.820312 18.953125 30.984375 20.617188 31.167969 22.277344 C 31.328125 23.71875 31.503906 25.164062 31.6875 26.722656 C 31.789062 26.53125 31.859375 26.449219 31.871094 26.359375 C 32.046875 25.242188 32.203125 24.125 32.390625 23.015625 C 32.605469 21.746094 32.851562 20.484375 33.082031 19.222656 C 33.148438 18.867188 33.210938 18.515625 33.273438 18.160156 C 33.320312 17.90625 33.46875 17.683594 33.714844 17.699219 C 33.90625 17.707031 34.136719 17.847656 34.273438 18 C 34.417969 18.164062 34.496094 18.402344 34.570312 18.617188 C 34.894531 19.535156 35.207031 20.457031 35.546875 21.4375 C 35.746094 21.453125 35.96875 21.484375 36.195312 21.484375 C 38.507812 21.480469 40.816406 21.457031 43.125 21.457031 C 46.136719 21.457031 49.144531 21.480469 52.152344 21.484375 C 55.238281 21.488281 58.324219 21.488281 61.410156 21.488281 C 63.59375 21.488281 65.773438 21.488281 67.957031 21.488281 C 76.242188 21.488281 84.527344 21.488281 92.8125 21.488281 C 93.019531 21.488281 93.222656 21.472656 93.429688 21.464844 C 93.429688 21.757812 93.429688 22.070312 93.429688 22.378906 Z M 93.429688 22.378906 " fill-opacity="1" fill-rule="nonzero"/></g></g></g></g><path stroke-linecap="round" transform="matrix(0, 0.377601, -0.377601, 0, 83.618981, 41.998353)" fill="none" stroke-linejoin="miter" d="M 0.749195 0.501306 L 151.826178 0.501306 " stroke="#94666b" stroke-width="1" stroke-opacity="1" stroke-miterlimit="4"/><path stroke-linecap="round" transform="matrix(0, 0.377601, -0.377601, 0, 83.618981, 41.998353)" fill="none" stroke-linejoin="round" d="M 2.497484 -0.998706 L 0.500917 0.501306 L 2.497484 2.001317 " stroke="#94666b" stroke-width="1" stroke-opacity="1" stroke-miterlimit="4"/><path stroke-linecap="round" transform="matrix(-0.340175, 0.163903, -0.163903, -0.340175, 117.126126, 62.060286)" fill="none" stroke-linejoin="miter" d="M 2.076531 20.10184 C 45.913418 -4.7205 89.757999 -4.701243 133.587147 20.159951 " stroke="#e95060" stroke-width="3" stroke-opacity="1" stroke-miterlimit="4"/><path stroke-linecap="round" transform="matrix(0.377601, 0, 0, 0.377601, 62.128186, 79.046254)" fill="none" stroke-linejoin="miter" d="M 0.498462 0.498201 L 151.585789 0.498201 " stroke="#94666b" stroke-width="1" stroke-opacity="1" stroke-miterlimit="4"/><path stroke-linecap="round" transform="matrix(0.377601, 0, 0, 0.377601, 62.128186, 79.046254)" fill="none" stroke-linejoin="round" d="M 149.827156 -1.00181 L 151.834067 0.498201 L 149.827156 1.998212 " stroke="#94666b" stroke-width="1" stroke-opacity="1" stroke-miterlimit="4"/><g fill="#7d343c" fill-opacity="1"><g transform="translate(137.048611, 91.569768)"><g><path d="M 50.453125 -4.125 C 50.796875 -3.113281 51.007812 -2.3125 51.09375 -1.71875 C 51.175781 -1.132812 51.0625 -0.691406 50.75 -0.390625 C 50.445312 -0.0976562 49.898438 0.078125 49.109375 0.140625 C 48.328125 0.210938 47.25 0.25 45.875 0.25 C 44.445312 0.25 43.332031 0.226562 42.53125 0.1875 C 41.738281 0.144531 41.128906 0.0625 40.703125 -0.0625 C 40.285156 -0.1875 39.992188 -0.359375 39.828125 -0.578125 C 39.660156 -0.804688 39.519531 -1.101562 39.40625 -1.46875 L 35.75 -12.390625 L 15.328125 -12.390625 L 11.890625 -1.765625 C 11.773438 -1.367188 11.625 -1.035156 11.4375 -0.765625 C 11.257812 -0.503906 10.96875 -0.296875 10.5625 -0.140625 C 10.15625 0.00390625 9.582031 0.101562 8.84375 0.15625 C 8.101562 0.21875 7.128906 0.25 5.921875 0.25 C 4.628906 0.25 3.617188 0.207031 2.890625 0.125 C 2.171875 0.0390625 1.671875 -0.160156 1.390625 -0.484375 C 1.109375 -0.804688 1.007812 -1.257812 1.09375 -1.84375 C 1.175781 -2.4375 1.382812 -3.222656 1.71875 -4.203125 L 18.484375 -52.4375 C 18.648438 -52.914062 18.84375 -53.300781 19.0625 -53.59375 C 19.289062 -53.882812 19.648438 -54.109375 20.140625 -54.265625 C 20.628906 -54.421875 21.304688 -54.519531 22.171875 -54.5625 C 23.046875 -54.601562 24.195312 -54.625 25.625 -54.625 C 27.28125 -54.625 28.597656 -54.601562 29.578125 -54.5625 C 30.554688 -54.519531 31.316406 -54.421875 31.859375 -54.265625 C 32.410156 -54.109375 32.804688 -53.875 33.046875 -53.5625 C 33.285156 -53.257812 33.488281 -52.84375 33.65625 -52.3125 Z M 25.5 -43.984375 L 25.46875 -43.984375 L 17.765625 -20.875 L 33.1875 -20.875 Z M 25.5 -43.984375 "/></g></g></g><g fill="#7d343c" fill-opacity="1"><g transform="translate(189.18028, 91.569768)"><g><path d="M 27.890625 -20.625 L 27.890625 -1.515625 C 27.890625 -1.234375 27.800781 -0.976562 27.625 -0.75 C 27.445312 -0.53125 27.144531 -0.347656 26.71875 -0.203125 C 26.300781 -0.0664062 25.734375 0.0390625 25.015625 0.125 C 24.304688 0.207031 23.421875 0.25 22.359375 0.25 C 21.265625 0.25 20.363281 0.207031 19.65625 0.125 C 18.957031 0.0390625 18.390625 -0.0664062 17.953125 -0.203125 C 17.523438 -0.347656 17.226562 -0.53125 17.0625 -0.75 C 16.894531 -0.976562 16.8125 -1.234375 16.8125 -1.515625 L 16.8125 -20.625 L 1.9375 -50.25 C 1.40625 -51.28125 1.0625 -52.082031 0.90625 -52.65625 C 0.75 -53.238281 0.832031 -53.675781 1.15625 -53.96875 C 1.476562 -54.257812 2.070312 -54.441406 2.9375 -54.515625 C 3.8125 -54.585938 5.015625 -54.625 6.546875 -54.625 C 7.835938 -54.625 8.867188 -54.59375 9.640625 -54.53125 C 10.410156 -54.476562 11.019531 -54.375 11.46875 -54.21875 C 11.914062 -54.0625 12.242188 -53.859375 12.453125 -53.609375 C 12.660156 -53.359375 12.863281 -53.035156 13.0625 -52.640625 L 19.109375 -39.28125 C 19.703125 -37.988281 20.285156 -36.628906 20.859375 -35.203125 C 21.429688 -33.773438 22.015625 -32.28125 22.609375 -30.71875 L 22.6875 -30.71875 C 23.21875 -32.226562 23.765625 -33.695312 24.328125 -35.125 C 24.890625 -36.550781 25.4375 -37.910156 25.96875 -39.203125 L 31.9375 -52.484375 C 32.070312 -52.929688 32.242188 -53.285156 32.453125 -53.546875 C 32.660156 -53.816406 32.972656 -54.035156 33.390625 -54.203125 C 33.816406 -54.367188 34.394531 -54.476562 35.125 -54.53125 C 35.851562 -54.59375 36.820312 -54.625 38.03125 -54.625 C 39.625 -54.625 40.859375 -54.585938 41.734375 -54.515625 C 42.617188 -54.441406 43.222656 -54.257812 43.546875 -53.96875 C 43.867188 -53.675781 43.945312 -53.234375 43.78125 -52.640625 C 43.613281 -52.054688 43.273438 -51.257812 42.765625 -50.25 Z M 27.890625 -20.625 "/></g></g></g><g fill="#7d343c" fill-opacity="1"><g transform="translate(233.876564, 91.569768)"><g><path d="M 50.296875 -20.25 C 50.296875 -16.914062 49.800781 -13.929688 48.8125 -11.296875 C 47.832031 -8.671875 46.390625 -6.445312 44.484375 -4.625 C 42.585938 -2.800781 40.238281 -1.410156 37.4375 -0.453125 C 34.632812 0.492188 31.410156 0.96875 27.765625 0.96875 C 24.347656 0.96875 21.28125 0.539062 18.5625 -0.3125 C 15.851562 -1.164062 13.554688 -2.460938 11.671875 -4.203125 C 9.796875 -5.941406 8.359375 -8.101562 7.359375 -10.6875 C 6.367188 -13.28125 5.875 -16.316406 5.875 -19.796875 L 5.875 -52.859375 C 5.875 -53.140625 5.957031 -53.390625 6.125 -53.609375 C 6.300781 -53.835938 6.601562 -54.019531 7.03125 -54.15625 C 7.46875 -54.300781 8.035156 -54.414062 8.734375 -54.5 C 9.441406 -54.582031 10.335938 -54.625 11.421875 -54.625 C 12.492188 -54.625 13.378906 -54.582031 14.078125 -54.5 C 14.773438 -54.414062 15.332031 -54.300781 15.75 -54.15625 C 16.175781 -54.019531 16.476562 -53.835938 16.65625 -53.609375 C 16.84375 -53.390625 16.9375 -53.140625 16.9375 -52.859375 L 16.9375 -20.75 C 16.9375 -18.59375 17.203125 -16.722656 17.734375 -15.140625 C 18.265625 -13.554688 19.023438 -12.242188 20.015625 -11.203125 C 21.015625 -10.171875 22.207031 -9.394531 23.59375 -8.875 C 24.976562 -8.363281 26.523438 -8.109375 28.234375 -8.109375 C 29.972656 -8.109375 31.523438 -8.375 32.890625 -8.90625 C 34.265625 -9.4375 35.425781 -10.210938 36.375 -11.234375 C 37.332031 -12.253906 38.070312 -13.515625 38.59375 -15.015625 C 39.113281 -16.515625 39.375 -18.21875 39.375 -20.125 L 39.375 -52.859375 C 39.375 -53.140625 39.457031 -53.390625 39.625 -53.609375 C 39.789062 -53.835938 40.082031 -54.019531 40.5 -54.15625 C 40.914062 -54.300781 41.484375 -54.414062 42.203125 -54.5 C 42.921875 -54.582031 43.8125 -54.625 44.875 -54.625 C 45.9375 -54.625 46.8125 -54.582031 47.5 -54.5 C 48.1875 -54.414062 48.738281 -54.300781 49.15625 -54.15625 C 49.570312 -54.019531 49.863281 -53.835938 50.03125 -53.609375 C 50.207031 -53.390625 50.296875 -53.140625 50.296875 -52.859375 Z M 50.296875 -20.25 "/></g></g></g><g fill="#7d343c" fill-opacity="1"><g transform="translate(290.040981, 91.569768)"><g><path d="M 38.15625 -16.296875 C 38.15625 -13.441406 37.617188 -10.9375 36.546875 -8.78125 C 35.484375 -6.625 34.039062 -4.820312 32.21875 -3.375 C 30.40625 -1.9375 28.28125 -0.851562 25.84375 -0.125 C 23.40625 0.601562 20.800781 0.96875 18.03125 0.96875 C 16.144531 0.96875 14.394531 0.8125 12.78125 0.5 C 11.175781 0.195312 9.757812 -0.171875 8.53125 -0.609375 C 7.300781 -1.046875 6.269531 -1.5 5.4375 -1.96875 C 4.613281 -2.445312 4.019531 -2.867188 3.65625 -3.234375 C 3.289062 -3.597656 3.03125 -4.125 2.875 -4.8125 C 2.71875 -5.5 2.640625 -6.484375 2.640625 -7.765625 C 2.640625 -8.640625 2.664062 -9.367188 2.71875 -9.953125 C 2.78125 -10.546875 2.875 -11.023438 3 -11.390625 C 3.125 -11.753906 3.289062 -12.007812 3.5 -12.15625 C 3.71875 -12.3125 3.96875 -12.390625 4.25 -12.390625 C 4.632812 -12.390625 5.179688 -12.160156 5.890625 -11.703125 C 6.609375 -11.242188 7.523438 -10.734375 8.640625 -10.171875 C 9.765625 -9.609375 11.101562 -9.09375 12.65625 -8.625 C 14.21875 -8.164062 16.019531 -7.9375 18.0625 -7.9375 C 19.40625 -7.9375 20.609375 -8.097656 21.671875 -8.421875 C 22.742188 -8.742188 23.648438 -9.195312 24.390625 -9.78125 C 25.128906 -10.375 25.691406 -11.101562 26.078125 -11.96875 C 26.472656 -12.84375 26.671875 -13.8125 26.671875 -14.875 C 26.671875 -16.101562 26.332031 -17.160156 25.65625 -18.046875 C 24.988281 -18.929688 24.113281 -19.710938 23.03125 -20.390625 C 21.957031 -21.078125 20.734375 -21.722656 19.359375 -22.328125 C 17.992188 -22.929688 16.582031 -23.566406 15.125 -24.234375 C 13.664062 -24.910156 12.25 -25.675781 10.875 -26.53125 C 9.507812 -27.382812 8.285156 -28.40625 7.203125 -29.59375 C 6.128906 -30.789062 5.253906 -32.203125 4.578125 -33.828125 C 3.910156 -35.453125 3.578125 -37.394531 3.578125 -39.65625 C 3.578125 -42.257812 4.054688 -44.550781 5.015625 -46.53125 C 5.984375 -48.507812 7.285156 -50.148438 8.921875 -51.453125 C 10.566406 -52.753906 12.5 -53.722656 14.71875 -54.359375 C 16.945312 -55.003906 19.3125 -55.328125 21.8125 -55.328125 C 23.09375 -55.328125 24.378906 -55.226562 25.671875 -55.03125 C 26.960938 -54.84375 28.164062 -54.578125 29.28125 -54.234375 C 30.40625 -53.898438 31.398438 -53.523438 32.265625 -53.109375 C 33.128906 -52.691406 33.703125 -52.34375 33.984375 -52.0625 C 34.265625 -51.78125 34.453125 -51.539062 34.546875 -51.34375 C 34.648438 -51.144531 34.738281 -50.882812 34.8125 -50.5625 C 34.882812 -50.238281 34.929688 -49.832031 34.953125 -49.34375 C 34.984375 -48.851562 35 -48.242188 35 -47.515625 C 35 -46.703125 34.976562 -46.015625 34.9375 -45.453125 C 34.894531 -44.898438 34.820312 -44.441406 34.71875 -44.078125 C 34.625 -43.710938 34.484375 -43.445312 34.296875 -43.28125 C 34.117188 -43.113281 33.875 -43.03125 33.5625 -43.03125 C 33.257812 -43.03125 32.769531 -43.222656 32.09375 -43.609375 C 31.425781 -44.003906 30.601562 -44.429688 29.625 -44.890625 C 28.644531 -45.359375 27.507812 -45.78125 26.21875 -46.15625 C 24.925781 -46.53125 23.507812 -46.71875 21.96875 -46.71875 C 20.769531 -46.71875 19.722656 -46.570312 18.828125 -46.28125 C 17.929688 -45.988281 17.179688 -45.582031 16.578125 -45.0625 C 15.972656 -44.539062 15.523438 -43.914062 15.234375 -43.1875 C 14.941406 -42.457031 14.796875 -41.6875 14.796875 -40.875 C 14.796875 -39.675781 15.125 -38.632812 15.78125 -37.75 C 16.4375 -36.863281 17.316406 -36.078125 18.421875 -35.390625 C 19.523438 -34.710938 20.773438 -34.070312 22.171875 -33.46875 C 23.578125 -32.863281 25.007812 -32.222656 26.46875 -31.546875 C 27.925781 -30.878906 29.351562 -30.117188 30.75 -29.265625 C 32.15625 -28.410156 33.40625 -27.382812 34.5 -26.1875 C 35.59375 -25 36.472656 -23.597656 37.140625 -21.984375 C 37.816406 -20.378906 38.15625 -18.484375 38.15625 -16.296875 Z M 38.15625 -16.296875 "/></g></g></g><g fill="#7d343c" fill-opacity="1"><g transform="translate(330.704518, 91.569768)"><g><path d="M 48.359375 -1.515625 C 48.359375 -1.234375 48.265625 -0.976562 48.078125 -0.75 C 47.898438 -0.53125 47.597656 -0.347656 47.171875 -0.203125 C 46.753906 -0.0664062 46.195312 0.0390625 45.5 0.125 C 44.800781 0.207031 43.921875 0.25 42.859375 0.25 C 41.765625 0.25 40.859375 0.207031 40.140625 0.125 C 39.429688 0.0390625 38.875 -0.0664062 38.46875 -0.203125 C 38.0625 -0.347656 37.765625 -0.53125 37.578125 -0.75 C 37.398438 -0.976562 37.3125 -1.234375 37.3125 -1.515625 L 37.3125 -23.484375 L 16.96875 -23.484375 L 16.96875 -1.515625 C 16.96875 -1.234375 16.882812 -0.976562 16.71875 -0.75 C 16.550781 -0.53125 16.253906 -0.347656 15.828125 -0.203125 C 15.410156 -0.0664062 14.851562 0.0390625 14.15625 0.125 C 13.457031 0.207031 12.5625 0.25 11.46875 0.25 C 10.40625 0.25 9.515625 0.207031 8.796875 0.125 C 8.085938 0.0390625 7.519531 -0.0664062 7.09375 -0.203125 C 6.675781 -0.347656 6.375 -0.53125 6.1875 -0.75 C 6.007812 -0.976562 5.921875 -1.234375 5.921875 -1.515625 L 5.921875 -52.859375 C 5.921875 -53.140625 6.007812 -53.390625 6.1875 -53.609375 C 6.375 -53.835938 6.675781 -54.019531 7.09375 -54.15625 C 7.519531 -54.300781 8.085938 -54.414062 8.796875 -54.5 C 9.515625 -54.582031 10.40625 -54.625 11.46875 -54.625 C 12.5625 -54.625 13.457031 -54.582031 14.15625 -54.5 C 14.851562 -54.414062 15.410156 -54.300781 15.828125 -54.15625 C 16.253906 -54.019531 16.550781 -53.835938 16.71875 -53.609375 C 16.882812 -53.390625 16.96875 -53.140625 16.96875 -52.859375 L 16.96875 -32.890625 L 37.3125 -32.890625 L 37.3125 -52.859375 C 37.3125 -53.140625 37.398438 -53.390625 37.578125 -53.609375 C 37.765625 -53.835938 38.0625 -54.019531 38.46875 -54.15625 C 38.875 -54.300781 39.429688 -54.414062 40.140625 -54.5 C 40.859375 -54.582031 41.765625 -54.625 42.859375 -54.625 C 43.921875 -54.625 44.800781 -54.582031 45.5 -54.5 C 46.195312 -54.414062 46.753906 -54.300781 47.171875 -54.15625 C 47.597656 -54.019531 47.898438 -53.835938 48.078125 -53.609375 C 48.265625 -53.390625 48.359375 -53.140625 48.359375 -52.859375 Z M 48.359375 -1.515625 "/></g></g></g><g fill="#6d484c" fill-opacity="1"><g transform="translate(168.010448, 115.637596)"><g><path d="M 9.578125 -0.78125 C 9.648438 -0.59375 9.691406 -0.441406 9.703125 -0.328125 C 9.722656 -0.210938 9.703125 -0.125 9.640625 -0.0625 C 9.578125 -0.0078125 9.472656 0.0195312 9.328125 0.03125 C 9.179688 0.0390625 8.976562 0.046875 8.71875 0.046875 C 8.445312 0.046875 8.234375 0.0390625 8.078125 0.03125 C 7.929688 0.03125 7.816406 0.0195312 7.734375 0 C 7.648438 -0.03125 7.59375 -0.0664062 7.5625 -0.109375 C 7.53125 -0.148438 7.503906 -0.207031 7.484375 -0.28125 L 6.796875 -2.359375 L 2.90625 -2.359375 L 2.265625 -0.328125 C 2.234375 -0.253906 2.203125 -0.191406 2.171875 -0.140625 C 2.140625 -0.0976562 2.082031 -0.0625 2 -0.03125 C 1.925781 0 1.816406 0.0195312 1.671875 0.03125 C 1.535156 0.0390625 1.351562 0.046875 1.125 0.046875 C 0.882812 0.046875 0.691406 0.0351562 0.546875 0.015625 C 0.410156 0.00390625 0.316406 -0.03125 0.265625 -0.09375 C 0.210938 -0.15625 0.191406 -0.238281 0.203125 -0.34375 C 0.222656 -0.457031 0.265625 -0.609375 0.328125 -0.796875 L 3.515625 -9.953125 C 3.546875 -10.046875 3.582031 -10.117188 3.625 -10.171875 C 3.664062 -10.234375 3.734375 -10.273438 3.828125 -10.296875 C 3.921875 -10.328125 4.050781 -10.347656 4.21875 -10.359375 C 4.382812 -10.367188 4.601562 -10.375 4.875 -10.375 C 5.1875 -10.375 5.429688 -10.367188 5.609375 -10.359375 C 5.796875 -10.347656 5.941406 -10.328125 6.046875 -10.296875 C 6.148438 -10.273438 6.222656 -10.234375 6.265625 -10.171875 C 6.316406 -10.117188 6.359375 -10.039062 6.390625 -9.9375 Z M 4.84375 -8.359375 L 3.375 -3.96875 L 6.296875 -3.96875 Z M 4.84375 -8.359375 "/></g></g></g><g fill="#94666b" fill-opacity="1"><g transform="translate(177.91414, 115.637596)"><g><path d="M 5.734375 -2.15625 C 5.734375 -1.789062 5.664062 -1.460938 5.53125 -1.171875 C 5.394531 -0.878906 5.203125 -0.632812 4.953125 -0.4375 C 4.703125 -0.25 4.398438 -0.101562 4.046875 0 C 3.703125 0.101562 3.320312 0.15625 2.90625 0.15625 C 2.65625 0.15625 2.410156 0.132812 2.171875 0.09375 C 1.941406 0.0507812 1.734375 0 1.546875 -0.0625 C 1.367188 -0.125 1.21875 -0.1875 1.09375 -0.25 C 0.96875 -0.3125 0.875 -0.367188 0.8125 -0.421875 C 0.75 -0.484375 0.703125 -0.5625 0.671875 -0.65625 C 0.648438 -0.75 0.640625 -0.878906 0.640625 -1.046875 C 0.640625 -1.148438 0.644531 -1.234375 0.65625 -1.296875 C 0.664062 -1.367188 0.675781 -1.425781 0.6875 -1.46875 C 0.707031 -1.507812 0.734375 -1.539062 0.765625 -1.5625 C 0.796875 -1.582031 0.832031 -1.59375 0.875 -1.59375 C 0.925781 -1.59375 1.007812 -1.554688 1.125 -1.484375 C 1.238281 -1.410156 1.378906 -1.332031 1.546875 -1.25 C 1.710938 -1.164062 1.910156 -1.085938 2.140625 -1.015625 C 2.367188 -0.941406 2.632812 -0.90625 2.9375 -0.90625 C 3.15625 -0.90625 3.351562 -0.925781 3.53125 -0.96875 C 3.71875 -1.019531 3.878906 -1.09375 4.015625 -1.1875 C 4.148438 -1.28125 4.25 -1.394531 4.3125 -1.53125 C 4.382812 -1.675781 4.421875 -1.847656 4.421875 -2.046875 C 4.421875 -2.253906 4.367188 -2.425781 4.265625 -2.5625 C 4.171875 -2.695312 4.035156 -2.816406 3.859375 -2.921875 C 3.691406 -3.035156 3.5 -3.128906 3.28125 -3.203125 C 3.070312 -3.285156 2.851562 -3.375 2.625 -3.46875 C 2.40625 -3.5625 2.1875 -3.664062 1.96875 -3.78125 C 1.75 -3.894531 1.554688 -4.03125 1.390625 -4.1875 C 1.222656 -4.351562 1.085938 -4.550781 0.984375 -4.78125 C 0.878906 -5.007812 0.828125 -5.285156 0.828125 -5.609375 C 0.828125 -5.890625 0.878906 -6.160156 0.984375 -6.421875 C 1.097656 -6.679688 1.257812 -6.90625 1.46875 -7.09375 C 1.6875 -7.289062 1.957031 -7.445312 2.28125 -7.5625 C 2.613281 -7.675781 3 -7.734375 3.4375 -7.734375 C 3.632812 -7.734375 3.828125 -7.71875 4.015625 -7.6875 C 4.203125 -7.65625 4.375 -7.613281 4.53125 -7.5625 C 4.6875 -7.519531 4.816406 -7.46875 4.921875 -7.40625 C 5.035156 -7.351562 5.117188 -7.304688 5.171875 -7.265625 C 5.234375 -7.222656 5.269531 -7.1875 5.28125 -7.15625 C 5.300781 -7.125 5.316406 -7.085938 5.328125 -7.046875 C 5.335938 -7.003906 5.34375 -6.953125 5.34375 -6.890625 C 5.351562 -6.835938 5.359375 -6.769531 5.359375 -6.6875 C 5.359375 -6.59375 5.351562 -6.515625 5.34375 -6.453125 C 5.34375 -6.390625 5.332031 -6.332031 5.3125 -6.28125 C 5.289062 -6.238281 5.265625 -6.207031 5.234375 -6.1875 C 5.210938 -6.175781 5.1875 -6.171875 5.15625 -6.171875 C 5.101562 -6.171875 5.03125 -6.195312 4.9375 -6.25 C 4.851562 -6.3125 4.738281 -6.375 4.59375 -6.4375 C 4.445312 -6.507812 4.273438 -6.570312 4.078125 -6.625 C 3.890625 -6.6875 3.671875 -6.71875 3.421875 -6.71875 C 3.203125 -6.71875 3.003906 -6.691406 2.828125 -6.640625 C 2.660156 -6.585938 2.519531 -6.515625 2.40625 -6.421875 C 2.300781 -6.328125 2.21875 -6.21875 2.15625 -6.09375 C 2.101562 -5.96875 2.078125 -5.832031 2.078125 -5.6875 C 2.078125 -5.476562 2.128906 -5.300781 2.234375 -5.15625 C 2.347656 -5.019531 2.488281 -4.894531 2.65625 -4.78125 C 2.820312 -4.675781 3.015625 -4.582031 3.234375 -4.5 C 3.453125 -4.414062 3.675781 -4.328125 3.90625 -4.234375 C 4.132812 -4.148438 4.359375 -4.050781 4.578125 -3.9375 C 4.796875 -3.820312 4.988281 -3.679688 5.15625 -3.515625 C 5.332031 -3.359375 5.472656 -3.171875 5.578125 -2.953125 C 5.679688 -2.734375 5.734375 -2.46875 5.734375 -2.15625 Z M 5.734375 -2.15625 "/></g></g><g transform="translate(184.303362, 115.637596)"><g><path d="M 5.734375 -2.15625 C 5.734375 -1.789062 5.664062 -1.460938 5.53125 -1.171875 C 5.394531 -0.878906 5.203125 -0.632812 4.953125 -0.4375 C 4.703125 -0.25 4.398438 -0.101562 4.046875 0 C 3.703125 0.101562 3.320312 0.15625 2.90625 0.15625 C 2.65625 0.15625 2.410156 0.132812 2.171875 0.09375 C 1.941406 0.0507812 1.734375 0 1.546875 -0.0625 C 1.367188 -0.125 1.21875 -0.1875 1.09375 -0.25 C 0.96875 -0.3125 0.875 -0.367188 0.8125 -0.421875 C 0.75 -0.484375 0.703125 -0.5625 0.671875 -0.65625 C 0.648438 -0.75 0.640625 -0.878906 0.640625 -1.046875 C 0.640625 -1.148438 0.644531 -1.234375 0.65625 -1.296875 C 0.664062 -1.367188 0.675781 -1.425781 0.6875 -1.46875 C 0.707031 -1.507812 0.734375 -1.539062 0.765625 -1.5625 C 0.796875 -1.582031 0.832031 -1.59375 0.875 -1.59375 C 0.925781 -1.59375 1.007812 -1.554688 1.125 -1.484375 C 1.238281 -1.410156 1.378906 -1.332031 1.546875 -1.25 C 1.710938 -1.164062 1.910156 -1.085938 2.140625 -1.015625 C 2.367188 -0.941406 2.632812 -0.90625 2.9375 -0.90625 C 3.15625 -0.90625 3.351562 -0.925781 3.53125 -0.96875 C 3.71875 -1.019531 3.878906 -1.09375 4.015625 -1.1875 C 4.148438 -1.28125 4.25 -1.394531 4.3125 -1.53125 C 4.382812 -1.675781 4.421875 -1.847656 4.421875 -2.046875 C 4.421875 -2.253906 4.367188 -2.425781 4.265625 -2.5625 C 4.171875 -2.695312 4.035156 -2.816406 3.859375 -2.921875 C 3.691406 -3.035156 3.5 -3.128906 3.28125 -3.203125 C 3.070312 -3.285156 2.851562 -3.375 2.625 -3.46875 C 2.40625 -3.5625 2.1875 -3.664062 1.96875 -3.78125 C 1.75 -3.894531 1.554688 -4.03125 1.390625 -4.1875 C 1.222656 -4.351562 1.085938 -4.550781 0.984375 -4.78125 C 0.878906 -5.007812 0.828125 -5.285156 0.828125 -5.609375 C 0.828125 -5.890625 0.878906 -6.160156 0.984375 -6.421875 C 1.097656 -6.679688 1.257812 -6.90625 1.46875 -7.09375 C 1.6875 -7.289062 1.957031 -7.445312 2.28125 -7.5625 C 2.613281 -7.675781 3 -7.734375 3.4375 -7.734375 C 3.632812 -7.734375 3.828125 -7.71875 4.015625 -7.6875 C 4.203125 -7.65625 4.375 -7.613281 4.53125 -7.5625 C 4.6875 -7.519531 4.816406 -7.46875 4.921875 -7.40625 C 5.035156 -7.351562 5.117188 -7.304688 5.171875 -7.265625 C 5.234375 -7.222656 5.269531 -7.1875 5.28125 -7.15625 C 5.300781 -7.125 5.316406 -7.085938 5.328125 -7.046875 C 5.335938 -7.003906 5.34375 -6.953125 5.34375 -6.890625 C 5.351562 -6.835938 5.359375 -6.769531 5.359375 -6.6875 C 5.359375 -6.59375 5.351562 -6.515625 5.34375 -6.453125 C 5.34375 -6.390625 5.332031 -6.332031 5.3125 -6.28125 C 5.289062 -6.238281 5.265625 -6.207031 5.234375 -6.1875 C 5.210938 -6.175781 5.1875 -6.171875 5.15625 -6.171875 C 5.101562 -6.171875 5.03125 -6.195312 4.9375 -6.25 C 4.851562 -6.3125 4.738281 -6.375 4.59375 -6.4375 C 4.445312 -6.507812 4.273438 -6.570312 4.078125 -6.625 C 3.890625 -6.6875 3.671875 -6.71875 3.421875 -6.71875 C 3.203125 -6.71875 3.003906 -6.691406 2.828125 -6.640625 C 2.660156 -6.585938 2.519531 -6.515625 2.40625 -6.421875 C 2.300781 -6.328125 2.21875 -6.21875 2.15625 -6.09375 C 2.101562 -5.96875 2.078125 -5.832031 2.078125 -5.6875 C 2.078125 -5.476562 2.128906 -5.300781 2.234375 -5.15625 C 2.347656 -5.019531 2.488281 -4.894531 2.65625 -4.78125 C 2.820312 -4.675781 3.015625 -4.582031 3.234375 -4.5 C 3.453125 -4.414062 3.675781 -4.328125 3.90625 -4.234375 C 4.132812 -4.148438 4.359375 -4.050781 4.578125 -3.9375 C 4.796875 -3.820312 4.988281 -3.679688 5.15625 -3.515625 C 5.332031 -3.359375 5.472656 -3.171875 5.578125 -2.953125 C 5.679688 -2.734375 5.734375 -2.46875 5.734375 -2.15625 Z M 5.734375 -2.15625 "/></g></g><g transform="translate(190.692583, 115.637596)"><g><path d="M 7.34375 -4.109375 C 7.34375 -3.898438 7.289062 -3.75 7.1875 -3.65625 C 7.082031 -3.570312 6.96875 -3.53125 6.84375 -3.53125 L 2.125 -3.53125 C 2.125 -3.125 2.164062 -2.757812 2.25 -2.4375 C 2.332031 -2.125 2.460938 -1.851562 2.640625 -1.625 C 2.828125 -1.394531 3.070312 -1.21875 3.375 -1.09375 C 3.675781 -0.976562 4.039062 -0.921875 4.46875 -0.921875 C 4.8125 -0.921875 5.113281 -0.945312 5.375 -1 C 5.644531 -1.050781 5.875 -1.113281 6.0625 -1.1875 C 6.257812 -1.257812 6.421875 -1.320312 6.546875 -1.375 C 6.671875 -1.425781 6.765625 -1.453125 6.828125 -1.453125 C 6.867188 -1.453125 6.898438 -1.441406 6.921875 -1.421875 C 6.953125 -1.410156 6.972656 -1.382812 6.984375 -1.34375 C 7.003906 -1.3125 7.019531 -1.257812 7.03125 -1.1875 C 7.039062 -1.125 7.046875 -1.046875 7.046875 -0.953125 C 7.046875 -0.878906 7.039062 -0.816406 7.03125 -0.765625 C 7.03125 -0.710938 7.023438 -0.664062 7.015625 -0.625 C 7.003906 -0.59375 6.988281 -0.5625 6.96875 -0.53125 C 6.957031 -0.5 6.9375 -0.46875 6.90625 -0.4375 C 6.875 -0.40625 6.785156 -0.351562 6.640625 -0.28125 C 6.503906 -0.21875 6.320312 -0.15625 6.09375 -0.09375 C 5.863281 -0.03125 5.597656 0.0234375 5.296875 0.078125 C 4.992188 0.128906 4.671875 0.15625 4.328125 0.15625 C 3.742188 0.15625 3.226562 0.0703125 2.78125 -0.09375 C 2.332031 -0.257812 1.957031 -0.503906 1.65625 -0.828125 C 1.351562 -1.148438 1.125 -1.554688 0.96875 -2.046875 C 0.8125 -2.535156 0.734375 -3.109375 0.734375 -3.765625 C 0.734375 -4.378906 0.8125 -4.929688 0.96875 -5.421875 C 1.132812 -5.910156 1.367188 -6.328125 1.671875 -6.671875 C 1.972656 -7.015625 2.335938 -7.273438 2.765625 -7.453125 C 3.191406 -7.640625 3.664062 -7.734375 4.1875 -7.734375 C 4.75 -7.734375 5.226562 -7.644531 5.625 -7.46875 C 6.019531 -7.289062 6.34375 -7.046875 6.59375 -6.734375 C 6.851562 -6.429688 7.039062 -6.070312 7.15625 -5.65625 C 7.28125 -5.25 7.34375 -4.8125 7.34375 -4.34375 Z M 6.03125 -4.5 C 6.039062 -5.1875 5.882812 -5.726562 5.5625 -6.125 C 5.238281 -6.519531 4.765625 -6.71875 4.140625 -6.71875 C 3.804688 -6.71875 3.515625 -6.65625 3.265625 -6.53125 C 3.023438 -6.40625 2.820312 -6.238281 2.65625 -6.03125 C 2.5 -5.832031 2.375 -5.597656 2.28125 -5.328125 C 2.1875 -5.066406 2.132812 -4.789062 2.125 -4.5 Z M 6.03125 -4.5 "/></g></g><g transform="translate(198.820694, 115.637596)"><g><path d="M 5.734375 -2.15625 C 5.734375 -1.789062 5.664062 -1.460938 5.53125 -1.171875 C 5.394531 -0.878906 5.203125 -0.632812 4.953125 -0.4375 C 4.703125 -0.25 4.398438 -0.101562 4.046875 0 C 3.703125 0.101562 3.320312 0.15625 2.90625 0.15625 C 2.65625 0.15625 2.410156 0.132812 2.171875 0.09375 C 1.941406 0.0507812 1.734375 0 1.546875 -0.0625 C 1.367188 -0.125 1.21875 -0.1875 1.09375 -0.25 C 0.96875 -0.3125 0.875 -0.367188 0.8125 -0.421875 C 0.75 -0.484375 0.703125 -0.5625 0.671875 -0.65625 C 0.648438 -0.75 0.640625 -0.878906 0.640625 -1.046875 C 0.640625 -1.148438 0.644531 -1.234375 0.65625 -1.296875 C 0.664062 -1.367188 0.675781 -1.425781 0.6875 -1.46875 C 0.707031 -1.507812 0.734375 -1.539062 0.765625 -1.5625 C 0.796875 -1.582031 0.832031 -1.59375 0.875 -1.59375 C 0.925781 -1.59375 1.007812 -1.554688 1.125 -1.484375 C 1.238281 -1.410156 1.378906 -1.332031 1.546875 -1.25 C 1.710938 -1.164062 1.910156 -1.085938 2.140625 -1.015625 C 2.367188 -0.941406 2.632812 -0.90625 2.9375 -0.90625 C 3.15625 -0.90625 3.351562 -0.925781 3.53125 -0.96875 C 3.71875 -1.019531 3.878906 -1.09375 4.015625 -1.1875 C 4.148438 -1.28125 4.25 -1.394531 4.3125 -1.53125 C 4.382812 -1.675781 4.421875 -1.847656 4.421875 -2.046875 C 4.421875 -2.253906 4.367188 -2.425781 4.265625 -2.5625 C 4.171875 -2.695312 4.035156 -2.816406 3.859375 -2.921875 C 3.691406 -3.035156 3.5 -3.128906 3.28125 -3.203125 C 3.070312 -3.285156 2.851562 -3.375 2.625 -3.46875 C 2.40625 -3.5625 2.1875 -3.664062 1.96875 -3.78125 C 1.75 -3.894531 1.554688 -4.03125 1.390625 -4.1875 C 1.222656 -4.351562 1.085938 -4.550781 0.984375 -4.78125 C 0.878906 -5.007812 0.828125 -5.285156 0.828125 -5.609375 C 0.828125 -5.890625 0.878906 -6.160156 0.984375 -6.421875 C 1.097656 -6.679688 1.257812 -6.90625 1.46875 -7.09375 C 1.6875 -7.289062 1.957031 -7.445312 2.28125 -7.5625 C 2.613281 -7.675781 3 -7.734375 3.4375 -7.734375 C 3.632812 -7.734375 3.828125 -7.71875 4.015625 -7.6875 C 4.203125 -7.65625 4.375 -7.613281 4.53125 -7.5625 C 4.6875 -7.519531 4.816406 -7.46875 4.921875 -7.40625 C 5.035156 -7.351562 5.117188 -7.304688 5.171875 -7.265625 C 5.234375 -7.222656 5.269531 -7.1875 5.28125 -7.15625 C 5.300781 -7.125 5.316406 -7.085938 5.328125 -7.046875 C 5.335938 -7.003906 5.34375 -6.953125 5.34375 -6.890625 C 5.351562 -6.835938 5.359375 -6.769531 5.359375 -6.6875 C 5.359375 -6.59375 5.351562 -6.515625 5.34375 -6.453125 C 5.34375 -6.390625 5.332031 -6.332031 5.3125 -6.28125 C 5.289062 -6.238281 5.265625 -6.207031 5.234375 -6.1875 C 5.210938 -6.175781 5.1875 -6.171875 5.15625 -6.171875 C 5.101562 -6.171875 5.03125 -6.195312 4.9375 -6.25 C 4.851562 -6.3125 4.738281 -6.375 4.59375 -6.4375 C 4.445312 -6.507812 4.273438 -6.570312 4.078125 -6.625 C 3.890625 -6.6875 3.671875 -6.71875 3.421875 -6.71875 C 3.203125 -6.71875 3.003906 -6.691406 2.828125 -6.640625 C 2.660156 -6.585938 2.519531 -6.515625 2.40625 -6.421875 C 2.300781 -6.328125 2.21875 -6.21875 2.15625 -6.09375 C 2.101562 -5.96875 2.078125 -5.832031 2.078125 -5.6875 C 2.078125 -5.476562 2.128906 -5.300781 2.234375 -5.15625 C 2.347656 -5.019531 2.488281 -4.894531 2.65625 -4.78125 C 2.820312 -4.675781 3.015625 -4.582031 3.234375 -4.5 C 3.453125 -4.414062 3.675781 -4.328125 3.90625 -4.234375 C 4.132812 -4.148438 4.359375 -4.050781 4.578125 -3.9375 C 4.796875 -3.820312 4.988281 -3.679688 5.15625 -3.515625 C 5.332031 -3.359375 5.472656 -3.171875 5.578125 -2.953125 C 5.679688 -2.734375 5.734375 -2.46875 5.734375 -2.15625 Z M 5.734375 -2.15625 "/></g></g><g transform="translate(205.209916, 115.637596)"><g><path d="M 5.734375 -2.15625 C 5.734375 -1.789062 5.664062 -1.460938 5.53125 -1.171875 C 5.394531 -0.878906 5.203125 -0.632812 4.953125 -0.4375 C 4.703125 -0.25 4.398438 -0.101562 4.046875 0 C 3.703125 0.101562 3.320312 0.15625 2.90625 0.15625 C 2.65625 0.15625 2.410156 0.132812 2.171875 0.09375 C 1.941406 0.0507812 1.734375 0 1.546875 -0.0625 C 1.367188 -0.125 1.21875 -0.1875 1.09375 -0.25 C 0.96875 -0.3125 0.875 -0.367188 0.8125 -0.421875 C 0.75 -0.484375 0.703125 -0.5625 0.671875 -0.65625 C 0.648438 -0.75 0.640625 -0.878906 0.640625 -1.046875 C 0.640625 -1.148438 0.644531 -1.234375 0.65625 -1.296875 C 0.664062 -1.367188 0.675781 -1.425781 0.6875 -1.46875 C 0.707031 -1.507812 0.734375 -1.539062 0.765625 -1.5625 C 0.796875 -1.582031 0.832031 -1.59375 0.875 -1.59375 C 0.925781 -1.59375 1.007812 -1.554688 1.125 -1.484375 C 1.238281 -1.410156 1.378906 -1.332031 1.546875 -1.25 C 1.710938 -1.164062 1.910156 -1.085938 2.140625 -1.015625 C 2.367188 -0.941406 2.632812 -0.90625 2.9375 -0.90625 C 3.15625 -0.90625 3.351562 -0.925781 3.53125 -0.96875 C 3.71875 -1.019531 3.878906 -1.09375 4.015625 -1.1875 C 4.148438 -1.28125 4.25 -1.394531 4.3125 -1.53125 C 4.382812 -1.675781 4.421875 -1.847656 4.421875 -2.046875 C 4.421875 -2.253906 4.367188 -2.425781 4.265625 -2.5625 C 4.171875 -2.695312 4.035156 -2.816406 3.859375 -2.921875 C 3.691406 -3.035156 3.5 -3.128906 3.28125 -3.203125 C 3.070312 -3.285156 2.851562 -3.375 2.625 -3.46875 C 2.40625 -3.5625 2.1875 -3.664062 1.96875 -3.78125 C 1.75 -3.894531 1.554688 -4.03125 1.390625 -4.1875 C 1.222656 -4.351562 1.085938 -4.550781 0.984375 -4.78125 C 0.878906 -5.007812 0.828125 -5.285156 0.828125 -5.609375 C 0.828125 -5.890625 0.878906 -6.160156 0.984375 -6.421875 C 1.097656 -6.679688 1.257812 -6.90625 1.46875 -7.09375 C 1.6875 -7.289062 1.957031 -7.445312 2.28125 -7.5625 C 2.613281 -7.675781 3 -7.734375 3.4375 -7.734375 C 3.632812 -7.734375 3.828125 -7.71875 4.015625 -7.6875 C 4.203125 -7.65625 4.375 -7.613281 4.53125 -7.5625 C 4.6875 -7.519531 4.816406 -7.46875 4.921875 -7.40625 C 5.035156 -7.351562 5.117188 -7.304688 5.171875 -7.265625 C 5.234375 -7.222656 5.269531 -7.1875 5.28125 -7.15625 C 5.300781 -7.125 5.316406 -7.085938 5.328125 -7.046875 C 5.335938 -7.003906 5.34375 -6.953125 5.34375 -6.890625 C 5.351562 -6.835938 5.359375 -6.769531 5.359375 -6.6875 C 5.359375 -6.59375 5.351562 -6.515625 5.34375 -6.453125 C 5.34375 -6.390625 5.332031 -6.332031 5.3125 -6.28125 C 5.289062 -6.238281 5.265625 -6.207031 5.234375 -6.1875 C 5.210938 -6.175781 5.1875 -6.171875 5.15625 -6.171875 C 5.101562 -6.171875 5.03125 -6.195312 4.9375 -6.25 C 4.851562 -6.3125 4.738281 -6.375 4.59375 -6.4375 C 4.445312 -6.507812 4.273438 -6.570312 4.078125 -6.625 C 3.890625 -6.6875 3.671875 -6.71875 3.421875 -6.71875 C 3.203125 -6.71875 3.003906 -6.691406 2.828125 -6.640625 C 2.660156 -6.585938 2.519531 -6.515625 2.40625 -6.421875 C 2.300781 -6.328125 2.21875 -6.21875 2.15625 -6.09375 C 2.101562 -5.96875 2.078125 -5.832031 2.078125 -5.6875 C 2.078125 -5.476562 2.128906 -5.300781 2.234375 -5.15625 C 2.347656 -5.019531 2.488281 -4.894531 2.65625 -4.78125 C 2.820312 -4.675781 3.015625 -4.582031 3.234375 -4.5 C 3.453125 -4.414062 3.675781 -4.328125 3.90625 -4.234375 C 4.132812 -4.148438 4.359375 -4.050781 4.578125 -3.9375 C 4.796875 -3.820312 4.988281 -3.679688 5.15625 -3.515625 C 5.332031 -3.359375 5.472656 -3.171875 5.578125 -2.953125 C 5.679688 -2.734375 5.734375 -2.46875 5.734375 -2.15625 Z M 5.734375 -2.15625 "/></g></g><g transform="translate(211.599138, 115.637596)"><g/></g></g><g fill="#7d343c" fill-opacity="1"><g transform="translate(215.295474, 115.637596)"><g><path d="M 5.296875 -3.921875 L 5.296875 -0.28125 C 5.296875 -0.226562 5.273438 -0.179688 5.234375 -0.140625 C 5.203125 -0.0976562 5.144531 -0.0625 5.0625 -0.03125 C 4.988281 -0.0078125 4.882812 0.00390625 4.75 0.015625 C 4.613281 0.0351562 4.445312 0.046875 4.25 0.046875 C 4.039062 0.046875 3.867188 0.0351562 3.734375 0.015625 C 3.597656 0.00390625 3.488281 -0.0078125 3.40625 -0.03125 C 3.320312 -0.0625 3.265625 -0.0976562 3.234375 -0.140625 C 3.203125 -0.179688 3.1875 -0.226562 3.1875 -0.28125 L 3.1875 -3.921875 L 0.359375 -9.546875 C 0.265625 -9.742188 0.203125 -9.894531 0.171875 -10 C 0.140625 -10.113281 0.15625 -10.195312 0.21875 -10.25 C 0.28125 -10.300781 0.394531 -10.332031 0.5625 -10.34375 C 0.726562 -10.363281 0.957031 -10.375 1.25 -10.375 C 1.488281 -10.375 1.679688 -10.367188 1.828125 -10.359375 C 1.972656 -10.347656 2.085938 -10.328125 2.171875 -10.296875 C 2.265625 -10.265625 2.328125 -10.222656 2.359375 -10.171875 C 2.398438 -10.128906 2.441406 -10.070312 2.484375 -10 L 3.625 -7.46875 C 3.738281 -7.21875 3.847656 -6.957031 3.953125 -6.6875 C 4.066406 -6.414062 4.179688 -6.128906 4.296875 -5.828125 L 4.3125 -5.828125 C 4.414062 -6.117188 4.519531 -6.398438 4.625 -6.671875 C 4.726562 -6.941406 4.832031 -7.203125 4.9375 -7.453125 L 6.0625 -9.96875 C 6.09375 -10.050781 6.125 -10.117188 6.15625 -10.171875 C 6.195312 -10.222656 6.257812 -10.265625 6.34375 -10.296875 C 6.425781 -10.328125 6.535156 -10.347656 6.671875 -10.359375 C 6.804688 -10.367188 6.988281 -10.375 7.21875 -10.375 C 7.519531 -10.375 7.753906 -10.363281 7.921875 -10.34375 C 8.097656 -10.332031 8.210938 -10.300781 8.265625 -10.25 C 8.328125 -10.195312 8.34375 -10.113281 8.3125 -10 C 8.28125 -9.882812 8.21875 -9.734375 8.125 -9.546875 Z M 5.296875 -3.921875 "/></g></g></g><g fill="#94666b" fill-opacity="1"><g transform="translate(223.782534, 115.637596)"><g><path d="M 7.90625 -3.875 C 7.90625 -3.289062 7.828125 -2.75 7.671875 -2.25 C 7.515625 -1.757812 7.28125 -1.335938 6.96875 -0.984375 C 6.664062 -0.628906 6.285156 -0.347656 5.828125 -0.140625 C 5.367188 0.0546875 4.835938 0.15625 4.234375 0.15625 C 3.640625 0.15625 3.125 0.0664062 2.6875 -0.109375 C 2.25 -0.285156 1.882812 -0.539062 1.59375 -0.875 C 1.300781 -1.207031 1.082031 -1.613281 0.9375 -2.09375 C 0.789062 -2.570312 0.71875 -3.117188 0.71875 -3.734375 C 0.71875 -4.316406 0.789062 -4.851562 0.9375 -5.34375 C 1.09375 -5.832031 1.320312 -6.253906 1.625 -6.609375 C 1.9375 -6.972656 2.320312 -7.25 2.78125 -7.4375 C 3.238281 -7.632812 3.769531 -7.734375 4.375 -7.734375 C 4.96875 -7.734375 5.484375 -7.644531 5.921875 -7.46875 C 6.359375 -7.300781 6.722656 -7.046875 7.015625 -6.703125 C 7.316406 -6.367188 7.539062 -5.960938 7.6875 -5.484375 C 7.832031 -5.003906 7.90625 -4.46875 7.90625 -3.875 Z M 6.515625 -3.78125 C 6.515625 -4.164062 6.476562 -4.53125 6.40625 -4.875 C 6.332031 -5.226562 6.210938 -5.535156 6.046875 -5.796875 C 5.878906 -6.054688 5.65625 -6.257812 5.375 -6.40625 C 5.09375 -6.5625 4.742188 -6.640625 4.328125 -6.640625 C 3.941406 -6.640625 3.609375 -6.566406 3.328125 -6.421875 C 3.046875 -6.285156 2.8125 -6.09375 2.625 -5.84375 C 2.445312 -5.59375 2.3125 -5.289062 2.21875 -4.9375 C 2.132812 -4.59375 2.09375 -4.21875 2.09375 -3.8125 C 2.09375 -3.414062 2.128906 -3.046875 2.203125 -2.703125 C 2.273438 -2.359375 2.394531 -2.054688 2.5625 -1.796875 C 2.726562 -1.535156 2.953125 -1.328125 3.234375 -1.171875 C 3.515625 -1.023438 3.867188 -0.953125 4.296875 -0.953125 C 4.679688 -0.953125 5.015625 -1.019531 5.296875 -1.15625 C 5.578125 -1.300781 5.804688 -1.5 5.984375 -1.75 C 6.160156 -2 6.289062 -2.296875 6.375 -2.640625 C 6.46875 -2.984375 6.515625 -3.363281 6.515625 -3.78125 Z M 6.515625 -3.78125 "/></g></g><g transform="translate(232.397215, 115.637596)"><g><path d="M 7.375 -0.203125 C 7.375 -0.160156 7.363281 -0.125 7.34375 -0.09375 C 7.320312 -0.0625 7.285156 -0.0351562 7.234375 -0.015625 C 7.191406 0.00390625 7.128906 0.0195312 7.046875 0.03125 C 6.972656 0.0390625 6.882812 0.046875 6.78125 0.046875 C 6.65625 0.046875 6.550781 0.0390625 6.46875 0.03125 C 6.394531 0.0195312 6.332031 0.00390625 6.28125 -0.015625 C 6.238281 -0.0351562 6.207031 -0.0625 6.1875 -0.09375 C 6.175781 -0.125 6.171875 -0.160156 6.171875 -0.203125 L 6.171875 -1.15625 C 5.765625 -0.695312 5.359375 -0.363281 4.953125 -0.15625 C 4.554688 0.0507812 4.15625 0.15625 3.75 0.15625 C 3.269531 0.15625 2.863281 0.078125 2.53125 -0.078125 C 2.207031 -0.242188 1.941406 -0.460938 1.734375 -0.734375 C 1.535156 -1.015625 1.394531 -1.335938 1.3125 -1.703125 C 1.226562 -2.066406 1.1875 -2.507812 1.1875 -3.03125 L 1.1875 -7.375 C 1.1875 -7.425781 1.191406 -7.460938 1.203125 -7.484375 C 1.222656 -7.515625 1.257812 -7.539062 1.3125 -7.5625 C 1.363281 -7.59375 1.429688 -7.609375 1.515625 -7.609375 C 1.609375 -7.617188 1.71875 -7.625 1.84375 -7.625 C 1.96875 -7.625 2.070312 -7.617188 2.15625 -7.609375 C 2.25 -7.609375 2.316406 -7.59375 2.359375 -7.5625 C 2.410156 -7.539062 2.445312 -7.515625 2.46875 -7.484375 C 2.488281 -7.460938 2.5 -7.425781 2.5 -7.375 L 2.5 -3.203125 C 2.5 -2.773438 2.53125 -2.4375 2.59375 -2.1875 C 2.65625 -1.9375 2.75 -1.722656 2.875 -1.546875 C 3 -1.367188 3.15625 -1.226562 3.34375 -1.125 C 3.539062 -1.03125 3.765625 -0.984375 4.015625 -0.984375 C 4.347656 -0.984375 4.675781 -1.097656 5 -1.328125 C 5.332031 -1.566406 5.679688 -1.910156 6.046875 -2.359375 L 6.046875 -7.375 C 6.046875 -7.425781 6.054688 -7.460938 6.078125 -7.484375 C 6.097656 -7.515625 6.132812 -7.539062 6.1875 -7.5625 C 6.238281 -7.59375 6.304688 -7.609375 6.390625 -7.609375 C 6.472656 -7.617188 6.582031 -7.625 6.71875 -7.625 C 6.84375 -7.625 6.945312 -7.617188 7.03125 -7.609375 C 7.113281 -7.609375 7.175781 -7.59375 7.21875 -7.5625 C 7.269531 -7.539062 7.304688 -7.515625 7.328125 -7.484375 C 7.359375 -7.460938 7.375 -7.425781 7.375 -7.375 Z M 7.375 -0.203125 "/></g></g><g transform="translate(240.97999, 115.637596)"><g><path d="M 5.421875 -6.90625 C 5.421875 -6.789062 5.414062 -6.691406 5.40625 -6.609375 C 5.40625 -6.535156 5.394531 -6.472656 5.375 -6.421875 C 5.363281 -6.378906 5.34375 -6.34375 5.3125 -6.3125 C 5.289062 -6.289062 5.257812 -6.28125 5.21875 -6.28125 C 5.175781 -6.28125 5.125 -6.289062 5.0625 -6.3125 C 5 -6.34375 4.925781 -6.367188 4.84375 -6.390625 C 4.769531 -6.421875 4.6875 -6.445312 4.59375 -6.46875 C 4.5 -6.488281 4.394531 -6.5 4.28125 -6.5 C 4.15625 -6.5 4.023438 -6.472656 3.890625 -6.421875 C 3.765625 -6.367188 3.628906 -6.28125 3.484375 -6.15625 C 3.347656 -6.03125 3.203125 -5.863281 3.046875 -5.65625 C 2.890625 -5.457031 2.71875 -5.210938 2.53125 -4.921875 L 2.53125 -0.203125 C 2.53125 -0.160156 2.519531 -0.125 2.5 -0.09375 C 2.476562 -0.0625 2.441406 -0.0351562 2.390625 -0.015625 C 2.347656 0.00390625 2.285156 0.0195312 2.203125 0.03125 C 2.117188 0.0390625 2.007812 0.046875 1.875 0.046875 C 1.75 0.046875 1.640625 0.0390625 1.546875 0.03125 C 1.460938 0.0195312 1.394531 0.00390625 1.34375 -0.015625 C 1.300781 -0.0351562 1.269531 -0.0625 1.25 -0.09375 C 1.226562 -0.125 1.21875 -0.160156 1.21875 -0.203125 L 1.21875 -7.375 C 1.21875 -7.425781 1.222656 -7.460938 1.234375 -7.484375 C 1.253906 -7.515625 1.285156 -7.539062 1.328125 -7.5625 C 1.378906 -7.59375 1.441406 -7.609375 1.515625 -7.609375 C 1.597656 -7.617188 1.695312 -7.625 1.8125 -7.625 C 1.9375 -7.625 2.035156 -7.617188 2.109375 -7.609375 C 2.179688 -7.609375 2.238281 -7.59375 2.28125 -7.5625 C 2.332031 -7.539062 2.363281 -7.515625 2.375 -7.484375 C 2.394531 -7.460938 2.40625 -7.425781 2.40625 -7.375 L 2.40625 -6.34375 C 2.601562 -6.625 2.785156 -6.851562 2.953125 -7.03125 C 3.128906 -7.21875 3.296875 -7.363281 3.453125 -7.46875 C 3.609375 -7.570312 3.757812 -7.640625 3.90625 -7.671875 C 4.0625 -7.710938 4.21875 -7.734375 4.375 -7.734375 C 4.445312 -7.734375 4.523438 -7.726562 4.609375 -7.71875 C 4.691406 -7.71875 4.78125 -7.707031 4.875 -7.6875 C 4.976562 -7.664062 5.066406 -7.640625 5.140625 -7.609375 C 5.222656 -7.585938 5.28125 -7.5625 5.3125 -7.53125 C 5.34375 -7.507812 5.363281 -7.484375 5.375 -7.453125 C 5.382812 -7.429688 5.390625 -7.398438 5.390625 -7.359375 C 5.398438 -7.328125 5.40625 -7.273438 5.40625 -7.203125 C 5.414062 -7.128906 5.421875 -7.03125 5.421875 -6.90625 Z M 5.421875 -6.90625 "/></g></g><g transform="translate(246.675251, 115.637596)"><g/></g></g><g fill="#7d343c" fill-opacity="1"><g transform="translate(250.379563, 115.637596)"><g><path d="M 7.25 -3.09375 C 7.25 -2.550781 7.144531 -2.070312 6.9375 -1.65625 C 6.738281 -1.25 6.46875 -0.910156 6.125 -0.640625 C 5.78125 -0.367188 5.375 -0.160156 4.90625 -0.015625 C 4.445312 0.117188 3.953125 0.1875 3.421875 0.1875 C 3.066406 0.1875 2.734375 0.15625 2.421875 0.09375 C 2.117188 0.0390625 1.847656 -0.0234375 1.609375 -0.109375 C 1.378906 -0.191406 1.1875 -0.28125 1.03125 -0.375 C 0.875 -0.46875 0.757812 -0.546875 0.6875 -0.609375 C 0.625 -0.679688 0.578125 -0.78125 0.546875 -0.90625 C 0.515625 -1.039062 0.5 -1.226562 0.5 -1.46875 C 0.5 -1.632812 0.503906 -1.773438 0.515625 -1.890625 C 0.523438 -2.003906 0.539062 -2.09375 0.5625 -2.15625 C 0.59375 -2.226562 0.625 -2.28125 0.65625 -2.3125 C 0.695312 -2.34375 0.75 -2.359375 0.8125 -2.359375 C 0.882812 -2.359375 0.988281 -2.3125 1.125 -2.21875 C 1.257812 -2.132812 1.429688 -2.035156 1.640625 -1.921875 C 1.859375 -1.816406 2.113281 -1.722656 2.40625 -1.640625 C 2.695312 -1.554688 3.039062 -1.515625 3.4375 -1.515625 C 3.6875 -1.515625 3.910156 -1.539062 4.109375 -1.59375 C 4.316406 -1.65625 4.488281 -1.742188 4.625 -1.859375 C 4.769531 -1.972656 4.878906 -2.109375 4.953125 -2.265625 C 5.023438 -2.429688 5.0625 -2.617188 5.0625 -2.828125 C 5.0625 -3.054688 5 -3.253906 4.875 -3.421875 C 4.75 -3.585938 4.582031 -3.734375 4.375 -3.859375 C 4.164062 -3.992188 3.929688 -4.117188 3.671875 -4.234375 C 3.410156 -4.347656 3.140625 -4.46875 2.859375 -4.59375 C 2.585938 -4.726562 2.320312 -4.875 2.0625 -5.03125 C 1.800781 -5.195312 1.566406 -5.394531 1.359375 -5.625 C 1.160156 -5.851562 0.992188 -6.117188 0.859375 -6.421875 C 0.734375 -6.734375 0.671875 -7.101562 0.671875 -7.53125 C 0.671875 -8.03125 0.765625 -8.46875 0.953125 -8.84375 C 1.140625 -9.21875 1.382812 -9.523438 1.6875 -9.765625 C 2 -10.015625 2.367188 -10.203125 2.796875 -10.328125 C 3.222656 -10.453125 3.671875 -10.515625 4.140625 -10.515625 C 4.390625 -10.515625 4.632812 -10.492188 4.875 -10.453125 C 5.125 -10.410156 5.351562 -10.359375 5.5625 -10.296875 C 5.769531 -10.234375 5.957031 -10.160156 6.125 -10.078125 C 6.289062 -10.003906 6.398438 -9.941406 6.453125 -9.890625 C 6.503906 -9.835938 6.539062 -9.789062 6.5625 -9.75 C 6.582031 -9.71875 6.597656 -9.671875 6.609375 -9.609375 C 6.617188 -9.546875 6.625 -9.46875 6.625 -9.375 C 6.632812 -9.28125 6.640625 -9.164062 6.640625 -9.03125 C 6.640625 -8.875 6.632812 -8.738281 6.625 -8.625 C 6.625 -8.519531 6.613281 -8.429688 6.59375 -8.359375 C 6.570312 -8.296875 6.546875 -8.25 6.515625 -8.21875 C 6.484375 -8.1875 6.4375 -8.171875 6.375 -8.171875 C 6.3125 -8.171875 6.21875 -8.207031 6.09375 -8.28125 C 5.96875 -8.351562 5.8125 -8.429688 5.625 -8.515625 C 5.4375 -8.609375 5.21875 -8.691406 4.96875 -8.765625 C 4.726562 -8.835938 4.460938 -8.875 4.171875 -8.875 C 3.941406 -8.875 3.738281 -8.84375 3.5625 -8.78125 C 3.394531 -8.726562 3.253906 -8.648438 3.140625 -8.546875 C 3.035156 -8.453125 2.953125 -8.335938 2.890625 -8.203125 C 2.835938 -8.066406 2.8125 -7.921875 2.8125 -7.765625 C 2.8125 -7.535156 2.875 -7.335938 3 -7.171875 C 3.125 -7.003906 3.289062 -6.851562 3.5 -6.71875 C 3.707031 -6.59375 3.941406 -6.472656 4.203125 -6.359375 C 4.472656 -6.242188 4.742188 -6.117188 5.015625 -5.984375 C 5.296875 -5.859375 5.566406 -5.710938 5.828125 -5.546875 C 6.097656 -5.390625 6.335938 -5.195312 6.546875 -4.96875 C 6.753906 -4.75 6.921875 -4.484375 7.046875 -4.171875 C 7.179688 -3.867188 7.25 -3.507812 7.25 -3.09375 Z M 7.25 -3.09375 "/></g></g></g><g fill="#94666b" fill-opacity="1"><g transform="translate(258.100866, 115.637596)"><g><path d="M 4.953125 -0.71875 C 4.953125 -0.570312 4.941406 -0.453125 4.921875 -0.359375 C 4.898438 -0.265625 4.867188 -0.195312 4.828125 -0.15625 C 4.785156 -0.113281 4.722656 -0.0703125 4.640625 -0.03125 C 4.554688 0 4.457031 0.0234375 4.34375 0.046875 C 4.238281 0.078125 4.125 0.0976562 4 0.109375 C 3.875 0.128906 3.75 0.140625 3.625 0.140625 C 3.257812 0.140625 2.941406 0.09375 2.671875 0 C 2.410156 -0.101562 2.191406 -0.253906 2.015625 -0.453125 C 1.847656 -0.660156 1.722656 -0.914062 1.640625 -1.21875 C 1.566406 -1.519531 1.53125 -1.878906 1.53125 -2.296875 L 1.53125 -6.5 L 0.53125 -6.5 C 0.445312 -6.5 0.378906 -6.539062 0.328125 -6.625 C 0.285156 -6.707031 0.265625 -6.84375 0.265625 -7.03125 C 0.265625 -7.132812 0.269531 -7.21875 0.28125 -7.28125 C 0.289062 -7.351562 0.304688 -7.410156 0.328125 -7.453125 C 0.347656 -7.503906 0.375 -7.539062 0.40625 -7.5625 C 0.445312 -7.582031 0.488281 -7.59375 0.53125 -7.59375 L 1.53125 -7.59375 L 1.53125 -9.296875 C 1.53125 -9.335938 1.539062 -9.375 1.5625 -9.40625 C 1.582031 -9.4375 1.613281 -9.460938 1.65625 -9.484375 C 1.707031 -9.503906 1.773438 -9.519531 1.859375 -9.53125 C 1.953125 -9.539062 2.0625 -9.546875 2.1875 -9.546875 C 2.320312 -9.546875 2.429688 -9.539062 2.515625 -9.53125 C 2.597656 -9.519531 2.660156 -9.503906 2.703125 -9.484375 C 2.753906 -9.460938 2.789062 -9.4375 2.8125 -9.40625 C 2.832031 -9.375 2.84375 -9.335938 2.84375 -9.296875 L 2.84375 -7.59375 L 4.6875 -7.59375 C 4.726562 -7.59375 4.765625 -7.582031 4.796875 -7.5625 C 4.835938 -7.539062 4.867188 -7.503906 4.890625 -7.453125 C 4.910156 -7.410156 4.925781 -7.351562 4.9375 -7.28125 C 4.945312 -7.21875 4.953125 -7.132812 4.953125 -7.03125 C 4.953125 -6.84375 4.925781 -6.707031 4.875 -6.625 C 4.832031 -6.539062 4.769531 -6.5 4.6875 -6.5 L 2.84375 -6.5 L 2.84375 -2.484375 C 2.84375 -1.992188 2.914062 -1.617188 3.0625 -1.359375 C 3.207031 -1.109375 3.472656 -0.984375 3.859375 -0.984375 C 3.972656 -0.984375 4.078125 -0.992188 4.171875 -1.015625 C 4.273438 -1.046875 4.363281 -1.070312 4.4375 -1.09375 C 4.507812 -1.125 4.570312 -1.148438 4.625 -1.171875 C 4.675781 -1.203125 4.722656 -1.21875 4.765625 -1.21875 C 4.796875 -1.21875 4.820312 -1.207031 4.84375 -1.1875 C 4.875 -1.175781 4.894531 -1.148438 4.90625 -1.109375 C 4.914062 -1.078125 4.925781 -1.03125 4.9375 -0.96875 C 4.945312 -0.90625 4.953125 -0.820312 4.953125 -0.71875 Z M 4.953125 -0.71875 "/></g></g><g transform="translate(263.572784, 115.637596)"><g><path d="M 6.625 -0.1875 C 6.625 -0.125 6.601562 -0.078125 6.5625 -0.046875 C 6.519531 -0.015625 6.460938 0.00390625 6.390625 0.015625 C 6.316406 0.0351562 6.207031 0.046875 6.0625 0.046875 C 5.925781 0.046875 5.816406 0.0351562 5.734375 0.015625 C 5.648438 0.00390625 5.585938 -0.015625 5.546875 -0.046875 C 5.515625 -0.078125 5.5 -0.125 5.5 -0.1875 L 5.5 -0.90625 C 5.1875 -0.570312 4.835938 -0.3125 4.453125 -0.125 C 4.066406 0.0625 3.65625 0.15625 3.21875 0.15625 C 2.84375 0.15625 2.5 0.101562 2.1875 0 C 1.882812 -0.09375 1.625 -0.234375 1.40625 -0.421875 C 1.195312 -0.609375 1.03125 -0.835938 0.90625 -1.109375 C 0.789062 -1.378906 0.734375 -1.6875 0.734375 -2.03125 C 0.734375 -2.4375 0.816406 -2.785156 0.984375 -3.078125 C 1.148438 -3.378906 1.382812 -3.628906 1.6875 -3.828125 C 2 -4.023438 2.378906 -4.171875 2.828125 -4.265625 C 3.273438 -4.367188 3.773438 -4.421875 4.328125 -4.421875 L 5.328125 -4.421875 L 5.328125 -4.984375 C 5.328125 -5.253906 5.296875 -5.492188 5.234375 -5.703125 C 5.171875 -5.921875 5.070312 -6.097656 4.9375 -6.234375 C 4.8125 -6.378906 4.644531 -6.488281 4.4375 -6.5625 C 4.238281 -6.632812 3.984375 -6.671875 3.671875 -6.671875 C 3.347656 -6.671875 3.054688 -6.628906 2.796875 -6.546875 C 2.546875 -6.472656 2.320312 -6.390625 2.125 -6.296875 C 1.925781 -6.203125 1.757812 -6.113281 1.625 -6.03125 C 1.5 -5.957031 1.40625 -5.921875 1.34375 -5.921875 C 1.300781 -5.921875 1.265625 -5.929688 1.234375 -5.953125 C 1.203125 -5.984375 1.175781 -6.019531 1.15625 -6.0625 C 1.132812 -6.101562 1.113281 -6.15625 1.09375 -6.21875 C 1.082031 -6.289062 1.078125 -6.363281 1.078125 -6.4375 C 1.078125 -6.570312 1.085938 -6.675781 1.109375 -6.75 C 1.128906 -6.832031 1.175781 -6.90625 1.25 -6.96875 C 1.320312 -7.039062 1.445312 -7.125 1.625 -7.21875 C 1.800781 -7.3125 2 -7.394531 2.21875 -7.46875 C 2.445312 -7.550781 2.695312 -7.613281 2.96875 -7.65625 C 3.25 -7.707031 3.523438 -7.734375 3.796875 -7.734375 C 4.316406 -7.734375 4.753906 -7.675781 5.109375 -7.5625 C 5.472656 -7.445312 5.765625 -7.273438 5.984375 -7.046875 C 6.210938 -6.828125 6.375 -6.546875 6.46875 -6.203125 C 6.570312 -5.867188 6.625 -5.476562 6.625 -5.03125 Z M 5.328125 -3.46875 L 4.203125 -3.46875 C 3.835938 -3.46875 3.519531 -3.4375 3.25 -3.375 C 2.988281 -3.3125 2.769531 -3.21875 2.59375 -3.09375 C 2.414062 -2.976562 2.285156 -2.835938 2.203125 -2.671875 C 2.117188 -2.503906 2.078125 -2.3125 2.078125 -2.09375 C 2.078125 -1.726562 2.195312 -1.429688 2.4375 -1.203125 C 2.675781 -0.984375 3.007812 -0.875 3.4375 -0.875 C 3.78125 -0.875 4.097656 -0.960938 4.390625 -1.140625 C 4.691406 -1.316406 5.003906 -1.585938 5.328125 -1.953125 Z M 5.328125 -3.46875 "/></g></g><g transform="translate(271.397786, 115.637596)"><g><path d="M 4.953125 -0.71875 C 4.953125 -0.570312 4.941406 -0.453125 4.921875 -0.359375 C 4.898438 -0.265625 4.867188 -0.195312 4.828125 -0.15625 C 4.785156 -0.113281 4.722656 -0.0703125 4.640625 -0.03125 C 4.554688 0 4.457031 0.0234375 4.34375 0.046875 C 4.238281 0.078125 4.125 0.0976562 4 0.109375 C 3.875 0.128906 3.75 0.140625 3.625 0.140625 C 3.257812 0.140625 2.941406 0.09375 2.671875 0 C 2.410156 -0.101562 2.191406 -0.253906 2.015625 -0.453125 C 1.847656 -0.660156 1.722656 -0.914062 1.640625 -1.21875 C 1.566406 -1.519531 1.53125 -1.878906 1.53125 -2.296875 L 1.53125 -6.5 L 0.53125 -6.5 C 0.445312 -6.5 0.378906 -6.539062 0.328125 -6.625 C 0.285156 -6.707031 0.265625 -6.84375 0.265625 -7.03125 C 0.265625 -7.132812 0.269531 -7.21875 0.28125 -7.28125 C 0.289062 -7.351562 0.304688 -7.410156 0.328125 -7.453125 C 0.347656 -7.503906 0.375 -7.539062 0.40625 -7.5625 C 0.445312 -7.582031 0.488281 -7.59375 0.53125 -7.59375 L 1.53125 -7.59375 L 1.53125 -9.296875 C 1.53125 -9.335938 1.539062 -9.375 1.5625 -9.40625 C 1.582031 -9.4375 1.613281 -9.460938 1.65625 -9.484375 C 1.707031 -9.503906 1.773438 -9.519531 1.859375 -9.53125 C 1.953125 -9.539062 2.0625 -9.546875 2.1875 -9.546875 C 2.320312 -9.546875 2.429688 -9.539062 2.515625 -9.53125 C 2.597656 -9.519531 2.660156 -9.503906 2.703125 -9.484375 C 2.753906 -9.460938 2.789062 -9.4375 2.8125 -9.40625 C 2.832031 -9.375 2.84375 -9.335938 2.84375 -9.296875 L 2.84375 -7.59375 L 4.6875 -7.59375 C 4.726562 -7.59375 4.765625 -7.582031 4.796875 -7.5625 C 4.835938 -7.539062 4.867188 -7.503906 4.890625 -7.453125 C 4.910156 -7.410156 4.925781 -7.351562 4.9375 -7.28125 C 4.945312 -7.21875 4.953125 -7.132812 4.953125 -7.03125 C 4.953125 -6.84375 4.925781 -6.707031 4.875 -6.625 C 4.832031 -6.539062 4.769531 -6.5 4.6875 -6.5 L 2.84375 -6.5 L 2.84375 -2.484375 C 2.84375 -1.992188 2.914062 -1.617188 3.0625 -1.359375 C 3.207031 -1.109375 3.472656 -0.984375 3.859375 -0.984375 C 3.972656 -0.984375 4.078125 -0.992188 4.171875 -1.015625 C 4.273438 -1.046875 4.363281 -1.070312 4.4375 -1.09375 C 4.507812 -1.125 4.570312 -1.148438 4.625 -1.171875 C 4.675781 -1.203125 4.722656 -1.21875 4.765625 -1.21875 C 4.796875 -1.21875 4.820312 -1.207031 4.84375 -1.1875 C 4.875 -1.175781 4.894531 -1.148438 4.90625 -1.109375 C 4.914062 -1.078125 4.925781 -1.03125 4.9375 -0.96875 C 4.945312 -0.90625 4.953125 -0.820312 4.953125 -0.71875 Z M 4.953125 -0.71875 "/></g></g><g transform="translate(276.869703, 115.637596)"><g><path d="M 5.734375 -2.15625 C 5.734375 -1.789062 5.664062 -1.460938 5.53125 -1.171875 C 5.394531 -0.878906 5.203125 -0.632812 4.953125 -0.4375 C 4.703125 -0.25 4.398438 -0.101562 4.046875 0 C 3.703125 0.101562 3.320312 0.15625 2.90625 0.15625 C 2.65625 0.15625 2.410156 0.132812 2.171875 0.09375 C 1.941406 0.0507812 1.734375 0 1.546875 -0.0625 C 1.367188 -0.125 1.21875 -0.1875 1.09375 -0.25 C 0.96875 -0.3125 0.875 -0.367188 0.8125 -0.421875 C 0.75 -0.484375 0.703125 -0.5625 0.671875 -0.65625 C 0.648438 -0.75 0.640625 -0.878906 0.640625 -1.046875 C 0.640625 -1.148438 0.644531 -1.234375 0.65625 -1.296875 C 0.664062 -1.367188 0.675781 -1.425781 0.6875 -1.46875 C 0.707031 -1.507812 0.734375 -1.539062 0.765625 -1.5625 C 0.796875 -1.582031 0.832031 -1.59375 0.875 -1.59375 C 0.925781 -1.59375 1.007812 -1.554688 1.125 -1.484375 C 1.238281 -1.410156 1.378906 -1.332031 1.546875 -1.25 C 1.710938 -1.164062 1.910156 -1.085938 2.140625 -1.015625 C 2.367188 -0.941406 2.632812 -0.90625 2.9375 -0.90625 C 3.15625 -0.90625 3.351562 -0.925781 3.53125 -0.96875 C 3.71875 -1.019531 3.878906 -1.09375 4.015625 -1.1875 C 4.148438 -1.28125 4.25 -1.394531 4.3125 -1.53125 C 4.382812 -1.675781 4.421875 -1.847656 4.421875 -2.046875 C 4.421875 -2.253906 4.367188 -2.425781 4.265625 -2.5625 C 4.171875 -2.695312 4.035156 -2.816406 3.859375 -2.921875 C 3.691406 -3.035156 3.5 -3.128906 3.28125 -3.203125 C 3.070312 -3.285156 2.851562 -3.375 2.625 -3.46875 C 2.40625 -3.5625 2.1875 -3.664062 1.96875 -3.78125 C 1.75 -3.894531 1.554688 -4.03125 1.390625 -4.1875 C 1.222656 -4.351562 1.085938 -4.550781 0.984375 -4.78125 C 0.878906 -5.007812 0.828125 -5.285156 0.828125 -5.609375 C 0.828125 -5.890625 0.878906 -6.160156 0.984375 -6.421875 C 1.097656 -6.679688 1.257812 -6.90625 1.46875 -7.09375 C 1.6875 -7.289062 1.957031 -7.445312 2.28125 -7.5625 C 2.613281 -7.675781 3 -7.734375 3.4375 -7.734375 C 3.632812 -7.734375 3.828125 -7.71875 4.015625 -7.6875 C 4.203125 -7.65625 4.375 -7.613281 4.53125 -7.5625 C 4.6875 -7.519531 4.816406 -7.46875 4.921875 -7.40625 C 5.035156 -7.351562 5.117188 -7.304688 5.171875 -7.265625 C 5.234375 -7.222656 5.269531 -7.1875 5.28125 -7.15625 C 5.300781 -7.125 5.316406 -7.085938 5.328125 -7.046875 C 5.335938 -7.003906 5.34375 -6.953125 5.34375 -6.890625 C 5.351562 -6.835938 5.359375 -6.769531 5.359375 -6.6875 C 5.359375 -6.59375 5.351562 -6.515625 5.34375 -6.453125 C 5.34375 -6.390625 5.332031 -6.332031 5.3125 -6.28125 C 5.289062 -6.238281 5.265625 -6.207031 5.234375 -6.1875 C 5.210938 -6.175781 5.1875 -6.171875 5.15625 -6.171875 C 5.101562 -6.171875 5.03125 -6.195312 4.9375 -6.25 C 4.851562 -6.3125 4.738281 -6.375 4.59375 -6.4375 C 4.445312 -6.507812 4.273438 -6.570312 4.078125 -6.625 C 3.890625 -6.6875 3.671875 -6.71875 3.421875 -6.71875 C 3.203125 -6.71875 3.003906 -6.691406 2.828125 -6.640625 C 2.660156 -6.585938 2.519531 -6.515625 2.40625 -6.421875 C 2.300781 -6.328125 2.21875 -6.21875 2.15625 -6.09375 C 2.101562 -5.96875 2.078125 -5.832031 2.078125 -5.6875 C 2.078125 -5.476562 2.128906 -5.300781 2.234375 -5.15625 C 2.347656 -5.019531 2.488281 -4.894531 2.65625 -4.78125 C 2.820312 -4.675781 3.015625 -4.582031 3.234375 -4.5 C 3.453125 -4.414062 3.675781 -4.328125 3.90625 -4.234375 C 4.132812 -4.148438 4.359375 -4.050781 4.578125 -3.9375 C 4.796875 -3.820312 4.988281 -3.679688 5.15625 -3.515625 C 5.332031 -3.359375 5.472656 -3.171875 5.578125 -2.953125 C 5.679688 -2.734375 5.734375 -2.46875 5.734375 -2.15625 Z M 5.734375 -2.15625 "/></g></g><g transform="translate(283.258925, 115.637596)"><g/></g><g transform="translate(286.95207, 115.637596)"><g><path d="M 5.15625 -10.328125 C 5.15625 -10.234375 5.148438 -10.15625 5.140625 -10.09375 C 5.128906 -10.03125 5.113281 -9.976562 5.09375 -9.9375 C 5.082031 -9.90625 5.066406 -9.878906 5.046875 -9.859375 C 5.023438 -9.847656 5 -9.84375 4.96875 -9.84375 C 4.9375 -9.84375 4.890625 -9.851562 4.828125 -9.875 C 4.773438 -9.90625 4.707031 -9.929688 4.625 -9.953125 C 4.550781 -9.984375 4.457031 -10.007812 4.34375 -10.03125 C 4.238281 -10.0625 4.113281 -10.078125 3.96875 -10.078125 C 3.769531 -10.078125 3.597656 -10.046875 3.453125 -9.984375 C 3.316406 -9.921875 3.207031 -9.820312 3.125 -9.6875 C 3.039062 -9.550781 2.976562 -9.375 2.9375 -9.15625 C 2.90625 -8.9375 2.890625 -8.675781 2.890625 -8.375 L 2.890625 -7.59375 L 4.5 -7.59375 C 4.539062 -7.59375 4.570312 -7.582031 4.59375 -7.5625 C 4.625 -7.539062 4.648438 -7.503906 4.671875 -7.453125 C 4.703125 -7.410156 4.722656 -7.351562 4.734375 -7.28125 C 4.742188 -7.21875 4.75 -7.132812 4.75 -7.03125 C 4.75 -6.84375 4.722656 -6.707031 4.671875 -6.625 C 4.628906 -6.539062 4.570312 -6.5 4.5 -6.5 L 2.890625 -6.5 L 2.890625 -0.203125 C 2.890625 -0.160156 2.878906 -0.125 2.859375 -0.09375 C 2.835938 -0.0625 2.800781 -0.0351562 2.75 -0.015625 C 2.695312 0.00390625 2.628906 0.0195312 2.546875 0.03125 C 2.460938 0.0390625 2.351562 0.046875 2.21875 0.046875 C 2.09375 0.046875 1.988281 0.0390625 1.90625 0.03125 C 1.820312 0.0195312 1.753906 0.00390625 1.703125 -0.015625 C 1.648438 -0.0351562 1.613281 -0.0625 1.59375 -0.09375 C 1.570312 -0.125 1.5625 -0.160156 1.5625 -0.203125 L 1.5625 -6.5 L 0.546875 -6.5 C 0.460938 -6.5 0.398438 -6.539062 0.359375 -6.625 C 0.316406 -6.707031 0.296875 -6.84375 0.296875 -7.03125 C 0.296875 -7.132812 0.300781 -7.21875 0.3125 -7.28125 C 0.320312 -7.351562 0.335938 -7.410156 0.359375 -7.453125 C 0.378906 -7.503906 0.40625 -7.539062 0.4375 -7.5625 C 0.46875 -7.582031 0.503906 -7.59375 0.546875 -7.59375 L 1.5625 -7.59375 L 1.5625 -8.328125 C 1.5625 -8.828125 1.609375 -9.253906 1.703125 -9.609375 C 1.796875 -9.972656 1.9375 -10.269531 2.125 -10.5 C 2.320312 -10.726562 2.5625 -10.894531 2.84375 -11 C 3.132812 -11.113281 3.476562 -11.171875 3.875 -11.171875 C 4.0625 -11.171875 4.242188 -11.148438 4.421875 -11.109375 C 4.597656 -11.078125 4.734375 -11.039062 4.828125 -11 C 4.921875 -10.96875 4.984375 -10.9375 5.015625 -10.90625 C 5.046875 -10.875 5.070312 -10.832031 5.09375 -10.78125 C 5.113281 -10.726562 5.128906 -10.664062 5.140625 -10.59375 C 5.148438 -10.519531 5.15625 -10.429688 5.15625 -10.328125 Z M 5.15625 -10.328125 "/></g></g><g transform="translate(291.937418, 115.637596)"><g><path d="M 7.90625 -3.875 C 7.90625 -3.289062 7.828125 -2.75 7.671875 -2.25 C 7.515625 -1.757812 7.28125 -1.335938 6.96875 -0.984375 C 6.664062 -0.628906 6.285156 -0.347656 5.828125 -0.140625 C 5.367188 0.0546875 4.835938 0.15625 4.234375 0.15625 C 3.640625 0.15625 3.125 0.0664062 2.6875 -0.109375 C 2.25 -0.285156 1.882812 -0.539062 1.59375 -0.875 C 1.300781 -1.207031 1.082031 -1.613281 0.9375 -2.09375 C 0.789062 -2.570312 0.71875 -3.117188 0.71875 -3.734375 C 0.71875 -4.316406 0.789062 -4.851562 0.9375 -5.34375 C 1.09375 -5.832031 1.320312 -6.253906 1.625 -6.609375 C 1.9375 -6.972656 2.320312 -7.25 2.78125 -7.4375 C 3.238281 -7.632812 3.769531 -7.734375 4.375 -7.734375 C 4.96875 -7.734375 5.484375 -7.644531 5.921875 -7.46875 C 6.359375 -7.300781 6.722656 -7.046875 7.015625 -6.703125 C 7.316406 -6.367188 7.539062 -5.960938 7.6875 -5.484375 C 7.832031 -5.003906 7.90625 -4.46875 7.90625 -3.875 Z M 6.515625 -3.78125 C 6.515625 -4.164062 6.476562 -4.53125 6.40625 -4.875 C 6.332031 -5.226562 6.210938 -5.535156 6.046875 -5.796875 C 5.878906 -6.054688 5.65625 -6.257812 5.375 -6.40625 C 5.09375 -6.5625 4.742188 -6.640625 4.328125 -6.640625 C 3.941406 -6.640625 3.609375 -6.566406 3.328125 -6.421875 C 3.046875 -6.285156 2.8125 -6.09375 2.625 -5.84375 C 2.445312 -5.59375 2.3125 -5.289062 2.21875 -4.9375 C 2.132812 -4.59375 2.09375 -4.21875 2.09375 -3.8125 C 2.09375 -3.414062 2.128906 -3.046875 2.203125 -2.703125 C 2.273438 -2.359375 2.394531 -2.054688 2.5625 -1.796875 C 2.726562 -1.535156 2.953125 -1.328125 3.234375 -1.171875 C 3.515625 -1.023438 3.867188 -0.953125 4.296875 -0.953125 C 4.679688 -0.953125 5.015625 -1.019531 5.296875 -1.15625 C 5.578125 -1.300781 5.804688 -1.5 5.984375 -1.75 C 6.160156 -2 6.289062 -2.296875 6.375 -2.640625 C 6.46875 -2.984375 6.515625 -3.363281 6.515625 -3.78125 Z M 6.515625 -3.78125 "/></g></g><g transform="translate(300.552099, 115.637596)"><g><path d="M 5.421875 -6.90625 C 5.421875 -6.789062 5.414062 -6.691406 5.40625 -6.609375 C 5.40625 -6.535156 5.394531 -6.472656 5.375 -6.421875 C 5.363281 -6.378906 5.34375 -6.34375 5.3125 -6.3125 C 5.289062 -6.289062 5.257812 -6.28125 5.21875 -6.28125 C 5.175781 -6.28125 5.125 -6.289062 5.0625 -6.3125 C 5 -6.34375 4.925781 -6.367188 4.84375 -6.390625 C 4.769531 -6.421875 4.6875 -6.445312 4.59375 -6.46875 C 4.5 -6.488281 4.394531 -6.5 4.28125 -6.5 C 4.15625 -6.5 4.023438 -6.472656 3.890625 -6.421875 C 3.765625 -6.367188 3.628906 -6.28125 3.484375 -6.15625 C 3.347656 -6.03125 3.203125 -5.863281 3.046875 -5.65625 C 2.890625 -5.457031 2.71875 -5.210938 2.53125 -4.921875 L 2.53125 -0.203125 C 2.53125 -0.160156 2.519531 -0.125 2.5 -0.09375 C 2.476562 -0.0625 2.441406 -0.0351562 2.390625 -0.015625 C 2.347656 0.00390625 2.285156 0.0195312 2.203125 0.03125 C 2.117188 0.0390625 2.007812 0.046875 1.875 0.046875 C 1.75 0.046875 1.640625 0.0390625 1.546875 0.03125 C 1.460938 0.0195312 1.394531 0.00390625 1.34375 -0.015625 C 1.300781 -0.0351562 1.269531 -0.0625 1.25 -0.09375 C 1.226562 -0.125 1.21875 -0.160156 1.21875 -0.203125 L 1.21875 -7.375 C 1.21875 -7.425781 1.222656 -7.460938 1.234375 -7.484375 C 1.253906 -7.515625 1.285156 -7.539062 1.328125 -7.5625 C 1.378906 -7.59375 1.441406 -7.609375 1.515625 -7.609375 C 1.597656 -7.617188 1.695312 -7.625 1.8125 -7.625 C 1.9375 -7.625 2.035156 -7.617188 2.109375 -7.609375 C 2.179688 -7.609375 2.238281 -7.59375 2.28125 -7.5625 C 2.332031 -7.539062 2.363281 -7.515625 2.375 -7.484375 C 2.394531 -7.460938 2.40625 -7.425781 2.40625 -7.375 L 2.40625 -6.34375 C 2.601562 -6.625 2.785156 -6.851562 2.953125 -7.03125 C 3.128906 -7.21875 3.296875 -7.363281 3.453125 -7.46875 C 3.609375 -7.570312 3.757812 -7.640625 3.90625 -7.671875 C 4.0625 -7.710938 4.21875 -7.734375 4.375 -7.734375 C 4.445312 -7.734375 4.523438 -7.726562 4.609375 -7.71875 C 4.691406 -7.71875 4.78125 -7.707031 4.875 -7.6875 C 4.976562 -7.664062 5.066406 -7.640625 5.140625 -7.609375 C 5.222656 -7.585938 5.28125 -7.5625 5.3125 -7.53125 C 5.34375 -7.507812 5.363281 -7.484375 5.375 -7.453125 C 5.382812 -7.429688 5.390625 -7.398438 5.390625 -7.359375 C 5.398438 -7.328125 5.40625 -7.273438 5.40625 -7.203125 C 5.414062 -7.128906 5.421875 -7.03125 5.421875 -6.90625 Z M 5.421875 -6.90625 "/></g></g><g transform="translate(306.24736, 115.637596)"><g/></g></g><g fill="#7d343c" fill-opacity="1"><g transform="translate(309.942101, 115.637596)"><g><path d="M 9.1875 -0.28125 C 9.1875 -0.226562 9.164062 -0.179688 9.125 -0.140625 C 9.09375 -0.0976562 9.035156 -0.0625 8.953125 -0.03125 C 8.878906 -0.0078125 8.773438 0.00390625 8.640625 0.015625 C 8.503906 0.0351562 8.335938 0.046875 8.140625 0.046875 C 7.929688 0.046875 7.757812 0.0351562 7.625 0.015625 C 7.488281 0.00390625 7.378906 -0.0078125 7.296875 -0.03125 C 7.222656 -0.0625 7.171875 -0.0976562 7.140625 -0.140625 C 7.109375 -0.179688 7.09375 -0.226562 7.09375 -0.28125 L 7.09375 -4.46875 L 3.21875 -4.46875 L 3.21875 -0.28125 C 3.21875 -0.226562 3.203125 -0.179688 3.171875 -0.140625 C 3.140625 -0.0976562 3.082031 -0.0625 3 -0.03125 C 2.925781 -0.0078125 2.820312 0.00390625 2.6875 0.015625 C 2.550781 0.0351562 2.378906 0.046875 2.171875 0.046875 C 1.972656 0.046875 1.804688 0.0351562 1.671875 0.015625 C 1.535156 0.00390625 1.425781 -0.0078125 1.34375 -0.03125 C 1.269531 -0.0625 1.210938 -0.0976562 1.171875 -0.140625 C 1.140625 -0.179688 1.125 -0.226562 1.125 -0.28125 L 1.125 -10.046875 C 1.125 -10.097656 1.140625 -10.144531 1.171875 -10.1875 C 1.210938 -10.226562 1.269531 -10.257812 1.34375 -10.28125 C 1.425781 -10.3125 1.535156 -10.332031 1.671875 -10.34375 C 1.804688 -10.363281 1.972656 -10.375 2.171875 -10.375 C 2.378906 -10.375 2.550781 -10.363281 2.6875 -10.34375 C 2.820312 -10.332031 2.925781 -10.3125 3 -10.28125 C 3.082031 -10.257812 3.140625 -10.226562 3.171875 -10.1875 C 3.203125 -10.144531 3.21875 -10.097656 3.21875 -10.046875 L 3.21875 -6.25 L 7.09375 -6.25 L 7.09375 -10.046875 C 7.09375 -10.097656 7.109375 -10.144531 7.140625 -10.1875 C 7.171875 -10.226562 7.222656 -10.257812 7.296875 -10.28125 C 7.378906 -10.3125 7.488281 -10.332031 7.625 -10.34375 C 7.757812 -10.363281 7.929688 -10.375 8.140625 -10.375 C 8.335938 -10.375 8.503906 -10.363281 8.640625 -10.34375 C 8.773438 -10.332031 8.878906 -10.3125 8.953125 -10.28125 C 9.035156 -10.257812 9.09375 -10.226562 9.125 -10.1875 C 9.164062 -10.144531 9.1875 -10.097656 9.1875 -10.046875 Z M 9.1875 -0.28125 "/></g></g></g><g fill="#94666b" fill-opacity="1"><g transform="translate(320.254193, 115.637596)"><g><path d="M 7.34375 -4.109375 C 7.34375 -3.898438 7.289062 -3.75 7.1875 -3.65625 C 7.082031 -3.570312 6.96875 -3.53125 6.84375 -3.53125 L 2.125 -3.53125 C 2.125 -3.125 2.164062 -2.757812 2.25 -2.4375 C 2.332031 -2.125 2.460938 -1.851562 2.640625 -1.625 C 2.828125 -1.394531 3.070312 -1.21875 3.375 -1.09375 C 3.675781 -0.976562 4.039062 -0.921875 4.46875 -0.921875 C 4.8125 -0.921875 5.113281 -0.945312 5.375 -1 C 5.644531 -1.050781 5.875 -1.113281 6.0625 -1.1875 C 6.257812 -1.257812 6.421875 -1.320312 6.546875 -1.375 C 6.671875 -1.425781 6.765625 -1.453125 6.828125 -1.453125 C 6.867188 -1.453125 6.898438 -1.441406 6.921875 -1.421875 C 6.953125 -1.410156 6.972656 -1.382812 6.984375 -1.34375 C 7.003906 -1.3125 7.019531 -1.257812 7.03125 -1.1875 C 7.039062 -1.125 7.046875 -1.046875 7.046875 -0.953125 C 7.046875 -0.878906 7.039062 -0.816406 7.03125 -0.765625 C 7.03125 -0.710938 7.023438 -0.664062 7.015625 -0.625 C 7.003906 -0.59375 6.988281 -0.5625 6.96875 -0.53125 C 6.957031 -0.5 6.9375 -0.46875 6.90625 -0.4375 C 6.875 -0.40625 6.785156 -0.351562 6.640625 -0.28125 C 6.503906 -0.21875 6.320312 -0.15625 6.09375 -0.09375 C 5.863281 -0.03125 5.597656 0.0234375 5.296875 0.078125 C 4.992188 0.128906 4.671875 0.15625 4.328125 0.15625 C 3.742188 0.15625 3.226562 0.0703125 2.78125 -0.09375 C 2.332031 -0.257812 1.957031 -0.503906 1.65625 -0.828125 C 1.351562 -1.148438 1.125 -1.554688 0.96875 -2.046875 C 0.8125 -2.535156 0.734375 -3.109375 0.734375 -3.765625 C 0.734375 -4.378906 0.8125 -4.929688 0.96875 -5.421875 C 1.132812 -5.910156 1.367188 -6.328125 1.671875 -6.671875 C 1.972656 -7.015625 2.335938 -7.273438 2.765625 -7.453125 C 3.191406 -7.640625 3.664062 -7.734375 4.1875 -7.734375 C 4.75 -7.734375 5.226562 -7.644531 5.625 -7.46875 C 6.019531 -7.289062 6.34375 -7.046875 6.59375 -6.734375 C 6.851562 -6.429688 7.039062 -6.070312 7.15625 -5.65625 C 7.28125 -5.25 7.34375 -4.8125 7.34375 -4.34375 Z M 6.03125 -4.5 C 6.039062 -5.1875 5.882812 -5.726562 5.5625 -6.125 C 5.238281 -6.519531 4.765625 -6.71875 4.140625 -6.71875 C 3.804688 -6.71875 3.515625 -6.65625 3.265625 -6.53125 C 3.023438 -6.40625 2.820312 -6.238281 2.65625 -6.03125 C 2.5 -5.832031 2.375 -5.597656 2.28125 -5.328125 C 2.1875 -5.066406 2.132812 -4.789062 2.125 -4.5 Z M 6.03125 -4.5 "/></g></g><g transform="translate(328.382304, 115.637596)"><g><path d="M 6.625 -0.1875 C 6.625 -0.125 6.601562 -0.078125 6.5625 -0.046875 C 6.519531 -0.015625 6.460938 0.00390625 6.390625 0.015625 C 6.316406 0.0351562 6.207031 0.046875 6.0625 0.046875 C 5.925781 0.046875 5.816406 0.0351562 5.734375 0.015625 C 5.648438 0.00390625 5.585938 -0.015625 5.546875 -0.046875 C 5.515625 -0.078125 5.5 -0.125 5.5 -0.1875 L 5.5 -0.90625 C 5.1875 -0.570312 4.835938 -0.3125 4.453125 -0.125 C 4.066406 0.0625 3.65625 0.15625 3.21875 0.15625 C 2.84375 0.15625 2.5 0.101562 2.1875 0 C 1.882812 -0.09375 1.625 -0.234375 1.40625 -0.421875 C 1.195312 -0.609375 1.03125 -0.835938 0.90625 -1.109375 C 0.789062 -1.378906 0.734375 -1.6875 0.734375 -2.03125 C 0.734375 -2.4375 0.816406 -2.785156 0.984375 -3.078125 C 1.148438 -3.378906 1.382812 -3.628906 1.6875 -3.828125 C 2 -4.023438 2.378906 -4.171875 2.828125 -4.265625 C 3.273438 -4.367188 3.773438 -4.421875 4.328125 -4.421875 L 5.328125 -4.421875 L 5.328125 -4.984375 C 5.328125 -5.253906 5.296875 -5.492188 5.234375 -5.703125 C 5.171875 -5.921875 5.070312 -6.097656 4.9375 -6.234375 C 4.8125 -6.378906 4.644531 -6.488281 4.4375 -6.5625 C 4.238281 -6.632812 3.984375 -6.671875 3.671875 -6.671875 C 3.347656 -6.671875 3.054688 -6.628906 2.796875 -6.546875 C 2.546875 -6.472656 2.320312 -6.390625 2.125 -6.296875 C 1.925781 -6.203125 1.757812 -6.113281 1.625 -6.03125 C 1.5 -5.957031 1.40625 -5.921875 1.34375 -5.921875 C 1.300781 -5.921875 1.265625 -5.929688 1.234375 -5.953125 C 1.203125 -5.984375 1.175781 -6.019531 1.15625 -6.0625 C 1.132812 -6.101562 1.113281 -6.15625 1.09375 -6.21875 C 1.082031 -6.289062 1.078125 -6.363281 1.078125 -6.4375 C 1.078125 -6.570312 1.085938 -6.675781 1.109375 -6.75 C 1.128906 -6.832031 1.175781 -6.90625 1.25 -6.96875 C 1.320312 -7.039062 1.445312 -7.125 1.625 -7.21875 C 1.800781 -7.3125 2 -7.394531 2.21875 -7.46875 C 2.445312 -7.550781 2.695312 -7.613281 2.96875 -7.65625 C 3.25 -7.707031 3.523438 -7.734375 3.796875 -7.734375 C 4.316406 -7.734375 4.753906 -7.675781 5.109375 -7.5625 C 5.472656 -7.445312 5.765625 -7.273438 5.984375 -7.046875 C 6.210938 -6.828125 6.375 -6.546875 6.46875 -6.203125 C 6.570312 -5.867188 6.625 -5.476562 6.625 -5.03125 Z M 5.328125 -3.46875 L 4.203125 -3.46875 C 3.835938 -3.46875 3.519531 -3.4375 3.25 -3.375 C 2.988281 -3.3125 2.769531 -3.21875 2.59375 -3.09375 C 2.414062 -2.976562 2.285156 -2.835938 2.203125 -2.671875 C 2.117188 -2.503906 2.078125 -2.3125 2.078125 -2.09375 C 2.078125 -1.726562 2.195312 -1.429688 2.4375 -1.203125 C 2.675781 -0.984375 3.007812 -0.875 3.4375 -0.875 C 3.78125 -0.875 4.097656 -0.960938 4.390625 -1.140625 C 4.691406 -1.316406 5.003906 -1.585938 5.328125 -1.953125 Z M 5.328125 -3.46875 "/></g></g><g transform="translate(336.207306, 115.637596)"><g><path d="M 2.53125 -0.203125 C 2.53125 -0.160156 2.519531 -0.125 2.5 -0.09375 C 2.476562 -0.0625 2.441406 -0.0351562 2.390625 -0.015625 C 2.347656 0.00390625 2.285156 0.0195312 2.203125 0.03125 C 2.117188 0.0390625 2.007812 0.046875 1.875 0.046875 C 1.75 0.046875 1.640625 0.0390625 1.546875 0.03125 C 1.460938 0.0195312 1.394531 0.00390625 1.34375 -0.015625 C 1.300781 -0.0351562 1.269531 -0.0625 1.25 -0.09375 C 1.226562 -0.125 1.21875 -0.160156 1.21875 -0.203125 L 1.21875 -10.859375 C 1.21875 -10.898438 1.226562 -10.9375 1.25 -10.96875 C 1.269531 -11 1.300781 -11.023438 1.34375 -11.046875 C 1.394531 -11.066406 1.460938 -11.082031 1.546875 -11.09375 C 1.640625 -11.101562 1.75 -11.109375 1.875 -11.109375 C 2.007812 -11.109375 2.117188 -11.101562 2.203125 -11.09375 C 2.285156 -11.082031 2.347656 -11.066406 2.390625 -11.046875 C 2.441406 -11.023438 2.476562 -11 2.5 -10.96875 C 2.519531 -10.9375 2.53125 -10.898438 2.53125 -10.859375 Z M 2.53125 -0.203125 "/></g></g><g transform="translate(339.956287, 115.637596)"><g><path d="M 4.953125 -0.71875 C 4.953125 -0.570312 4.941406 -0.453125 4.921875 -0.359375 C 4.898438 -0.265625 4.867188 -0.195312 4.828125 -0.15625 C 4.785156 -0.113281 4.722656 -0.0703125 4.640625 -0.03125 C 4.554688 0 4.457031 0.0234375 4.34375 0.046875 C 4.238281 0.078125 4.125 0.0976562 4 0.109375 C 3.875 0.128906 3.75 0.140625 3.625 0.140625 C 3.257812 0.140625 2.941406 0.09375 2.671875 0 C 2.410156 -0.101562 2.191406 -0.253906 2.015625 -0.453125 C 1.847656 -0.660156 1.722656 -0.914062 1.640625 -1.21875 C 1.566406 -1.519531 1.53125 -1.878906 1.53125 -2.296875 L 1.53125 -6.5 L 0.53125 -6.5 C 0.445312 -6.5 0.378906 -6.539062 0.328125 -6.625 C 0.285156 -6.707031 0.265625 -6.84375 0.265625 -7.03125 C 0.265625 -7.132812 0.269531 -7.21875 0.28125 -7.28125 C 0.289062 -7.351562 0.304688 -7.410156 0.328125 -7.453125 C 0.347656 -7.503906 0.375 -7.539062 0.40625 -7.5625 C 0.445312 -7.582031 0.488281 -7.59375 0.53125 -7.59375 L 1.53125 -7.59375 L 1.53125 -9.296875 C 1.53125 -9.335938 1.539062 -9.375 1.5625 -9.40625 C 1.582031 -9.4375 1.613281 -9.460938 1.65625 -9.484375 C 1.707031 -9.503906 1.773438 -9.519531 1.859375 -9.53125 C 1.953125 -9.539062 2.0625 -9.546875 2.1875 -9.546875 C 2.320312 -9.546875 2.429688 -9.539062 2.515625 -9.53125 C 2.597656 -9.519531 2.660156 -9.503906 2.703125 -9.484375 C 2.753906 -9.460938 2.789062 -9.4375 2.8125 -9.40625 C 2.832031 -9.375 2.84375 -9.335938 2.84375 -9.296875 L 2.84375 -7.59375 L 4.6875 -7.59375 C 4.726562 -7.59375 4.765625 -7.582031 4.796875 -7.5625 C 4.835938 -7.539062 4.867188 -7.503906 4.890625 -7.453125 C 4.910156 -7.410156 4.925781 -7.351562 4.9375 -7.28125 C 4.945312 -7.21875 4.953125 -7.132812 4.953125 -7.03125 C 4.953125 -6.84375 4.925781 -6.707031 4.875 -6.625 C 4.832031 -6.539062 4.769531 -6.5 4.6875 -6.5 L 2.84375 -6.5 L 2.84375 -2.484375 C 2.84375 -1.992188 2.914062 -1.617188 3.0625 -1.359375 C 3.207031 -1.109375 3.472656 -0.984375 3.859375 -0.984375 C 3.972656 -0.984375 4.078125 -0.992188 4.171875 -1.015625 C 4.273438 -1.046875 4.363281 -1.070312 4.4375 -1.09375 C 4.507812 -1.125 4.570312 -1.148438 4.625 -1.171875 C 4.675781 -1.203125 4.722656 -1.21875 4.765625 -1.21875 C 4.796875 -1.21875 4.820312 -1.207031 4.84375 -1.1875 C 4.875 -1.175781 4.894531 -1.148438 4.90625 -1.109375 C 4.914062 -1.078125 4.925781 -1.03125 4.9375 -0.96875 C 4.945312 -0.90625 4.953125 -0.820312 4.953125 -0.71875 Z M 4.953125 -0.71875 "/></g></g><g transform="translate(345.428205, 115.637596)"><g><path d="M 7.40625 -0.203125 C 7.40625 -0.160156 7.394531 -0.125 7.375 -0.09375 C 7.351562 -0.0625 7.316406 -0.0351562 7.265625 -0.015625 C 7.222656 0.00390625 7.15625 0.0195312 7.0625 0.03125 C 6.976562 0.0390625 6.875 0.046875 6.75 0.046875 C 6.613281 0.046875 6.503906 0.0390625 6.421875 0.03125 C 6.335938 0.0195312 6.269531 0.00390625 6.21875 -0.015625 C 6.175781 -0.0351562 6.144531 -0.0625 6.125 -0.09375 C 6.101562 -0.125 6.09375 -0.160156 6.09375 -0.203125 L 6.09375 -4.40625 C 6.09375 -4.8125 6.054688 -5.140625 5.984375 -5.390625 C 5.921875 -5.640625 5.828125 -5.851562 5.703125 -6.03125 C 5.585938 -6.21875 5.429688 -6.359375 5.234375 -6.453125 C 5.046875 -6.546875 4.820312 -6.59375 4.5625 -6.59375 C 4.226562 -6.59375 3.894531 -6.472656 3.5625 -6.234375 C 3.238281 -6.003906 2.894531 -5.664062 2.53125 -5.21875 L 2.53125 -0.203125 C 2.53125 -0.160156 2.519531 -0.125 2.5 -0.09375 C 2.476562 -0.0625 2.441406 -0.0351562 2.390625 -0.015625 C 2.347656 0.00390625 2.285156 0.0195312 2.203125 0.03125 C 2.117188 0.0390625 2.007812 0.046875 1.875 0.046875 C 1.75 0.046875 1.640625 0.0390625 1.546875 0.03125 C 1.460938 0.0195312 1.394531 0.00390625 1.34375 -0.015625 C 1.300781 -0.0351562 1.269531 -0.0625 1.25 -0.09375 C 1.226562 -0.125 1.21875 -0.160156 1.21875 -0.203125 L 1.21875 -10.859375 C 1.21875 -10.898438 1.226562 -10.9375 1.25 -10.96875 C 1.269531 -11 1.300781 -11.023438 1.34375 -11.046875 C 1.394531 -11.066406 1.460938 -11.082031 1.546875 -11.09375 C 1.640625 -11.101562 1.75 -11.109375 1.875 -11.109375 C 2.007812 -11.109375 2.117188 -11.101562 2.203125 -11.09375 C 2.285156 -11.082031 2.347656 -11.066406 2.390625 -11.046875 C 2.441406 -11.023438 2.476562 -11 2.5 -10.96875 C 2.519531 -10.9375 2.53125 -10.898438 2.53125 -10.859375 L 2.53125 -6.5625 C 2.914062 -6.957031 3.296875 -7.25 3.671875 -7.4375 C 4.054688 -7.632812 4.445312 -7.734375 4.84375 -7.734375 C 5.3125 -7.734375 5.707031 -7.648438 6.03125 -7.484375 C 6.363281 -7.328125 6.628906 -7.113281 6.828125 -6.84375 C 7.035156 -6.570312 7.179688 -6.253906 7.265625 -5.890625 C 7.359375 -5.523438 7.40625 -5.085938 7.40625 -4.578125 Z M 7.40625 -0.203125 "/></g></g></g></svg>